if (_typeface_js && _typeface_js.loadFace) _typeface_js.loadFace({"glyphs":{"0":{"ha":736,"x_min":0,"x_max":0,"o":"m 181 524 b 360 890 181 732 239 890 b 558 435 463 890 558 772 b 388 39 558 324 544 39 b 181 524 206 39 181 365 z m 49 479 b 350 -18 49 181 142 -18 b 690 476 550 -18 690 165 b 397 946 690 783 574 946 b 49 479 147 946 49 686 z "},"1":{"ha":736,"x_min":0,"x_max":0,"o":"m 460 88 b 457 219 460 88 457 158 l 457 894 l 422 931 b 408 935 422 931 419 935 b 201 878 404 935 211 879 b 196 867 196 876 196 869 l 196 835 b 201 831 196 832 197 831 l 258 831 b 328 796 303 831 328 817 l 328 219 b 324 88 328 156 324 88 b 272 44 324 64 304 44 l 183 44 b 169 -4 169 44 169 22 b 396 0 222 -3 331 0 b 607 -4 464 0 556 -1 b 592 44 607 21 607 44 l 511 44 b 460 88 478 44 460 64 z "},"2":{"ha":736,"x_min":0,"x_max":0,"o":"m 558 -1 l 633 -1 b 653 11 646 -1 650 4 b 688 204 664 60 688 204 b 681 214 688 211 686 211 b 632 229 660 221 646 226 b 622 225 628 231 624 229 b 601 153 615 193 610 175 b 544 106 589 119 568 108 b 410 104 521 106 467 104 b 222 107 329 104 242 106 b 210 114 213 107 210 110 b 229 143 210 117 218 129 b 422 360 268 182 256 171 b 590 686 557 511 590 629 b 356 944 590 829 492 944 b 172 899 282 944 222 924 b 42 807 103 864 83 838 b 36 790 36 801 36 796 l 40 675 b 44 671 40 671 44 671 b 106 668 64 668 104 668 b 110 674 108 669 110 669 b 142 785 113 711 117 758 l 153 793 b 290 838 182 811 232 838 b 460 639 399 838 460 751 b 251 247 460 490 338 358 b 40 31 213 197 67 51 b 44 -3 35 8 44 -1 b 164 0 61 -1 121 0 b 558 -1 208 0 558 -1 z m 556 7 b 557 0 557 4 557 1 l 557 3 z "},"3":{"ha":736,"x_min":0,"x_max":0,"o":"m 307 -36 b 664 296 483 -26 664 110 b 454 531 664 440 521 513 b 447 544 436 533 442 540 b 579 750 450 547 579 618 b 361 967 579 882 474 967 b 101 817 254 967 168 888 b 96 800 97 813 96 808 l 100 718 b 104 714 100 714 104 714 b 164 711 124 711 163 711 b 168 717 167 713 168 713 b 174 781 172 775 171 767 b 201 836 176 797 185 822 b 299 861 228 850 261 861 b 460 694 396 861 460 782 b 260 499 460 582 356 519 b 249 489 256 497 253 499 b 233 447 240 475 235 457 b 242 442 232 440 238 442 b 289 443 258 443 274 443 b 529 221 432 443 529 383 b 325 31 529 89 432 31 b 189 71 268 31 218 38 b 132 206 154 110 143 167 b 122 210 131 210 126 211 b 74 194 108 207 94 201 b 67 185 68 192 67 192 b 104 25 68 138 72 68 b 307 -36 142 -28 204 -36 z "},"4":{"ha":736,"x_min":0,"x_max":0,"o":"m 564 236 l 668 236 l 699 325 l 564 325 b 550 336 558 325 551 329 l 550 932 b 540 940 550 940 547 940 b 474 931 515 938 497 936 l 31 293 b 24 279 31 293 25 286 b 21 238 22 274 18 257 l 414 238 b 424 217 414 238 424 238 l 421 -40 b 486 -37 440 -37 467 -37 b 554 -40 514 -37 535 -39 b 550 215 554 -26 550 215 l 550 222 b 564 236 550 228 554 236 z m 140 326 b 135 333 135 326 131 326 b 422 776 151 358 422 776 b 431 778 422 776 426 781 l 431 336 b 419 326 428 329 424 326 z "},"5":{"ha":736,"x_min":0,"x_max":0,"o":"m 154 586 b 163 540 144 551 163 540 l 199 519 b 446 374 199 519 375 433 b 546 210 508 315 546 279 b 350 7 546 74 474 7 b 167 90 271 7 211 40 b 114 206 138 121 124 171 b 104 210 113 210 108 211 b 56 194 90 207 76 201 b 49 185 50 192 49 192 b 85 24 50 138 54 68 b 317 -65 153 -75 321 -64 b 661 251 488 -54 661 82 b 536 489 661 419 536 489 b 257 644 464 543 257 643 b 240 672 250 649 236 653 b 276 807 247 703 274 796 b 289 831 281 822 282 831 l 406 831 b 529 828 447 831 488 829 b 542 807 536 828 540 818 l 547 739 b 551 733 547 735 549 735 b 615 736 553 733 596 733 b 619 740 615 736 619 736 l 635 906 b 625 924 636 914 632 924 b 293 928 478 928 293 928 l 290 928 b 251 913 286 928 257 929 z "},"6":{"ha":736,"x_min":0,"x_max":0,"o":"m 188 340 b 358 521 188 454 242 521 b 560 258 501 521 560 374 b 392 43 560 154 508 43 b 188 340 261 43 188 182 z m 594 1013 b 50 353 204 890 50 578 b 76 182 50 269 63 215 b 357 -18 108 64 196 -18 b 688 325 557 -18 688 140 b 447 617 688 482 589 617 b 239 551 374 617 299 585 b 242 601 228 550 235 583 b 615 975 321 825 615 975 b 619 982 619 978 621 978 b 604 1011 615 999 607 1008 b 594 1013 601 1014 597 1014 z "},"7":{"ha":736,"x_min":0,"x_max":0,"o":"m 565 806 b 569 793 569 804 572 800 b 194 -1 563 776 194 -1 b 200 -29 194 -1 183 -18 b 243 -47 217 -40 243 -47 b 263 -36 243 -47 256 -53 b 640 807 269 -19 640 807 l 672 888 b 657 911 671 886 681 911 b 149 910 633 911 149 910 l 100 910 b 79 889 88 910 82 901 l 49 704 b 56 699 49 700 50 699 l 113 699 b 118 704 117 699 117 700 b 200 803 132 776 151 797 b 565 806 288 803 463 804 z "},"8":{"ha":736,"x_min":0,"x_max":0,"o":"m 390 946 b 200 881 315 946 250 919 b 115 697 146 838 115 771 b 265 467 115 617 146 547 b 264 457 268 465 269 460 b 71 215 96 339 71 260 b 361 -17 71 50 211 -17 b 657 242 546 -17 657 106 b 468 488 657 350 608 399 b 468 494 465 489 464 492 b 631 721 594 579 631 647 b 390 946 631 851 526 946 z m 358 893 b 524 708 456 893 524 818 b 421 524 524 656 499 589 b 407 524 415 519 411 521 b 222 750 279 597 222 651 b 358 893 222 838 275 893 z m 392 43 b 188 235 267 43 188 132 b 306 433 188 308 224 364 b 319 433 310 436 315 436 b 544 179 482 342 544 283 b 392 43 544 106 471 43 z "},"9":{"ha":736,"x_min":0,"x_max":0,"o":"m 147 -62 b 692 597 538 60 692 372 b 650 800 692 714 665 775 b 385 968 607 901 515 968 b 61 625 192 967 61 810 b 310 346 61 474 161 346 b 507 403 369 346 443 367 b 500 349 515 400 506 365 b 126 -25 421 125 126 -25 b 122 -32 122 -28 121 -28 b 138 -61 126 -49 135 -58 b 147 -62 140 -64 144 -64 z m 554 603 b 397 442 553 485 507 442 b 182 692 254 442 182 568 b 350 907 182 796 233 907 b 554 603 508 907 554 718 z "},"\u0000":{"ha":0,"x_min":0,"x_max":0,"o":""},"\r":{"ha":264,"x_min":0,"x_max":0,"o":""}," ":{"ha":299,"x_min":0,"x_max":0,"o":""},"a":{"ha":636,"x_min":0,"x_max":0,"o":"m 414 136 b 235 65 364 99 289 65 b 161 146 196 65 161 96 b 221 225 161 188 189 211 b 414 285 267 246 332 267 z m 96 518 l 99 425 b 103 421 99 421 103 421 b 167 418 122 418 165 418 b 171 424 169 419 171 419 b 181 521 175 482 178 507 b 254 561 186 556 228 561 b 414 432 381 561 413 485 l 414 331 b 161 268 296 313 239 296 b 50 144 113 251 50 213 b 211 -18 50 46 119 -18 b 414 88 288 -18 358 35 l 414 14 l 442 -17 b 456 -21 442 -17 444 -21 b 615 3 461 -21 535 -10 b 622 14 622 4 622 8 l 622 43 b 614 49 622 46 619 49 l 588 49 b 535 101 553 49 538 71 b 532 238 535 101 532 138 l 532 469 b 308 639 532 601 383 639 b 103 536 225 639 124 550 b 96 518 96 531 96 529 z "},"l":{"ha":438,"x_min":0,"x_max":0,"o":"m 256 1001 b 242 1007 256 1001 251 1007 b 54 981 236 1007 64 983 b 49 971 49 979 49 974 l 49 939 b 54 935 49 936 50 935 l 125 935 b 164 900 154 935 164 917 l 164 215 b 157 76 164 151 157 76 b 138 50 156 60 150 50 l 69 50 b 56 0 56 50 56 26 b 219 4 108 1 154 4 b 389 0 286 4 338 3 b 375 50 389 25 389 50 l 310 50 b 289 76 297 50 290 60 b 283 215 289 76 283 154 l 283 976 z "},"e":{"ha":660,"x_min":0,"x_max":0,"o":"m 578 115 b 400 63 510 64 449 63 b 185 328 260 63 186 171 l 611 349 b 375 639 611 535 533 639 b 64 308 204 639 65 493 b 365 -18 64 133 144 -18 b 599 72 456 -18 539 13 b 578 115 613 86 590 104 z m 353 582 b 489 404 450 582 489 482 l 186 378 b 353 582 197 539 271 582 z "},"d":{"ha":785,"x_min":0,"x_max":0,"o":"m 610 1003 b 596 1007 610 1003 607 1007 b 410 979 592 1007 418 981 b 403 968 403 978 403 972 l 403 938 b 410 933 403 935 404 933 l 479 933 b 518 899 508 933 518 915 l 518 617 b 393 638 483 631 442 638 b 64 272 194 638 64 460 b 311 -19 64 121 153 -19 b 513 90 403 -19 490 68 l 513 14 l 540 -17 b 554 -21 540 -17 543 -21 b 726 8 558 -21 717 7 b 733 19 733 10 733 17 l 733 51 b 726 56 733 54 731 56 l 682 56 b 644 79 664 56 646 63 b 638 217 644 79 638 157 l 638 975 z m 517 174 b 350 67 501 125 410 67 b 185 321 203 67 185 207 b 360 575 185 422 232 575 b 513 475 443 575 492 524 b 518 436 515 468 517 454 l 518 217 b 517 174 518 203 518 189 z "},"c":{"ha":653,"x_min":0,"x_max":0,"o":"m 576 114 l 544 90 b 400 50 486 50 439 50 b 188 307 263 50 188 192 b 354 582 189 460 215 582 b 474 515 393 582 458 579 b 483 432 478 494 481 468 b 489 426 483 428 485 426 b 544 428 488 426 529 426 b 550 432 547 428 550 429 l 567 569 b 563 589 569 585 563 589 b 392 639 526 617 453 639 b 64 304 176 639 65 494 b 365 -18 64 158 158 -18 b 585 57 440 -18 518 -3 l 599 69 b 576 114 613 83 589 103 z "},"h":{"ha":861,"x_min":0,"x_max":0,"o":"m 486 46 b 472 -4 472 46 472 22 b 636 0 525 -3 571 0 b 806 -4 703 0 754 -1 b 792 46 806 21 806 46 l 726 46 b 706 72 714 46 707 56 b 700 211 706 72 700 150 l 700 454 b 494 635 700 571 581 635 b 278 524 376 635 285 526 l 278 969 l 250 997 b 236 1003 250 997 244 1004 l 64 974 b 57 968 57 972 57 968 l 57 932 b 64 928 57 929 58 928 l 119 928 b 158 893 149 928 158 910 l 158 211 b 153 72 158 147 153 72 b 132 46 153 44 132 46 l 65 46 b 51 -4 51 46 51 22 b 214 0 51 -4 149 0 b 383 -4 282 0 383 -4 b 369 46 383 21 383 46 l 304 46 b 285 72 304 46 285 44 b 278 211 285 72 278 150 l 278 436 b 449 547 282 486 367 547 b 581 397 576 546 581 465 l 581 211 b 574 72 581 147 574 72 b 554 46 572 56 565 46 z "},"j":{"ha":406,"x_min":0,"x_max":0,"o":"m 264 632 b 250 636 264 632 261 636 b 78 607 246 636 86 608 b 71 596 71 606 71 599 l 71 565 b 78 560 71 561 72 560 l 133 560 b 172 526 163 560 172 543 l 172 -203 b 161 -265 172 -224 167 -249 b 131 -287 154 -279 149 -285 b 19 -297 117 -290 78 -293 b 14 -301 15 -297 15 -299 b 17 -368 14 -303 14 -349 b 21 -372 17 -368 17 -372 l 128 -375 b 156 -358 143 -375 146 -368 b 276 -31 265 -232 263 -143 b 292 235 292 97 292 219 l 292 601 z m 163 846 b 176 803 163 829 168 815 b 225 776 189 788 203 776 b 288 799 247 776 275 782 b 306 846 297 811 304 825 b 290 900 307 865 303 889 b 233 917 278 915 253 918 b 178 897 214 915 190 908 b 163 846 164 885 163 867 z "},"w":{"ha":1008,"x_min":0,"x_max":0,"o":"m 817 575 b 846 535 840 575 853 557 l 696 140 b 576 586 635 308 576 586 b 535 583 560 583 547 583 b 490 586 524 583 510 583 l 325 140 b 204 549 264 308 204 549 b 235 575 200 567 222 575 l 285 575 b 299 625 299 575 299 600 b 129 621 247 621 196 621 b -35 625 64 621 18 624 b -21 575 -35 599 -35 575 l 24 575 b 72 553 36 575 64 571 b 261 -3 82 543 225 118 b 297 0 274 -1 285 0 b 333 -3 308 0 321 -1 b 492 418 361 78 443 290 b 632 -3 540 275 610 71 b 667 0 644 -1 654 0 b 703 -3 678 0 689 -1 b 910 535 743 117 910 535 b 982 578 922 563 951 578 l 1014 578 b 1028 628 1028 578 1028 603 b 900 621 976 624 951 621 b 761 625 856 621 814 624 b 775 575 761 599 761 575 z "},"H":{"ha":1164,"x_min":0,"x_max":0,"o":"m 372 51 b 321 90 351 51 321 69 b 315 221 319 94 315 161 l 315 449 b 326 456 317 451 319 456 l 844 456 b 854 451 851 456 854 453 l 854 221 b 851 89 856 157 851 89 b 800 51 851 68 819 51 l 732 51 b 718 -4 718 51 718 22 b 913 0 771 -3 847 0 b 1119 -4 981 0 1068 -1 b 1106 51 1119 21 1119 51 l 1040 51 b 989 89 1021 51 989 68 b 985 221 989 89 985 160 l 985 872 b 1040 910 986 893 1021 910 l 1106 910 b 1119 965 1119 910 1119 940 b 913 961 1068 963 981 961 b 718 965 847 961 771 964 b 732 910 718 939 718 910 l 800 910 b 854 872 819 910 854 893 l 854 529 b 844 522 853 525 850 522 l 326 522 b 315 528 319 522 317 525 l 315 872 b 372 910 317 893 351 910 l 438 910 b 451 965 451 910 451 940 b 244 961 400 963 311 961 b 50 965 179 961 103 964 b 64 910 50 939 50 910 l 131 910 b 185 872 151 910 185 893 l 185 221 b 182 89 186 157 182 89 b 131 51 182 68 151 51 l 64 51 b 50 -4 50 51 50 22 b 244 0 103 -3 179 0 b 451 -4 311 0 400 -1 b 438 51 451 21 451 51 z "},"O":{"ha":1114,"x_min":0,"x_max":0,"o":"m 581 983 b 65 488 261 983 65 765 b 565 -26 65 243 208 -26 b 1049 492 843 -26 1049 172 b 581 983 1049 761 836 983 z m 528 904 b 892 463 735 903 892 725 b 613 49 892 156 736 49 b 224 536 407 49 224 188 b 528 904 224 738 329 904 z "},"p":{"ha":778,"x_min":0,"x_max":0,"o":"m 425 550 b 593 294 572 550 593 410 b 415 40 593 176 539 40 b 265 140 333 40 286 92 b 258 199 261 149 260 175 l 258 440 b 425 550 263 490 347 550 z m 44 -332 b 31 -382 31 -332 31 -356 b 194 -376 83 -379 129 -376 b 364 -382 261 -376 313 -378 b 350 -332 364 -357 364 -332 l 285 -332 b 264 -306 272 -332 265 -321 b 258 -167 264 -306 258 -228 l 258 36 b 419 -22 294 3 344 -22 b 714 344 596 -22 714 156 b 671 518 714 410 697 468 b 464 636 631 594 547 636 b 258 526 358 636 258 526 l 258 601 l 231 632 b 217 636 231 632 226 636 b 29 607 211 636 39 608 b 24 596 24 606 24 599 l 24 565 b 29 560 24 561 25 560 l 100 560 b 139 526 129 560 139 543 l 139 -167 b 132 -306 139 -231 132 -306 b 113 -332 131 -322 125 -332 z "},"b":{"ha":763,"x_min":0,"x_max":0,"o":"m 215 1003 b 201 1007 215 1003 213 1007 b 14 979 197 1007 24 981 b 8 968 8 978 8 971 l 8 938 b 14 932 8 935 10 932 l 85 932 b 124 899 114 932 124 915 l 124 217 b 111 -1 124 106 115 36 l 144 -12 b 175 13 144 -12 163 13 b 369 -19 210 13 243 -19 b 699 346 576 -19 699 158 b 449 639 699 519 631 639 b 243 528 343 639 243 528 l 243 975 z m 243 442 b 410 553 247 492 332 553 b 578 292 549 553 578 407 b 379 40 578 139 508 40 b 250 106 319 40 253 78 b 243 217 247 126 243 175 z "},"q":{"ha":799,"x_min":0,"x_max":0,"o":"m 521 193 b 356 64 515 136 421 64 b 186 324 206 64 186 207 b 368 572 186 426 239 572 b 521 433 489 572 515 489 z m 667 -332 b 646 -306 654 -332 647 -322 b 640 -167 646 -306 640 -231 l 640 478 b 650 615 640 508 644 586 l 614 626 b 586 606 614 626 601 606 b 500 622 567 606 533 614 b 394 636 469 631 435 636 b 64 269 196 636 64 457 b 313 -22 64 96 167 -22 b 521 96 418 -22 521 96 l 521 -167 b 514 -306 521 -228 514 -306 b 494 -332 513 -321 507 -332 l 429 -332 b 414 -382 414 -332 414 -357 b 585 -376 465 -378 517 -376 b 747 -382 650 -376 694 -379 b 733 -332 747 -356 747 -332 z "},"r":{"ha":569,"x_min":0,"x_max":0,"o":"m 51 -4 b 214 0 51 -4 149 0 b 410 -4 282 0 410 -4 b 396 46 410 21 410 46 l 331 46 b 285 72 329 46 286 46 b 278 211 285 72 278 150 l 278 413 b 421 550 278 465 360 547 b 476 521 451 550 471 544 b 485 467 479 508 482 492 b 490 461 485 463 486 461 b 540 461 489 461 525 460 b 546 465 543 461 546 463 l 554 576 b 553 593 556 588 553 593 b 456 639 539 631 496 639 b 278 513 375 639 282 531 l 278 603 l 250 633 b 236 638 250 633 247 638 b 64 608 232 638 72 610 b 57 597 57 607 57 600 l 57 567 b 64 561 57 563 58 561 l 119 561 b 158 528 149 561 158 544 l 158 211 b 153 72 158 147 153 72 b 132 46 153 46 133 46 l 65 46 b 51 -4 51 46 51 22 z "},"k":{"ha":774,"x_min":0,"x_max":0,"o":"m 674 68 l 432 350 b 436 375 428 358 428 367 l 581 538 b 646 575 601 558 621 575 l 690 575 b 704 625 704 575 704 600 b 576 622 653 622 628 622 b 436 625 531 622 489 624 b 450 575 436 599 436 575 l 499 575 b 511 538 536 575 529 558 b 363 372 511 536 421 436 b 290 346 329 349 296 346 l 290 975 l 263 1001 b 249 1007 263 1001 258 1007 b 61 979 243 1007 71 982 b 56 969 56 978 56 972 l 56 938 b 61 933 56 935 57 933 l 132 933 b 171 899 161 933 171 915 l 171 211 b 164 72 171 147 164 72 b 144 46 163 56 157 46 l 76 46 b 63 -4 63 46 63 22 b 226 0 115 -3 161 0 b 396 -4 293 0 344 -1 b 382 46 396 21 396 46 l 317 46 b 296 72 304 46 297 56 b 290 211 296 72 290 150 l 290 289 b 383 236 332 288 367 254 l 519 68 b 568 7 525 58 535 49 b 597 -4 576 -3 585 -4 b 678 -1 621 -4 660 -1 b 774 -4 714 -1 747 -3 b 760 40 774 21 774 40 l 724 40 b 674 68 707 40 688 50 z "},"u":{"ha":803,"x_min":0,"x_max":0,"o":"m 558 179 b 393 64 553 124 460 64 b 263 213 285 64 263 144 l 263 603 l 235 633 b 221 638 235 633 232 638 b 49 608 217 638 57 610 b 42 597 42 607 42 600 l 42 567 b 49 561 42 563 43 561 l 100 561 b 139 511 129 561 136 549 b 143 400 140 478 143 433 l 143 156 b 349 -22 143 39 263 -22 b 558 88 467 -22 551 83 l 558 15 l 586 -14 b 600 -18 586 -14 589 -18 b 744 10 604 -18 664 -3 b 751 21 751 11 751 15 l 751 50 b 743 56 751 53 747 56 l 717 56 b 678 104 681 56 678 74 l 678 603 l 650 633 b 636 638 650 633 647 638 b 464 608 632 638 472 610 b 457 597 457 607 457 600 l 457 567 b 464 561 457 563 458 561 l 515 561 b 556 511 544 561 553 549 b 558 400 557 478 558 433 z "},"y":{"ha":683,"x_min":0,"x_max":0,"o":"m 183 -268 b 153 -290 176 -282 171 -286 b 47 -299 139 -293 106 -294 b 42 -303 43 -299 42 -300 b 44 -368 42 -304 42 -349 b 49 -372 44 -368 44 -372 l 157 -375 b 185 -358 172 -375 175 -368 b 275 -210 240 -294 250 -272 l 572 533 b 636 575 582 557 607 575 l 676 575 b 690 625 690 575 690 600 b 563 621 639 621 614 621 b 422 625 517 621 475 624 b 436 575 422 599 422 575 l 481 575 b 508 533 504 575 518 556 b 356 153 508 533 431 339 b 206 550 294 321 206 550 b 204 557 204 553 204 556 b 233 575 204 569 221 575 l 283 575 b 299 625 299 575 299 600 b 128 621 247 621 196 621 b -35 625 63 621 18 624 b -21 575 -35 599 -35 575 l 26 575 b 74 550 43 575 64 568 b 289 -8 83 540 251 115 z "},"f":{"ha":511,"x_min":0,"x_max":0,"o":"m 160 299 l 157 72 b 136 46 156 56 149 46 l 69 46 b 56 -4 56 46 56 22 b 219 0 108 -3 154 0 b 404 -4 286 0 353 -1 b 390 46 404 21 404 46 l 303 46 b 283 74 290 46 285 57 b 276 535 278 379 276 457 b 289 554 276 542 278 554 l 394 554 l 418 621 l 286 621 b 276 628 281 621 278 624 b 307 846 278 704 279 781 b 403 917 325 889 351 917 b 486 860 453 917 481 906 l 490 813 b 496 807 490 808 492 807 b 540 807 494 807 525 806 b 546 811 543 807 546 808 l 565 940 b 564 956 567 950 564 956 b 474 1007 547 990 507 1007 b 306 931 426 1006 357 965 b 168 621 192 853 174 753 b 86 607 147 618 94 608 b 81 596 81 606 81 599 l 81 560 b 86 556 81 557 82 556 l 144 554 b 165 528 160 554 164 543 b 161 396 164 490 161 449 b 160 299 160 336 160 299 z "},"x":{"ha":725,"x_min":0,"x_max":0,"o":"m 149 556 l 310 294 b 154 83 231 186 154 83 b 82 47 128 56 107 47 l 42 47 b 28 -3 28 47 28 22 b 156 0 79 0 104 0 b 300 -3 200 0 247 -1 b 286 47 300 24 300 47 l 246 47 b 224 83 210 47 213 69 l 342 243 l 449 72 b 426 44 460 57 454 44 l 392 44 b 378 -4 378 44 378 22 b 535 0 431 -3 469 0 b 704 -4 601 0 653 -1 b 690 44 704 21 704 44 l 647 44 b 583 72 631 44 593 54 l 414 342 l 560 539 b 629 576 575 561 604 576 l 668 576 b 682 626 682 576 682 601 b 556 624 631 624 607 624 b 415 626 510 624 468 625 b 429 576 415 600 415 576 l 472 576 b 490 539 506 576 506 561 b 382 392 490 538 442 472 l 281 556 b 300 575 275 564 272 575 l 338 575 b 351 625 351 575 351 600 b 207 621 300 621 274 621 b 43 625 142 621 96 624 b 57 575 43 599 43 575 l 97 575 b 149 556 121 575 142 568 z "},"t":{"ha":476,"x_min":0,"x_max":0,"o":"m 414 90 b 311 63 414 90 365 63 b 244 151 282 63 244 76 l 244 533 b 257 547 246 540 249 547 l 389 547 b 418 614 418 547 418 571 l 254 613 b 244 622 249 613 246 617 l 244 811 b 239 821 244 814 244 819 b 211 831 229 825 215 831 b 197 826 200 831 197 826 l 131 756 b 125 744 125 751 125 749 l 125 613 l 47 599 b 42 588 42 597 42 592 l 42 553 b 47 547 42 549 43 547 l 106 546 b 125 524 119 546 124 536 l 125 151 b 274 -11 125 33 169 -11 b 414 32 318 -11 381 8 b 414 90 428 42 436 56 z "},"I":{"ha":501,"x_min":0,"x_max":0,"o":"m 438 910 b 451 965 451 910 451 940 b 244 961 400 963 311 961 b 50 965 179 961 103 964 b 64 910 50 939 50 910 l 131 910 b 185 872 151 910 185 893 l 185 221 b 182 89 186 157 182 89 b 131 51 182 69 151 51 l 64 51 b 50 -4 50 51 50 22 b 244 0 103 -3 179 0 b 451 -4 311 0 400 -1 b 438 51 451 21 451 51 l 372 51 b 319 89 351 51 319 69 b 315 221 319 89 315 160 l 315 872 b 372 910 317 893 351 910 z "},"M":{"ha":1389,"x_min":0,"x_max":0,"o":"m 397 51 b 317 113 371 51 321 63 b 313 313 313 185 313 217 b 318 801 313 476 315 694 l 688 4 b 693 0 688 4 689 0 l 706 0 b 714 4 713 0 714 4 l 1064 760 b 1071 194 1069 454 1071 286 b 1069 89 1071 103 1069 89 b 1018 51 1069 67 1038 51 l 951 51 b 938 -4 938 51 938 22 b 1132 0 990 -3 1067 0 b 1339 -4 1199 0 1288 -1 b 1325 51 1339 21 1339 51 l 1258 51 b 1208 89 1239 51 1208 67 b 1190 872 1208 89 1201 150 b 1247 910 1190 893 1226 910 l 1314 910 b 1328 965 1328 910 1328 939 b 1140 961 1275 964 1206 961 b 1074 963 1113 961 1106 963 l 1046 903 b 726 208 1047 904 726 208 l 408 900 l 385 960 b 301 958 354 960 329 958 b 107 963 236 958 160 961 b 121 907 107 936 107 907 l 188 907 b 256 869 207 907 256 897 b 224 113 254 869 249 194 b 156 51 210 68 186 51 l 89 51 b 75 -4 75 51 75 22 b 269 0 128 -3 204 0 b 476 -4 336 0 425 -1 b 463 51 476 21 476 51 z "},"T":{"ha":979,"x_min":0,"x_max":0,"o":"m 565 894 l 756 894 b 865 758 824 894 846 849 b 871 753 867 754 867 753 l 915 753 b 922 758 921 753 922 754 l 931 918 b 926 932 931 929 926 932 l 894 963 l 746 961 l 238 961 l 89 963 l 64 933 b 60 919 64 933 60 931 l 49 760 b 56 754 49 756 50 754 l 104 753 b 110 758 108 753 108 754 b 228 894 126 847 168 894 l 414 894 b 425 883 421 893 424 889 l 425 221 b 421 89 425 157 421 89 b 363 51 421 61 382 51 l 278 51 b 264 -4 264 51 264 22 b 488 0 317 -3 422 0 b 708 -4 554 0 657 -1 b 694 51 708 21 708 51 l 618 51 b 560 89 599 51 560 61 b 554 221 560 89 554 160 l 554 878 b 565 894 554 886 556 893 z "},"N":{"ha":1188,"x_min":0,"x_max":0,"o":"m 372 51 b 290 113 346 51 293 67 b 283 785 286 181 283 610 b 907 -3 371 678 779 171 b 950 0 907 -3 931 0 b 1000 -3 967 0 982 -1 l 1000 556 b 1014 872 1000 644 1003 792 b 1078 910 1019 900 1054 910 l 1124 910 b 1138 965 1138 910 1138 939 b 964 961 1085 964 1029 961 b 757 965 897 961 808 963 b 771 910 757 940 757 910 l 858 910 b 917 872 886 910 911 894 b 931 556 929 790 931 643 l 931 186 l 307 961 l 244 961 b 50 965 179 961 103 964 b 64 910 50 939 50 910 l 131 910 b 207 869 151 910 207 903 l 207 635 b 197 113 207 432 206 163 b 131 51 192 71 161 51 l 64 51 b 50 -4 50 51 50 22 b 244 0 103 -3 179 0 b 451 -4 311 0 400 -1 b 438 51 451 19 451 51 z "},"Q":{"ha":1149,"x_min":0,"x_max":0,"o":"m 579 983 b 64 488 260 983 64 765 b 533 -25 64 207 247 -25 b 831 -183 585 -36 679 -72 b 1143 -282 932 -257 1044 -282 b 1340 -243 1226 -282 1299 -264 b 1426 -192 1394 -215 1417 -200 b 1429 -182 1432 -186 1429 -182 l 1414 -164 b 1401 -167 1411 -161 1404 -165 b 1253 -192 1358 -187 1271 -192 b 885 -79 1183 -192 1072 -172 b 718 -4 886 -81 800 -31 b 1047 492 914 56 1047 235 b 579 983 1047 761 835 983 z m 526 904 b 890 463 733 903 890 725 b 611 49 890 156 735 49 b 222 536 406 49 222 188 b 526 904 222 738 328 904 z "},"D":{"ha":1131,"x_min":0,"x_max":0,"o":"m 1065 504 b 610 961 1065 756 865 961 b 399 958 536 961 472 961 b 293 961 363 960 325 961 b 99 963 228 961 151 961 b 113 907 99 936 99 907 l 178 907 b 232 869 199 907 232 890 b 233 513 232 728 233 607 b 231 97 233 132 231 97 b 154 58 231 78 206 58 l 88 58 b 74 -1 74 58 74 25 b 293 0 126 0 228 0 b 511 -7 360 0 460 -7 b 1065 504 863 -7 1060 217 z m 914 446 b 583 58 914 243 801 58 b 364 118 518 58 374 64 b 363 515 364 153 363 244 b 365 864 363 610 365 722 b 424 901 365 889 403 900 b 476 903 456 903 467 903 b 914 446 724 903 911 800 z "},"V":{"ha":1031,"x_min":0,"x_max":0,"o":"m 88 914 b 138 896 111 914 128 913 b 467 -12 147 885 431 108 b 507 -10 479 -11 492 -10 b 551 -12 522 -10 539 -11 b 910 875 592 107 910 875 b 965 913 919 906 940 913 l 1021 913 b 1035 963 1035 913 1035 938 b 907 960 983 960 958 960 b 679 963 863 960 732 961 b 693 913 679 936 679 913 l 786 913 b 832 890 815 913 832 906 b 547 157 832 886 831 881 b 279 900 483 332 279 897 b 303 914 279 910 292 914 l 389 914 b 404 964 404 914 404 939 b 233 961 353 961 301 961 b 0 964 168 961 54 963 b 15 914 0 938 0 914 z "},"A":{"ha":1001,"x_min":0,"x_max":0,"o":"m 513 801 l 633 454 b 626 451 632 453 631 451 l 390 451 b 385 453 388 451 386 451 z m 1015 51 l 958 51 b 901 89 935 51 913 68 b 581 963 893 100 615 842 b 543 961 568 961 558 961 b 513 961 532 961 522 960 l 501 963 b 171 90 460 843 171 90 b 110 53 161 65 128 53 l 43 53 b 29 -3 29 53 29 24 b 224 1 82 -1 158 1 b 385 -3 290 1 333 0 b 369 53 385 22 385 53 l 304 53 b 251 90 264 53 243 68 l 358 383 b 364 385 360 385 361 385 l 653 385 b 660 383 656 385 657 385 b 761 89 714 225 761 89 b 710 51 774 57 729 51 l 654 51 b 640 -4 640 51 640 22 b 835 0 693 -3 769 0 b 1029 -4 901 0 978 -1 b 1015 51 1029 21 1029 51 z "},"s":{"ha":521,"x_min":0,"x_max":0,"o":"m 56 450 b 217 267 56 360 136 303 b 353 131 332 215 353 171 b 250 33 353 64 315 33 b 171 51 215 33 194 39 b 100 186 135 71 117 100 b 93 190 99 190 97 192 b 53 185 94 192 68 189 b 49 181 50 185 49 183 l 51 29 b 63 10 51 14 58 11 b 214 -19 131 -14 171 -19 b 465 172 340 -19 465 36 b 261 375 465 285 356 324 b 160 506 165 426 160 453 b 261 589 160 543 199 589 b 328 574 293 589 314 579 b 378 432 353 560 368 558 b 383 426 378 428 379 426 b 424 426 382 426 408 425 b 429 431 426 426 429 428 l 450 568 b 447 586 451 575 451 582 l 413 622 l 349 632 b 286 638 350 632 322 638 b 56 450 157 638 56 575 z "},"z":{"ha":594,"x_min":0,"x_max":0,"o":"m 190 621 l 82 624 b 65 607 82 624 69 624 l 42 464 b 46 460 42 461 43 460 b 94 450 61 456 96 450 b 101 454 99 449 100 450 b 197 565 133 560 139 564 l 371 565 b 372 554 374 565 375 561 b 43 25 322 456 124 147 l 67 0 b 436 -1 142 0 436 -1 l 506 -3 b 522 14 506 -3 518 -3 l 546 174 b 542 181 546 176 546 179 b 493 190 526 185 494 190 b 486 185 489 190 488 189 b 403 53 457 88 449 58 l 296 53 b 233 54 268 53 244 53 b 213 69 219 56 203 54 b 526 597 269 163 467 489 l 501 622 b 190 621 501 622 189 621 z "},"g":{"ha":664,"x_min":0,"x_max":0,"o":"m 432 56 b 306 65 379 61 336 64 b 228 125 244 69 228 101 b 290 181 228 169 269 179 l 297 181 b 538 413 417 186 538 292 b 514 522 538 454 529 490 b 514 532 511 528 513 531 b 581 514 521 538 526 514 b 651 589 621 514 647 551 b 650 597 651 589 653 594 l 628 628 b 619 626 624 633 622 629 b 558 600 600 607 568 600 b 442 615 504 594 458 610 b 319 639 406 629 365 639 b 61 407 196 639 61 556 b 214 188 61 299 106 213 l 103 99 b 94 79 96 92 94 86 b 189 -6 96 42 142 14 b 58 -106 132 -43 76 -82 b 35 -181 40 -129 35 -157 b 286 -375 35 -278 156 -375 b 563 -254 404 -375 515 -306 b 621 -89 599 -214 621 -158 b 432 56 621 -6 515 47 z m 225 -40 b 300 -28 236 -32 264 -28 b 547 -157 450 -31 547 -75 b 363 -287 547 -239 458 -287 b 138 -149 282 -287 138 -261 b 225 -40 138 -101 192 -65 z m 276 589 b 432 372 388 588 432 501 b 329 238 432 307 421 238 b 167 443 215 238 167 313 b 276 589 167 503 186 589 z "},"C":{"ha":1044,"x_min":0,"x_max":0,"o":"m 929 13 b 949 25 942 15 946 18 b 982 210 960 74 982 210 b 975 219 982 217 981 217 b 926 235 954 226 940 232 b 917 231 922 236 918 235 b 896 158 910 199 906 181 b 690 39 860 75 767 39 b 271 514 288 39 271 429 b 611 925 271 732 392 925 b 781 900 708 925 781 900 b 889 806 832 883 865 871 b 900 758 901 775 900 758 b 907 753 901 754 903 753 l 960 753 b 968 758 963 753 967 753 b 981 919 969 768 981 915 b 975 933 981 931 975 933 l 946 961 b 628 986 751 983 681 986 b 114 469 525 986 114 939 b 625 -29 114 33 510 -29 b 929 13 738 -29 836 -8 z "},"G":{"ha":1054,"x_min":0,"x_max":0,"o":"m 914 18 b 925 32 922 21 925 26 l 924 306 b 961 354 924 335 938 349 l 1011 365 b 1024 414 1026 368 1024 388 b 829 410 971 413 894 410 b 626 414 763 410 678 411 b 640 364 626 389 626 365 l 747 349 b 794 306 769 346 794 336 l 793 156 b 789 94 793 131 792 113 b 642 39 781 49 726 39 b 222 538 335 43 222 260 b 356 850 222 578 231 738 b 563 926 417 904 494 926 b 850 758 676 926 853 900 b 856 753 850 754 851 753 l 911 753 b 918 758 917 753 918 754 l 932 918 b 928 932 932 929 928 932 l 897 961 b 593 988 750 982 656 988 b 65 469 260 988 65 763 b 576 -29 65 33 461 -29 b 701 -22 618 -29 663 -28 b 869 6 701 -22 822 -6 z "},"J":{"ha":521,"x_min":0,"x_max":0,"o":"m 471 910 b 485 965 485 910 485 940 b 278 961 433 963 346 961 b 83 965 213 961 136 964 b 97 910 83 939 83 910 l 165 910 b 215 872 185 910 215 897 l 215 604 b 214 311 215 563 214 311 l 214 -157 b 206 -221 214 -175 210 -211 b 160 -250 199 -242 186 -246 b 13 -267 140 -253 93 -261 b 6 -272 7 -267 7 -268 b 8 -362 6 -274 6 -335 b 14 -368 8 -362 8 -368 l 161 -369 b 201 -347 183 -369 188 -361 b 276 -237 233 -310 258 -271 b 336 18 321 -156 326 -67 b 353 311 351 151 353 281 b 351 604 353 311 351 563 l 351 872 b 406 910 350 900 386 910 z "},"L":{"ha":851,"x_min":0,"x_max":0,"o":"m 365 -1 b 661 -6 628 -6 644 -6 b 782 -1 696 -6 736 -6 b 801 11 794 0 799 4 b 835 196 813 60 835 196 b 828 206 835 203 833 203 b 779 221 807 213 793 218 b 769 217 775 222 771 221 b 749 144 763 185 760 167 b 636 60 708 65 676 60 b 364 69 531 60 447 63 b 346 88 347 69 346 81 b 340 215 346 88 340 154 l 340 872 b 397 910 340 893 376 910 l 463 910 b 476 967 476 910 476 942 b 269 961 425 963 336 961 b 75 967 204 961 128 965 b 89 910 75 940 75 910 l 156 910 b 211 872 175 910 211 893 l 211 215 b 207 88 211 151 207 88 b 156 50 207 67 175 50 l 64 50 b 50 -6 50 50 50 21 b 269 -1 103 -4 204 -1 z "},"E":{"ha":849,"x_min":0,"x_max":0,"o":"m 633 0 b 754 4 668 0 708 0 b 774 17 767 6 771 10 b 807 201 785 65 807 201 b 800 211 807 208 806 208 b 751 226 779 218 765 224 b 742 222 747 228 743 226 b 721 150 735 190 732 172 b 608 65 681 71 649 65 l 357 65 b 313 104 331 65 317 83 l 313 451 b 322 457 314 454 317 457 l 539 457 b 625 394 578 457 625 438 l 625 358 b 676 342 625 338 651 329 b 674 493 675 393 674 426 b 685 631 674 558 676 578 b 631 622 661 646 632 636 l 625 579 b 539 524 625 533 578 524 l 322 524 b 313 528 317 524 314 525 l 313 857 b 351 894 314 879 324 894 l 569 894 b 663 772 651 894 661 846 b 668 767 663 768 664 767 l 724 769 b 731 775 729 769 731 771 l 738 921 b 733 935 738 932 733 935 l 708 961 l 242 961 b 47 965 176 961 100 964 b 61 910 47 939 47 910 l 126 910 b 181 872 147 910 181 893 l 181 221 b 182 174 181 204 182 189 b 179 93 182 129 179 93 b 103 54 179 74 154 54 l 36 54 b 22 -4 22 54 22 22 b 203 0 75 -3 140 0 z "},"F":{"ha":804,"x_min":0,"x_max":0,"o":"m 640 340 b 692 325 640 321 667 313 b 689 476 690 376 689 410 b 700 613 689 542 692 560 b 646 606 676 628 647 619 l 640 561 b 554 503 640 517 593 503 l 325 503 b 314 508 318 503 315 506 l 315 857 b 357 894 317 879 329 894 l 594 894 b 688 778 676 894 686 851 b 693 772 688 774 689 772 l 749 775 b 756 781 754 775 756 776 l 763 921 b 758 935 763 932 758 935 l 733 961 l 244 961 b 50 965 179 961 103 964 b 64 910 50 939 50 910 l 129 910 b 183 872 150 910 183 893 l 183 221 b 182 89 183 157 182 89 b 131 51 182 68 151 51 l 64 51 b 50 -4 50 51 50 22 b 244 0 103 -3 179 0 b 451 -4 311 0 400 -1 b 438 51 451 21 451 51 l 372 51 b 317 89 351 51 317 68 b 314 221 317 89 314 160 l 314 429 b 325 436 315 432 318 436 l 554 436 b 640 378 593 436 640 419 z "},"P":{"ha":833,"x_min":0,"x_max":0,"o":"m 317 961 l 244 961 b 50 965 179 961 103 964 b 64 910 50 939 50 910 l 131 910 b 186 872 154 910 186 897 l 186 221 b 182 89 186 157 182 89 b 131 51 182 68 151 51 l 64 51 b 50 -4 50 51 50 22 b 244 0 103 -3 179 0 b 451 -4 311 0 400 -1 b 438 51 451 21 451 51 l 372 51 b 321 89 351 51 321 68 b 315 221 321 89 315 160 l 315 365 b 326 378 315 378 326 378 l 458 378 b 661 440 508 378 588 390 b 792 692 775 517 792 638 b 490 964 792 807 725 964 b 317 961 486 964 367 963 z m 315 878 b 397 911 317 896 329 911 b 647 668 558 911 647 815 b 442 442 647 440 471 442 l 325 442 b 315 449 318 442 315 443 z "},"B":{"ha":897,"x_min":0,"x_max":0,"o":"m 365 958 l 293 958 b 99 963 228 958 151 961 b 113 907 99 936 99 907 l 179 907 b 233 869 200 907 233 890 l 233 225 b 231 93 233 161 231 93 b 154 54 231 74 206 54 l 88 54 b 74 -4 74 54 74 22 b 254 0 126 -3 192 0 l 369 0 b 489 -3 403 0 444 -3 b 715 50 563 -3 644 6 b 869 310 838 126 869 233 b 631 538 869 383 815 514 b 694 565 653 544 675 553 b 801 750 782 621 801 688 b 539 961 801 903 660 961 b 365 958 535 961 415 960 z m 514 478 b 726 246 650 471 726 381 b 510 50 726 111 633 50 b 368 114 435 50 376 72 b 364 225 367 140 364 185 l 364 471 b 375 478 365 474 368 478 z m 444 908 b 664 722 565 908 664 842 b 483 544 664 583 593 544 l 375 544 b 364 550 368 544 365 547 l 364 869 l 365 875 b 444 908 367 893 378 908 z "},"K":{"ha":1053,"x_min":0,"x_max":0,"o":"m 438 910 b 451 965 451 910 451 940 b 244 961 400 963 311 961 b 50 965 179 961 103 964 b 64 910 50 939 50 910 l 131 910 b 186 872 151 910 186 893 l 186 221 b 183 89 188 157 183 89 b 131 51 183 68 151 51 l 64 51 b 50 -4 50 51 50 22 b 244 0 103 -3 179 0 b 451 -4 311 0 400 -1 b 438 51 451 21 451 51 l 372 51 b 319 89 351 51 319 68 b 314 221 319 89 314 160 l 314 872 b 372 910 315 893 351 910 z m 929 911 b 943 967 943 911 943 942 b 763 961 892 964 829 961 b 571 965 697 961 624 964 b 585 910 571 939 571 910 l 640 910 b 708 883 690 910 708 900 b 678 835 708 869 696 853 b 393 528 678 835 529 653 b 328 492 381 518 346 497 b 328 464 324 483 325 471 b 696 68 354 451 360 443 b 744 8 701 60 711 50 b 774 -3 753 -1 761 -3 b 924 0 797 -3 907 0 b 1035 -3 960 0 1008 -1 b 1021 42 1035 22 1035 42 l 953 42 b 874 68 936 42 894 44 b 464 504 874 68 519 447 l 764 835 b 883 911 804 879 839 911 z "},"R":{"ha":975,"x_min":0,"x_max":0,"o":"m 317 961 l 244 961 b 50 965 179 961 103 964 b 64 910 50 939 50 910 l 131 910 b 186 872 151 910 186 893 l 186 221 b 182 89 186 157 182 89 b 131 51 182 68 151 51 l 64 51 b 50 -4 50 51 50 22 b 244 0 103 -3 179 0 b 451 -4 311 0 400 -1 b 438 51 451 21 451 51 l 372 51 b 321 89 351 51 321 68 b 315 221 321 89 315 160 l 315 403 b 326 414 315 403 315 414 l 440 414 b 485 386 460 413 472 403 b 694 68 546 299 694 68 b 743 8 706 54 717 39 b 771 -3 750 -1 758 -3 b 906 0 796 -3 889 0 b 982 -3 942 0 956 -1 b 963 51 982 22 976 51 l 921 51 b 849 78 896 51 864 57 b 576 457 693 290 581 454 l 628 489 b 764 729 754 565 764 674 b 490 964 764 835 685 964 b 317 961 486 964 367 963 z m 463 481 l 326 481 b 315 489 318 481 315 486 l 315 876 b 397 911 317 894 328 911 b 624 689 564 911 624 822 b 463 481 624 522 518 481 z "},"S":{"ha":717,"x_min":0,"x_max":0,"o":"m 511 886 b 546 764 524 869 544 813 b 551 758 546 760 547 758 b 604 758 550 758 589 757 b 610 764 607 758 610 760 l 618 919 b 614 938 619 932 614 938 l 589 964 l 525 974 b 394 985 526 974 463 985 b 85 706 219 985 85 886 b 326 419 85 601 167 506 b 528 207 513 321 528 236 b 350 29 528 101 458 29 b 164 107 207 29 164 107 b 122 219 139 150 138 172 b 114 224 121 224 118 225 l 61 208 b 56 200 57 207 56 207 b 81 29 56 188 79 35 b 85 18 81 24 85 18 b 304 -28 174 -15 239 -28 b 653 253 488 -28 653 68 b 349 569 653 444 511 475 b 207 788 215 646 207 704 b 372 935 207 882 281 935 b 511 886 481 935 511 886 z "},"U":{"ha":1135,"x_min":0,"x_max":0,"o":"m 436 910 b 450 965 450 910 450 940 b 243 961 399 963 310 961 b 49 965 178 961 101 964 b 63 910 49 939 49 910 l 129 910 b 186 861 157 910 186 893 l 186 392 b 604 -18 186 111 286 -18 b 967 392 933 -18 967 269 l 967 717 b 972 861 967 769 967 822 b 1046 910 974 889 1013 910 l 1086 910 b 1100 965 1100 910 1100 940 b 921 961 1049 963 988 961 b 739 965 854 961 790 963 b 753 910 739 940 739 910 l 793 910 b 883 861 840 910 876 889 b 893 581 893 815 893 783 l 893 392 b 619 64 893 235 861 64 b 321 392 378 64 321 236 l 321 861 b 371 910 321 896 349 910 z "},"W":{"ha":1389,"x_min":0,"x_max":0,"o":"m 54 914 b 104 894 67 914 94 911 b 358 -12 117 868 322 107 b 406 -10 371 -11 390 -10 b 450 -12 421 -10 438 -11 b 703 697 486 121 615 467 b 931 -12 767 507 903 81 b 978 -10 943 -11 963 -10 b 1022 -12 993 -10 1011 -11 b 1290 876 1086 211 1290 876 b 1346 914 1301 906 1322 914 l 1403 914 b 1417 964 1417 914 1417 939 b 1289 961 1365 961 1340 961 b 1060 964 1244 961 1113 963 b 1074 914 1060 938 1060 914 l 1168 914 b 1211 889 1199 914 1211 907 b 1008 182 1211 885 1211 881 b 778 915 943 368 794 854 b 738 911 769 913 750 911 b 701 915 722 911 701 915 l 440 171 b 253 896 376 357 253 896 b 275 914 249 911 263 914 l 361 914 b 376 964 376 914 376 939 b 206 961 325 961 274 961 b -28 964 140 961 26 963 b -12 914 -28 938 -28 914 z "},"X":{"ha":983,"x_min":0,"x_max":0,"o":"m 975 51 l 918 51 b 846 89 881 51 863 65 b 564 525 782 164 665 351 b 811 871 663 676 768 822 b 888 908 833 897 861 908 l 946 910 b 961 965 961 910 961 940 b 754 961 910 963 821 961 b 593 965 689 961 646 964 b 607 910 593 939 593 910 l 674 910 b 707 872 707 910 718 900 b 532 579 686 822 615 699 b 365 872 439 739 365 872 b 381 910 346 903 360 910 l 431 910 b 444 965 444 910 444 940 b 238 961 393 963 304 961 b 43 965 172 961 96 964 b 57 910 43 939 43 910 l 124 910 b 201 872 161 910 179 897 b 446 474 228 844 339 658 b 161 89 340 314 244 182 b 90 51 146 74 122 51 l 22 51 b 8 -4 8 51 8 22 b 203 0 61 -3 138 0 b 381 -4 269 0 329 -1 b 367 51 381 21 381 51 l 290 51 b 269 89 264 51 258 68 b 479 417 307 160 392 288 b 667 89 579 244 667 89 b 635 51 682 64 663 51 l 589 51 b 575 -4 575 51 575 22 b 769 0 628 -3 704 0 b 989 -4 836 0 938 -1 b 975 51 989 21 989 51 z "},"Y":{"ha":872,"x_min":0,"x_max":0,"o":"m 526 129 b 522 306 524 161 522 238 b 528 422 522 379 524 411 b 799 872 604 551 726 786 b 867 910 815 892 835 910 l 921 910 b 935 965 935 910 935 940 b 757 961 883 963 824 961 b 581 965 692 961 633 964 b 594 910 581 939 581 910 l 661 910 b 700 872 689 910 714 901 b 490 479 681 815 563 592 b 289 872 374 683 289 872 b 282 897 285 882 282 890 b 297 910 282 904 286 910 l 351 910 b 365 965 365 910 365 940 b 181 961 314 963 247 961 b -14 965 115 961 39 964 b 0 910 -14 939 -14 910 l 67 910 b 129 872 97 910 115 893 b 357 461 192 788 289 596 l 376 424 b 390 343 389 399 390 371 b 388 129 390 254 388 192 b 328 51 388 78 354 51 l 257 51 b 243 -4 243 51 243 22 b 447 0 296 -3 382 0 b 661 -4 515 0 610 -1 b 647 51 661 21 661 51 l 582 51 b 526 129 551 51 531 78 z "},"Z":{"ha":844,"x_min":0,"x_max":0,"o":"m 638 -3 l 781 -3 b 817 38 800 -3 813 11 l 838 188 b 831 196 838 192 836 194 l 776 211 b 771 206 772 211 772 210 b 638 64 742 107 725 64 l 442 64 b 268 65 361 64 283 64 b 249 78 254 67 239 63 b 800 926 306 171 742 819 l 763 963 b 260 961 763 963 258 961 l 111 961 l 86 935 b 82 921 86 935 82 932 l 64 771 b 71 765 64 767 65 765 l 126 763 b 132 768 131 763 131 764 b 250 890 150 858 168 890 l 625 890 b 626 879 628 890 631 886 b 65 39 578 782 176 204 l 103 3 b 638 -3 235 1 579 -1 z "},".":{"ha":235,"x_min":0,"x_max":0,"o":"m 49 49 b 60 8 50 39 53 17 b 108 -14 69 -4 90 -14 b 178 4 147 -14 161 -11 b 194 50 192 17 193 35 b 185 114 196 85 193 103 b 108 135 174 128 146 139 b 61 113 90 133 71 126 b 49 49 46 90 46 82 z "},"v":{"ha":671,"x_min":0,"x_max":0,"o":"m 479 575 b 507 531 506 575 519 557 l 356 149 l 206 549 b 238 575 200 567 218 575 l 285 575 b 299 625 299 575 299 600 b 129 621 247 621 196 621 b -35 625 64 621 19 624 b -19 575 -35 599 -35 575 l 31 575 b 76 549 47 575 67 567 b 286 -3 85 539 250 118 b 322 0 299 -1 307 0 b 358 -3 338 0 346 -1 b 571 531 399 117 571 531 b 639 575 581 557 614 575 l 676 575 b 690 625 690 575 690 600 b 564 621 639 621 615 621 b 424 625 518 621 476 624 b 438 575 424 599 424 575 z "},"!":{"ha":399,"x_min":0,"x_max":0,"o":"m 263 958 b 138 932 239 956 138 932 b 125 907 126 929 122 921 b 172 292 128 883 172 292 b 179 282 172 286 174 283 b 224 274 186 279 224 274 b 233 281 231 272 233 276 b 285 942 233 286 285 942 b 263 958 286 958 275 960 z m 140 60 b 154 17 140 43 146 29 b 203 -10 167 1 181 -10 b 265 13 225 -10 253 -4 b 283 60 275 25 282 39 b 268 114 285 79 281 103 b 211 131 256 129 231 132 b 157 111 192 129 168 122 b 140 60 142 99 140 81 z "},":":{"ha":282,"x_min":0,"x_max":0,"o":"m 49 54 b 60 14 50 44 53 22 b 108 -8 69 1 90 -8 b 178 10 147 -8 161 -6 b 194 56 192 22 193 40 b 185 119 196 90 193 108 b 108 140 174 133 146 144 b 61 118 90 139 71 132 b 49 54 46 96 46 88 z m 49 443 b 60 403 50 433 53 411 b 108 381 69 390 90 381 b 178 399 147 381 161 383 b 194 444 192 411 193 429 b 185 508 196 479 193 497 b 108 529 174 522 146 533 b 61 507 90 528 71 521 b 49 443 46 485 46 476 z "},"?":{"ha":525,"x_min":0,"x_max":0,"o":"m 64 742 b 119 744 83 742 118 744 b 124 750 122 746 124 746 b 125 836 124 797 124 817 b 165 864 125 860 150 863 b 372 699 258 858 371 797 b 321 592 372 668 351 619 b 139 449 238 518 139 449 b 126 421 128 440 126 433 b 201 296 125 382 149 336 b 232 286 206 293 219 282 b 269 307 244 294 269 307 b 271 328 276 311 278 322 b 263 443 222 374 226 414 b 436 601 303 476 407 568 b 472 724 464 633 472 686 b 194 961 472 869 322 961 b 49 847 79 961 49 925 b 60 746 49 804 60 746 b 64 742 60 742 64 742 z m 178 60 b 192 17 178 43 183 29 b 240 -10 204 1 218 -10 b 303 13 263 -10 290 -4 b 321 60 313 25 319 39 b 306 114 322 79 318 103 b 249 131 293 129 268 132 b 194 111 229 129 206 122 b 178 60 179 99 178 81 z "},"n":{"ha":847,"x_min":0,"x_max":0,"o":"m 486 46 b 472 -4 472 46 472 22 b 636 0 525 -3 571 0 b 806 -4 703 0 754 -1 b 792 46 806 21 806 46 l 726 46 b 706 74 714 46 707 57 b 700 211 704 78 700 151 l 700 454 b 494 635 700 571 603 635 b 278 524 376 635 285 526 l 278 600 l 250 631 b 236 635 250 631 247 635 b 64 606 232 635 72 607 b 57 594 57 604 57 597 l 57 564 b 64 558 57 560 58 558 l 119 558 b 158 522 149 558 158 539 l 158 211 b 153 72 158 147 153 72 b 132 46 150 56 144 46 l 65 46 b 51 -4 51 46 51 22 b 214 0 104 -3 149 0 b 383 -4 282 0 332 -1 b 369 46 383 21 383 46 l 304 46 b 285 72 292 46 286 56 b 278 211 285 72 278 150 l 278 436 b 449 550 282 486 367 550 b 581 397 576 549 581 465 l 581 211 b 574 72 581 147 574 72 b 554 46 572 56 565 46 z "},"m":{"ha":1268,"x_min":0,"x_max":0,"o":"m 486 46 b 472 -4 472 46 472 22 b 636 0 525 -3 571 0 b 806 -4 703 0 754 -1 b 792 46 806 21 806 46 l 726 46 b 706 72 714 46 707 56 b 700 211 706 72 700 150 l 700 433 b 871 546 704 483 789 546 b 1001 397 999 544 1001 465 l 1001 211 b 996 72 1001 147 996 72 b 975 46 993 56 988 46 l 908 46 b 894 -4 894 46 894 22 b 1057 0 947 -3 992 0 b 1226 0 1125 0 1176 3 b 1213 50 1226 25 1226 50 l 1147 46 b 1128 72 1135 46 1129 56 b 1121 211 1128 72 1121 150 l 1121 454 b 915 632 1121 571 1001 632 b 688 513 800 632 701 526 b 494 632 656 590 564 632 b 278 524 376 632 285 526 l 278 597 l 250 628 b 236 632 250 628 247 632 b 64 603 232 632 72 604 b 57 592 57 601 57 594 l 57 561 b 64 556 57 557 58 556 l 119 556 b 158 522 149 556 158 539 l 158 211 b 153 72 158 147 153 72 b 132 46 150 56 144 46 l 65 46 b 51 -4 51 46 51 22 b 214 0 104 -3 149 0 b 383 -4 282 0 332 -1 b 369 46 383 21 383 46 l 304 46 b 285 72 292 46 286 56 b 278 211 285 72 278 150 l 278 436 b 449 546 282 486 367 546 b 581 397 576 544 581 465 l 581 211 b 574 72 581 147 574 72 b 554 46 572 56 565 46 z "},"o":{"ha":753,"x_min":0,"x_max":0,"o":"m 189 340 b 360 578 189 451 235 578 b 564 281 490 578 564 439 b 393 43 564 169 518 43 b 189 340 263 43 189 182 z m 64 296 b 358 -18 64 119 150 -18 b 689 325 558 -18 689 140 b 394 639 689 501 603 639 b 64 296 194 639 64 481 z "},"`":{"ha":414,"x_min":0,"x_max":0,"o":"m 190 944 b 189 928 186 943 181 938 b 336 740 197 917 318 757 b 350 736 340 735 343 733 b 374 757 360 743 369 754 b 375 769 376 760 378 763 b 310 956 371 775 311 953 b 292 961 307 963 303 963 b 190 944 281 960 193 946 z "},"¨":{"ha":493,"x_min":0,"x_max":0,"o":"m 35 851 b 49 807 35 833 40 819 b 97 781 61 792 75 781 b 151 803 111 781 139 788 b 171 851 161 815 169 829 b 156 897 172 861 168 885 b 106 913 143 911 118 915 b 51 894 86 911 64 906 b 35 851 36 882 35 864 z m 315 851 b 329 807 315 833 319 819 b 378 781 342 792 356 781 b 432 803 392 781 419 788 b 450 851 442 815 449 829 b 435 897 453 861 447 885 b 385 913 422 911 397 915 b 331 894 367 911 343 906 b 315 851 317 882 315 864 z "},"´":{"ha":278,"x_min":0,"x_max":0,"o":"m 124 958 b 104 947 113 957 107 954 b 32 765 103 944 36 771 b 33 753 29 758 31 756 b 57 732 38 750 47 739 b 71 736 64 729 67 731 b 221 931 89 753 213 919 b 219 947 229 940 224 947 z "},"à":{"ha":636,"x_min":0,"x_max":0,"o":"m 414 136 b 235 65 364 99 289 65 b 161 146 196 65 161 96 b 221 225 161 188 189 211 b 414 285 267 246 332 267 z m 96 518 l 99 425 b 103 421 99 421 103 421 b 167 418 122 418 165 418 b 171 424 169 419 171 419 b 181 521 175 482 178 507 b 254 561 186 556 228 561 b 414 432 381 561 413 485 l 414 331 b 161 268 296 313 239 296 b 50 144 113 251 50 213 b 211 -18 50 46 119 -18 b 414 88 288 -18 358 35 l 414 14 l 442 -17 b 456 -21 442 -17 444 -21 b 615 3 461 -21 535 -10 b 622 14 622 4 622 8 l 622 43 b 614 49 622 46 619 49 l 588 49 b 535 101 553 49 538 71 b 532 238 535 101 532 138 l 532 469 b 308 639 532 601 383 639 b 103 536 225 639 124 550 b 96 518 96 531 96 529 z m 224 939 b 222 922 219 938 214 932 b 369 735 231 911 351 751 b 383 731 374 729 376 728 b 407 751 393 738 403 749 b 408 764 410 754 411 757 b 343 950 404 769 344 947 b 325 956 340 957 336 957 b 224 939 314 954 226 940 z "},"á":{"ha":636,"x_min":0,"x_max":0,"o":"m 414 136 b 235 65 364 99 289 65 b 161 146 196 65 161 96 b 221 225 161 188 189 211 b 414 285 267 246 332 267 z m 96 518 l 99 425 b 103 421 99 421 103 421 b 167 418 122 418 165 418 b 171 424 169 419 171 419 b 181 521 175 482 178 507 b 254 561 186 556 228 561 b 414 432 381 561 413 485 l 414 331 b 161 268 296 313 239 296 b 50 144 113 251 50 213 b 211 -18 50 46 119 -18 b 414 88 288 -18 358 35 l 414 14 l 442 -17 b 456 -21 442 -17 444 -21 b 615 3 461 -21 535 -10 b 622 14 622 4 622 8 l 622 43 b 614 49 622 46 619 49 l 588 49 b 535 101 553 49 538 71 b 532 238 535 101 532 138 l 532 469 b 308 639 532 601 383 639 b 103 536 225 639 124 550 b 96 518 96 531 96 529 z m 365 958 b 346 947 354 957 349 954 b 274 765 344 944 278 771 b 275 753 271 758 272 756 b 299 732 279 750 289 739 b 313 736 306 729 308 731 b 463 931 331 753 454 919 b 461 947 471 940 465 947 z "},"ˆ":{"ha":632,"x_min":0,"x_max":0,"o":"m 376 976 b 367 982 376 976 374 983 b 325 971 356 981 331 972 b 311 951 321 968 317 963 b 196 740 307 939 214 760 b 210 726 193 736 192 726 b 258 747 228 726 249 731 b 329 865 271 768 321 849 b 342 864 333 872 336 876 b 422 735 349 851 400 758 b 442 731 426 732 429 725 b 488 747 453 733 483 743 b 488 764 493 750 492 756 b 376 976 478 778 410 899 z "},"ô":{"ha":753,"x_min":0,"x_max":0,"o":"m 189 340 b 360 578 189 451 235 578 b 564 281 490 578 564 439 b 393 43 564 169 518 43 b 189 340 263 43 189 182 z m 64 296 b 358 -18 64 119 150 -18 b 689 325 558 -18 689 140 b 394 639 689 501 603 639 b 64 296 194 639 64 481 z m 435 964 b 425 969 435 964 432 971 b 383 958 414 968 389 960 b 369 939 379 956 375 950 b 254 728 365 926 272 747 b 268 714 251 724 250 714 b 317 735 286 714 307 718 b 388 853 329 756 379 836 b 400 851 392 860 394 864 b 481 722 407 839 458 746 b 500 718 485 719 488 713 b 546 735 511 721 542 731 b 546 751 551 738 550 743 b 435 964 536 765 468 886 z "},"ö":{"ha":753,"x_min":0,"x_max":0,"o":"m 189 340 b 360 578 189 451 235 578 b 564 281 490 578 564 439 b 393 43 564 169 518 43 b 189 340 263 43 189 182 z m 64 296 b 358 -18 64 119 150 -18 b 689 325 558 -18 689 140 b 394 639 689 501 603 639 b 64 296 194 639 64 481 z m 196 851 b 210 807 196 833 201 819 b 258 781 222 792 236 781 b 313 803 272 781 300 788 b 332 851 322 815 331 829 b 317 897 333 861 329 885 b 267 913 304 911 279 915 b 213 894 247 911 225 906 b 196 851 197 882 196 864 z m 476 851 b 490 807 476 833 481 819 b 539 781 503 792 517 781 b 593 803 553 781 581 788 b 611 851 603 815 610 829 b 596 897 614 861 608 885 b 546 913 583 911 558 915 b 492 894 528 911 504 906 b 476 851 478 882 476 864 z "},"˜":{"ha":682,"x_min":0,"x_max":0,"o":"m 197 814 b 190 776 193 807 190 796 b 204 772 190 778 192 761 b 293 818 232 796 257 818 b 440 783 346 818 390 783 b 549 828 489 783 528 813 b 592 879 563 839 586 860 b 583 910 596 900 596 921 b 479 858 572 899 532 858 b 332 896 425 858 383 896 b 197 814 293 896 219 850 z "},"ñ":{"ha":847,"x_min":0,"x_max":0,"o":"m 486 46 b 472 -4 472 46 472 22 b 636 0 525 -3 571 0 b 806 -4 703 0 754 -1 b 792 46 806 21 806 46 l 726 46 b 706 74 714 46 707 57 b 700 211 704 78 700 151 l 700 454 b 494 635 700 571 603 635 b 278 524 376 635 285 526 l 278 600 l 250 631 b 236 635 250 631 247 635 b 64 606 232 635 72 607 b 57 594 57 604 57 597 l 57 564 b 64 558 57 560 58 558 l 119 558 b 158 522 149 558 158 539 l 158 211 b 153 72 158 147 153 72 b 132 46 150 56 144 46 l 65 46 b 51 -4 51 46 51 22 b 214 0 104 -3 149 0 b 383 -4 282 0 332 -1 b 369 46 383 21 383 46 l 304 46 b 285 72 292 46 286 56 b 278 211 285 72 278 150 l 278 436 b 449 550 282 486 367 550 b 581 397 576 549 581 465 l 581 211 b 574 72 581 147 574 72 b 554 46 572 56 565 46 z m 239 811 b 232 774 235 804 232 793 b 246 769 232 775 233 758 b 335 815 274 793 299 815 b 482 781 388 815 432 781 b 590 825 531 781 569 810 b 633 876 604 836 628 857 b 625 907 638 897 638 918 b 521 856 614 896 574 856 b 374 893 467 856 425 893 b 239 811 335 893 261 847 z "},"ò":{"ha":753,"x_min":0,"x_max":0,"o":"m 189 340 b 360 578 189 451 235 578 b 564 281 490 578 564 439 b 393 43 564 169 518 43 b 189 340 263 43 189 182 z m 64 296 b 358 -18 64 119 150 -18 b 689 325 558 -18 689 140 b 394 639 689 501 603 639 b 64 296 194 639 64 481 z m 281 940 b 279 924 276 939 271 933 b 426 736 288 913 408 753 b 440 732 431 731 433 729 b 464 753 450 739 460 750 b 465 765 467 756 468 758 b 400 951 461 771 401 949 b 382 957 397 958 393 958 b 281 940 371 956 283 942 z "},"õ":{"ha":753,"x_min":0,"x_max":0,"o":"m 189 340 b 360 578 189 451 235 578 b 564 281 490 578 564 439 b 393 43 564 169 518 43 b 189 340 263 43 189 182 z m 64 296 b 358 -18 64 119 150 -18 b 689 325 558 -18 689 140 b 394 639 689 501 603 639 b 64 296 194 639 64 481 z m 210 814 b 203 776 206 807 203 796 b 217 772 203 778 204 761 b 306 818 244 796 269 818 b 453 783 358 818 403 783 b 561 828 501 783 540 813 b 604 879 575 839 599 860 b 596 910 608 900 608 921 b 492 858 585 899 544 858 b 344 896 438 858 396 896 b 210 814 306 896 232 850 z "},"ú":{"ha":803,"x_min":0,"x_max":0,"o":"m 558 179 b 393 64 553 124 460 64 b 263 213 285 64 263 144 l 263 603 l 235 633 b 221 638 235 633 232 638 b 49 608 217 638 57 610 b 42 597 42 607 42 600 l 42 567 b 49 561 42 563 43 561 l 100 561 b 139 511 129 561 136 549 b 143 400 140 478 143 433 l 143 156 b 349 -22 143 39 263 -22 b 558 88 467 -22 551 83 l 558 15 l 586 -14 b 600 -18 586 -14 589 -18 b 744 10 604 -18 664 -3 b 751 21 751 11 751 15 l 751 50 b 743 56 751 53 747 56 l 717 56 b 678 104 681 56 678 74 l 678 603 l 650 633 b 636 638 650 633 647 638 b 464 608 632 638 472 610 b 457 597 457 607 457 600 l 457 567 b 464 561 457 563 458 561 l 515 561 b 556 511 544 561 553 549 b 558 400 557 478 558 433 z m 432 957 b 413 946 421 956 415 953 b 340 764 411 943 344 769 b 342 751 338 757 339 754 b 365 731 346 749 356 738 b 379 735 372 728 375 729 b 529 929 397 751 521 918 b 528 946 538 939 532 946 z "},"ù":{"ha":803,"x_min":0,"x_max":0,"o":"m 558 179 b 393 64 553 124 460 64 b 263 213 285 64 263 144 l 263 603 l 235 633 b 221 638 235 633 232 638 b 49 608 217 638 57 610 b 42 597 42 607 42 600 l 42 567 b 49 561 42 563 43 561 l 100 561 b 139 511 129 561 136 549 b 143 400 140 478 143 433 l 143 156 b 349 -22 143 39 263 -22 b 558 88 467 -22 551 83 l 558 15 l 586 -14 b 600 -18 586 -14 589 -18 b 744 10 604 -18 664 -3 b 751 21 751 11 751 15 l 751 50 b 743 56 751 53 747 56 l 717 56 b 678 104 681 56 678 74 l 678 603 l 650 633 b 636 638 650 633 647 638 b 464 608 632 638 472 610 b 457 597 457 607 457 600 l 457 567 b 464 561 457 563 458 561 l 515 561 b 556 511 544 561 553 549 b 558 400 557 478 558 433 z m 253 940 b 251 924 249 939 243 933 b 399 736 260 913 381 753 b 413 732 403 731 406 729 b 436 753 422 739 432 750 b 438 765 439 756 440 758 b 372 951 433 771 374 949 b 354 957 369 958 365 958 b 253 940 343 956 256 942 z "},"ã":{"ha":636,"x_min":0,"x_max":0,"o":"m 414 136 b 235 65 364 99 289 65 b 161 146 196 65 161 96 b 221 225 161 188 189 211 b 414 285 267 246 332 267 z m 96 518 l 99 425 b 103 421 99 421 103 421 b 167 418 122 418 165 418 b 171 424 169 419 171 419 b 181 521 175 482 178 507 b 254 561 186 556 228 561 b 414 432 381 561 413 485 l 414 331 b 161 268 296 313 239 296 b 50 144 113 251 50 213 b 211 -18 50 46 119 -18 b 414 88 288 -18 358 35 l 414 14 l 442 -17 b 456 -21 442 -17 444 -21 b 615 3 461 -21 535 -10 b 622 14 622 4 622 8 l 622 43 b 614 49 622 46 619 49 l 588 49 b 535 101 553 49 538 71 b 532 238 535 101 532 138 l 532 469 b 308 639 532 601 383 639 b 103 536 225 639 124 550 b 96 518 96 531 96 529 z m 117 814 b 110 776 113 807 110 796 b 124 772 110 778 111 761 b 213 818 151 796 176 818 b 360 783 265 818 310 783 b 468 828 408 783 447 813 b 511 879 482 839 506 860 b 503 910 515 900 515 921 b 399 858 492 899 451 858 b 251 896 344 858 303 896 b 117 814 213 896 139 850 z "},"é":{"ha":660,"x_min":0,"x_max":0,"o":"m 578 115 b 400 63 510 64 449 63 b 185 328 260 63 186 171 l 611 349 b 375 639 611 535 533 639 b 64 308 204 639 65 493 b 365 -18 64 133 144 -18 b 599 72 456 -18 539 13 b 578 115 613 86 590 104 z m 353 582 b 489 404 450 582 489 482 l 186 378 b 353 582 197 539 271 582 z m 372 957 b 353 946 361 956 356 953 b 281 764 351 943 285 769 b 282 751 278 757 279 754 b 306 731 286 749 296 738 b 319 735 313 728 315 729 b 469 929 338 751 461 918 b 468 946 478 939 472 946 z "},"è":{"ha":660,"x_min":0,"x_max":0,"o":"m 578 115 b 400 63 510 64 449 63 b 185 328 260 63 186 171 l 611 349 b 375 639 611 535 533 639 b 64 308 204 639 65 493 b 365 -18 64 133 144 -18 b 599 72 456 -18 539 13 b 578 115 613 86 590 104 z m 353 582 b 489 404 450 582 489 482 l 186 378 b 353 582 197 539 271 582 z m 233 939 b 232 922 229 938 224 932 b 379 735 240 911 361 751 b 393 731 383 729 386 728 b 417 751 403 738 413 749 b 418 764 419 754 421 757 b 353 950 414 769 354 947 b 335 956 350 957 346 957 b 233 939 324 954 236 940 z "},"ê":{"ha":660,"x_min":0,"x_max":0,"o":"m 578 115 b 400 63 510 64 449 63 b 185 328 260 63 186 171 l 611 349 b 375 639 611 535 533 639 b 64 308 204 639 65 493 b 365 -18 64 133 144 -18 b 599 72 456 -18 539 13 b 578 115 613 86 590 104 z m 353 582 b 489 404 450 582 489 482 l 186 378 b 353 582 197 539 271 582 z m 371 965 b 361 971 371 965 368 972 b 319 960 350 969 325 961 b 306 940 315 957 311 951 b 190 729 301 928 208 749 b 204 715 188 725 186 715 b 253 736 222 715 243 719 b 324 854 265 757 315 838 b 336 853 328 861 331 865 b 417 724 343 840 394 747 b 436 719 421 721 424 714 b 482 736 447 722 478 732 b 482 753 488 739 486 744 b 371 965 472 767 404 888 z "},"ë":{"ha":660,"x_min":0,"x_max":0,"o":"m 578 115 b 400 63 510 64 449 63 b 185 328 260 63 186 171 l 611 349 b 375 639 611 535 533 639 b 64 308 204 639 65 493 b 365 -18 64 133 144 -18 b 599 72 456 -18 539 13 b 578 115 613 86 590 104 z m 353 582 b 489 404 450 582 489 482 l 186 378 b 353 582 197 539 271 582 z m 150 851 b 164 807 150 833 156 819 b 213 781 176 792 190 781 b 267 803 226 781 254 788 b 286 851 276 815 285 829 b 271 897 288 861 283 885 b 221 913 258 911 233 915 b 167 894 201 911 179 906 b 150 851 151 882 150 864 z m 431 851 b 444 807 431 833 435 819 b 493 781 457 792 471 781 b 547 803 507 781 535 788 b 565 851 557 815 564 829 b 550 897 568 861 563 885 b 500 913 538 911 513 915 b 446 894 482 911 458 906 b 431 851 432 882 431 864 z "},";":{"ha":268,"x_min":0,"x_max":0,"o":"m 96 443 b 107 403 97 433 100 411 b 156 381 117 390 138 381 b 225 399 194 381 208 383 b 242 444 239 411 240 429 b 232 508 243 479 240 497 b 156 529 221 522 193 533 b 108 507 138 528 118 521 b 96 443 93 485 93 476 z m 213 128 b 175 132 201 143 190 142 b 103 60 151 117 114 78 b 132 -22 94 46 96 56 b 138 -82 143 -46 139 -68 b 50 -246 128 -160 106 -182 b 40 -261 44 -251 39 -257 b 78 -276 43 -271 68 -279 b 206 -126 92 -274 161 -208 b 243 0 225 -90 243 -28 b 213 128 243 40 242 89 z "},"˙":{"ha":410,"x_min":0,"x_max":0,"o":"m 139 846 b 153 803 139 829 144 815 b 201 776 165 788 179 776 b 264 799 224 776 251 782 b 282 846 274 811 281 825 b 267 900 283 865 279 889 b 210 917 254 915 229 918 b 156 897 190 915 167 908 b 139 846 140 885 139 867 z "},"i":{"ha":435,"x_min":0,"x_max":0,"o":"m 149 846 b 163 803 149 829 154 815 b 211 776 175 788 189 776 b 274 799 233 776 261 782 b 292 846 283 811 290 825 b 276 900 293 865 289 889 b 219 917 264 915 239 918 b 165 897 200 915 176 908 b 149 846 150 885 149 867 z m 51 -4 b 214 0 51 -4 149 0 b 385 -4 282 0 385 -4 b 371 46 385 21 385 46 l 304 46 b 282 72 304 46 282 46 b 278 211 282 72 278 150 l 278 601 l 250 632 b 236 636 250 632 247 636 b 64 607 232 636 72 608 b 57 596 57 606 57 599 l 57 565 b 64 560 57 561 58 560 l 119 560 b 158 526 149 560 158 543 l 158 211 b 153 72 158 147 153 72 b 132 46 153 44 132 46 l 65 46 b 51 -4 51 46 51 22 z "},"ı":{"ha":433,"x_min":0,"x_max":0,"o":"m 51 -4 b 214 0 51 -4 149 0 b 383 -4 282 0 383 -4 b 369 46 383 21 383 46 l 304 46 b 285 72 304 46 285 46 b 278 211 285 72 278 150 l 278 601 l 250 632 b 236 636 250 632 247 636 b 64 607 232 636 72 608 b 57 596 57 606 57 599 l 57 565 b 64 560 57 561 58 560 l 119 560 b 158 526 149 560 158 543 l 158 211 b 153 72 158 147 153 72 b 132 46 153 44 132 46 l 65 46 b 51 -4 51 46 51 22 z "},"ï":{"ha":518,"x_min":0,"x_max":0,"o":"m 100 -4 b 263 0 100 -4 197 0 b 432 -4 331 0 432 -4 b 418 46 432 21 432 46 l 353 46 b 333 72 353 46 333 46 b 326 211 333 72 326 150 l 326 601 l 299 632 b 285 636 299 632 296 636 b 113 607 281 636 121 608 b 106 596 106 606 106 599 l 106 565 b 113 560 106 561 107 560 l 168 560 b 207 526 197 560 207 543 l 207 211 b 201 72 207 147 201 72 b 181 46 201 44 181 46 l 114 46 b 100 -4 100 46 100 22 z m 51 846 b 65 801 51 828 57 814 b 114 775 78 786 92 775 b 168 797 128 775 156 782 b 188 846 178 810 186 824 b 172 892 189 856 185 879 b 122 907 160 906 135 910 b 68 889 103 906 81 900 b 51 846 53 876 51 858 z m 332 846 b 346 801 332 828 336 814 b 394 775 358 786 372 775 b 449 797 408 775 436 782 b 467 846 458 810 465 824 b 451 892 469 856 464 879 b 401 907 439 906 414 910 b 347 889 383 906 360 900 b 332 846 333 876 332 858 z "},"î":{"ha":433,"x_min":0,"x_max":0,"o":"m 51 -4 b 214 0 51 -4 149 0 b 383 -4 282 0 383 -4 b 369 46 383 21 383 46 l 304 46 b 285 72 304 46 285 46 b 278 211 285 72 278 150 l 278 601 l 250 632 b 236 636 250 632 247 636 b 64 607 232 636 72 608 b 57 596 57 606 57 599 l 57 565 b 64 560 57 561 58 560 l 119 560 b 158 526 149 560 158 543 l 158 211 b 153 72 158 147 153 72 b 132 46 153 44 132 46 l 65 46 b 51 -4 51 46 51 22 z m 254 964 b 244 969 254 964 251 971 b 203 958 233 968 208 960 b 189 939 199 956 194 950 b 74 728 185 926 92 747 b 88 714 71 724 69 714 b 136 735 106 714 126 718 b 207 853 149 756 199 836 b 219 851 211 860 214 864 b 300 722 226 839 278 746 b 319 718 304 719 307 713 b 365 735 331 721 361 731 b 365 751 371 738 369 743 b 254 964 356 765 288 886 z "},"ì":{"ha":433,"x_min":0,"x_max":0,"o":"m 51 -4 b 214 0 51 -4 149 0 b 383 -4 282 0 383 -4 b 369 46 383 21 383 46 l 304 46 b 285 72 304 46 285 46 b 278 211 285 72 278 150 l 278 601 l 250 632 b 236 636 250 632 247 636 b 64 607 232 636 72 608 b 57 596 57 606 57 599 l 57 565 b 64 560 57 561 58 560 l 119 560 b 158 526 149 560 158 543 l 158 211 b 153 72 158 147 153 72 b 132 46 153 44 132 46 l 65 46 b 51 -4 51 46 51 22 z m 86 938 b 85 921 82 936 76 931 b 232 733 93 910 214 750 b 246 729 236 728 239 726 b 269 750 256 736 265 747 b 271 763 272 753 274 756 b 206 949 267 768 207 946 b 188 954 203 956 199 956 b 86 938 176 953 89 939 z "},"â":{"ha":636,"x_min":0,"x_max":0,"o":"m 414 136 b 235 65 364 99 289 65 b 161 146 196 65 161 96 b 221 225 161 188 189 211 b 414 285 267 246 332 267 z m 96 518 l 99 425 b 103 421 99 421 103 421 b 167 418 122 418 165 418 b 171 424 169 419 171 419 b 181 521 175 482 178 507 b 254 561 186 556 228 561 b 414 432 381 561 413 485 l 414 331 b 161 268 296 313 239 296 b 50 144 113 251 50 213 b 211 -18 50 46 119 -18 b 414 88 288 -18 358 35 l 414 14 l 442 -17 b 456 -21 442 -17 444 -21 b 615 3 461 -21 535 -10 b 622 14 622 4 622 8 l 622 43 b 614 49 622 46 619 49 l 588 49 b 535 101 553 49 538 71 b 532 238 535 101 532 138 l 532 469 b 308 639 532 601 383 639 b 103 536 225 639 124 550 b 96 518 96 531 96 529 z m 347 965 b 338 971 347 965 344 972 b 296 960 326 969 301 961 b 282 940 292 957 288 951 b 167 729 278 928 185 749 b 181 715 164 725 163 715 b 229 736 199 715 219 719 b 300 854 242 757 292 838 b 313 853 304 861 307 865 b 393 724 319 840 371 747 b 413 719 397 721 400 714 b 458 736 424 722 454 732 b 458 753 464 739 463 744 b 347 965 449 767 381 888 z "},"¿":{"ha":525,"x_min":0,"x_max":0,"o":"m 457 210 b 401 207 438 210 403 207 b 397 201 399 206 397 206 b 396 113 399 165 397 140 b 356 88 394 97 385 89 b 149 253 261 93 150 153 b 200 360 149 283 169 332 b 382 503 283 433 382 503 b 394 531 393 511 394 518 b 319 656 396 569 372 615 b 289 665 315 658 301 669 b 251 644 276 657 251 644 b 250 624 244 640 243 629 b 258 508 299 578 294 538 b 85 350 218 475 114 383 b 49 228 57 318 49 265 b 326 -10 49 82 199 -10 b 472 104 442 -10 472 26 b 461 206 472 147 461 206 b 457 210 461 210 457 210 z m 343 892 b 329 935 343 908 338 922 b 281 961 317 950 303 961 b 218 939 258 961 231 956 b 200 892 208 926 201 913 b 215 838 199 872 203 849 b 272 821 228 822 253 819 b 326 840 292 822 315 829 b 343 892 342 853 343 871 z "},"<":{"ha":736,"x_min":0,"x_max":0,"o":"m 706 646 b 715 658 707 647 714 651 b 729 758 721 679 729 743 b 719 767 729 765 725 769 b 68 414 664 722 210 488 b 50 351 56 408 39 357 b 696 21 200 290 629 71 b 710 26 700 18 706 19 b 742 118 719 42 749 111 b 221 385 700 156 278 350 b 221 393 215 388 217 390 b 706 646 318 443 667 615 z "},">":{"ha":736,"x_min":0,"x_max":0,"o":"m 122 125 b 113 113 121 124 114 119 b 99 13 107 92 99 28 b 108 4 99 6 103 1 b 760 357 164 49 618 283 b 778 419 772 363 789 414 b 132 750 628 481 199 700 b 118 744 128 753 122 751 b 86 653 108 729 79 660 b 607 386 128 615 550 421 b 607 378 613 383 611 381 b 122 125 510 328 161 156 z "},"=":{"ha":736,"x_min":0,"x_max":0,"o":"m 667 442 b 694 515 675 444 693 508 b 692 529 696 519 694 526 b 83 531 163 529 108 529 b 71 529 72 532 71 531 b 50 453 67 521 51 465 b 54 440 49 450 51 440 z m 664 190 b 692 268 671 192 690 257 b 689 282 692 272 693 281 b 82 285 132 282 107 281 b 69 282 72 286 71 285 b 51 201 65 272 53 213 b 56 189 51 197 53 189 z "},"[":{"ha":363,"x_min":0,"x_max":0,"o":"m 397 935 b 408 996 408 936 408 988 b 401 1000 408 999 408 1000 l 133 1000 b 126 993 131 1000 126 996 l 126 -208 b 129 -215 125 -214 129 -215 b 186 -225 136 -219 154 -222 l 400 -225 b 411 -164 411 -224 411 -172 b 404 -158 411 -161 411 -158 b 217 -151 296 -158 238 -158 b 203 -133 206 -149 204 -142 b 199 399 200 -72 199 79 b 203 922 199 661 200 892 b 208 932 203 926 206 932 b 397 935 239 932 353 933 z "},"]":{"ha":363,"x_min":0,"x_max":0,"o":"m 139 935 b 328 932 183 933 297 932 b 333 922 331 932 333 926 b 338 399 336 892 338 661 b 333 -133 338 79 336 -72 b 319 -151 332 -142 331 -149 b 132 -158 299 -158 240 -158 b 125 -164 125 -158 125 -161 b 136 -225 125 -172 125 -224 l 350 -225 b 407 -215 382 -222 400 -219 b 411 -208 407 -215 411 -214 l 411 993 b 403 1000 410 996 406 1000 l 135 1000 b 128 996 128 1000 128 999 b 139 935 128 988 128 936 z "},"\\":{"ha":597,"x_min":0,"x_max":0,"o":"m 104 1017 b 56 976 90 1006 72 992 b 56 968 53 975 54 972 b 450 -37 139 760 396 63 l 458 -44 b 518 -67 475 -54 504 -64 b 528 -57 529 -69 531 -64 b 113 1015 433 149 189 807 b 104 1017 111 1018 110 1021 z "},"^":{"ha":736,"x_min":0,"x_max":0,"o":"m 196 479 b 374 822 221 507 338 749 b 383 822 375 825 383 824 b 583 453 406 781 551 482 b 661 476 588 450 646 467 b 664 485 663 479 665 483 b 418 990 628 546 463 889 b 408 997 414 999 411 997 b 364 985 394 994 367 986 b 358 978 361 983 360 981 b 94 478 324 896 126 518 b 106 469 94 475 99 469 b 196 479 121 469 185 464 z "},"_":{"ha":736,"x_min":0,"x_max":0,"o":"m 736 -242 l 1 -242 l 1 -321 l 736 -321 z "},"/":{"ha":597,"x_min":0,"x_max":0,"o":"m 479 1017 b 471 1015 474 1021 472 1018 b 56 -57 394 807 150 149 b 65 -67 53 -64 54 -69 b 125 -44 79 -64 108 -54 l 133 -37 b 528 968 188 63 444 760 b 528 976 529 972 531 975 b 479 1017 511 992 493 1006 z "},"–":{"ha":719,"x_min":0,"x_max":0,"o":"m 72 393 b 65 389 67 393 67 392 b 53 326 61 376 54 338 b 57 317 53 326 51 317 b 642 318 78 315 631 315 b 653 385 647 319 653 369 l 653 389 b 646 394 653 392 653 394 b 72 393 582 396 81 394 z "},"-":{"ha":467,"x_min":0,"x_max":0,"o":"m 383 311 b 411 385 392 314 410 378 b 408 399 413 389 411 396 b 124 400 203 399 149 399 b 111 399 113 401 111 400 b 90 322 107 390 92 335 b 94 310 89 319 92 310 z "},",":{"ha":268,"x_min":0,"x_max":0,"o":"m 213 128 b 175 132 201 143 190 142 b 103 60 151 117 114 78 b 108 26 97 50 96 53 b 139 -57 122 -1 139 -28 b 50 -246 139 -137 99 -190 b 40 -261 44 -251 39 -257 b 78 -276 43 -271 68 -279 b 206 -126 92 -274 161 -208 b 243 0 225 -90 243 -28 b 213 128 243 40 242 89 z "},"+":{"ha":736,"x_min":0,"x_max":0,"o":"m 324 15 b 336 11 324 13 333 10 b 410 31 349 13 401 26 b 414 44 411 31 414 33 b 413 200 414 69 413 131 l 413 315 l 676 315 b 706 393 685 315 704 386 b 701 404 707 400 706 404 l 560 404 b 414 404 492 404 440 404 b 413 554 413 429 413 485 l 413 697 b 399 700 410 700 403 701 b 325 672 392 699 328 681 l 325 404 l 239 404 b 83 404 169 404 110 404 b 69 401 72 404 69 403 b 50 328 65 393 51 340 b 54 315 49 325 51 315 l 325 315 z "},"ä":{"ha":636,"x_min":0,"x_max":0,"o":"m 414 136 b 235 65 364 99 289 65 b 161 146 196 65 161 96 b 221 225 161 188 189 211 b 414 285 267 246 332 267 z m 96 518 l 99 425 b 103 421 99 421 103 421 b 167 418 122 418 165 418 b 171 424 169 419 171 419 b 181 521 175 482 178 507 b 254 561 186 556 228 561 b 414 432 381 561 413 485 l 414 331 b 161 268 296 313 239 296 b 50 144 113 251 50 213 b 211 -18 50 46 119 -18 b 414 88 288 -18 358 35 l 414 14 l 442 -17 b 456 -21 442 -17 444 -21 b 615 3 461 -21 535 -10 b 622 14 622 4 622 8 l 622 43 b 614 49 622 46 619 49 l 588 49 b 535 101 553 49 538 71 b 532 238 535 101 532 138 l 532 469 b 308 639 532 601 383 639 b 103 536 225 639 124 550 b 96 518 96 531 96 529 z m 103 851 b 117 807 103 833 108 819 b 165 781 129 792 143 781 b 219 803 179 781 207 788 b 239 851 229 815 238 829 b 224 897 240 861 236 885 b 174 913 211 911 186 915 b 119 894 154 911 132 906 b 103 851 104 882 103 864 z m 383 851 b 397 807 383 833 388 819 b 446 781 410 792 424 781 b 500 803 460 781 488 788 b 518 851 510 815 517 829 b 503 897 521 861 515 885 b 453 913 490 911 465 915 b 399 894 435 911 411 906 b 383 851 385 882 383 864 z "},"û":{"ha":803,"x_min":0,"x_max":0,"o":"m 558 179 b 393 64 553 124 460 64 b 263 213 285 64 263 144 l 263 603 l 235 633 b 221 638 235 633 232 638 b 49 608 217 638 57 610 b 42 597 42 607 42 600 l 42 567 b 49 561 42 563 43 561 l 100 561 b 139 511 129 561 136 549 b 143 400 140 478 143 433 l 143 156 b 349 -22 143 39 263 -22 b 558 88 467 -22 551 83 l 558 15 l 586 -14 b 600 -18 586 -14 589 -18 b 744 10 604 -18 664 -3 b 751 21 751 11 751 15 l 751 50 b 743 56 751 53 747 56 l 717 56 b 678 104 681 56 678 74 l 678 603 l 650 633 b 636 638 650 633 647 638 b 464 608 632 638 472 610 b 457 597 457 607 457 600 l 457 567 b 464 561 457 563 458 561 l 515 561 b 556 511 544 561 553 549 b 558 400 557 478 558 433 z m 419 971 b 410 976 419 971 417 978 b 368 965 399 975 374 967 b 354 946 364 963 360 957 b 239 735 350 933 257 754 b 253 721 236 731 235 721 b 301 742 271 721 292 725 b 372 860 314 763 364 843 b 385 858 376 867 379 871 b 465 729 392 846 443 753 b 485 725 469 726 472 719 b 531 742 496 728 526 738 b 531 758 536 744 535 750 b 419 971 521 772 453 893 z "},"Ï":{"ha":517,"x_min":0,"x_max":0,"o":"m 60 963 l 465 963 z m 451 910 b 465 965 465 910 465 940 b 258 961 414 963 325 961 b 64 965 193 961 117 964 b 78 910 64 939 64 910 l 144 910 b 199 872 165 910 199 893 l 199 221 b 196 89 200 157 196 89 b 144 51 196 69 165 51 l 78 51 b 64 -4 64 51 64 22 b 258 0 117 -3 193 0 b 465 -4 325 0 414 -1 b 451 51 465 21 465 51 l 386 51 b 333 89 365 51 333 69 b 329 221 333 89 329 160 l 329 872 b 386 910 331 893 365 910 z m 50 1079 b 64 1035 50 1061 56 1047 b 113 1008 76 1019 90 1008 b 167 1031 126 1008 154 1015 b 186 1079 176 1043 185 1057 b 171 1125 188 1089 183 1113 b 121 1140 158 1139 133 1143 b 67 1122 101 1139 79 1133 b 50 1079 51 1110 50 1092 z m 331 1079 b 344 1035 331 1061 335 1047 b 393 1008 357 1019 371 1008 b 447 1031 407 1008 435 1015 b 465 1079 457 1043 464 1057 b 450 1125 468 1089 463 1113 b 400 1140 438 1139 413 1143 b 346 1122 382 1139 358 1133 b 331 1079 332 1110 331 1092 z "},"Í":{"ha":501,"x_min":0,"x_max":0,"o":"m 438 910 b 451 965 451 910 451 940 b 244 961 400 963 311 961 b 50 965 179 961 103 964 b 64 910 50 939 50 910 l 131 910 b 185 872 151 910 185 893 l 185 221 b 182 89 186 157 182 89 b 131 51 182 69 151 51 l 64 51 b 50 -4 50 51 50 22 b 244 0 103 -3 179 0 b 451 -4 311 0 400 -1 b 438 51 451 21 451 51 l 372 51 b 319 89 351 51 319 69 b 315 221 319 89 315 160 l 315 872 b 372 910 317 893 351 910 z m 303 1236 b 283 1225 292 1235 286 1232 b 211 1043 282 1222 215 1049 b 213 1031 208 1036 210 1033 b 236 1010 217 1028 226 1017 b 250 1014 243 1007 246 1008 b 400 1208 268 1031 392 1197 b 399 1225 408 1218 403 1225 z "},"Ë":{"ha":849,"x_min":0,"x_max":0,"o":"m 633 0 b 754 4 668 0 708 0 b 774 17 767 6 771 10 b 807 201 785 65 807 201 b 800 211 807 208 806 208 b 751 226 779 218 765 224 b 742 222 747 228 743 226 b 721 150 735 190 732 172 b 608 65 681 71 649 65 l 357 65 b 313 104 331 65 317 83 l 313 451 b 322 457 314 454 317 457 l 539 457 b 625 394 578 457 625 438 l 625 358 b 676 342 625 338 651 329 b 674 493 675 393 674 426 b 685 631 674 558 676 578 b 631 622 661 646 632 636 l 625 579 b 539 524 625 533 578 524 l 322 524 b 313 528 317 524 314 525 l 313 857 b 351 894 314 879 324 894 l 569 894 b 663 772 651 894 661 846 b 668 767 663 768 664 767 l 724 769 b 731 775 729 769 731 771 l 738 921 b 733 935 738 932 733 935 l 708 961 l 242 961 b 47 965 176 961 100 964 b 61 910 47 939 47 910 l 126 910 b 181 872 147 910 181 893 l 181 221 b 182 174 181 204 182 189 b 179 93 182 129 179 93 b 103 54 179 74 154 54 l 36 54 b 22 -4 22 54 22 22 b 203 0 75 -3 140 0 z m 211 1079 b 225 1035 211 1061 217 1047 b 274 1008 238 1019 251 1008 b 328 1031 288 1008 315 1015 b 347 1079 338 1043 346 1057 b 332 1125 349 1089 344 1113 b 282 1140 319 1139 294 1143 b 228 1122 263 1139 240 1133 b 211 1079 213 1110 211 1092 z m 492 1079 b 506 1035 492 1061 496 1047 b 554 1008 518 1019 532 1008 b 608 1031 568 1008 596 1015 b 626 1079 618 1043 625 1057 b 611 1125 629 1089 624 1113 b 561 1140 599 1139 574 1143 b 507 1122 543 1139 519 1133 b 492 1079 493 1110 492 1092 z "},"È":{"ha":849,"x_min":0,"x_max":0,"o":"m 633 0 b 754 4 668 0 708 0 b 774 17 767 6 771 10 b 807 201 785 65 807 201 b 800 211 807 208 806 208 b 751 226 779 218 765 224 b 742 222 747 228 743 226 b 721 150 735 190 732 172 b 608 65 681 71 649 65 l 357 65 b 313 104 331 65 317 83 l 313 451 b 322 457 314 454 317 457 l 539 457 b 625 394 578 457 625 438 l 625 358 b 676 342 625 338 651 329 b 674 493 675 393 674 426 b 685 631 674 558 676 578 b 631 622 661 646 632 636 l 625 579 b 539 524 625 533 578 524 l 322 524 b 313 528 317 524 314 525 l 313 857 b 351 894 314 879 324 894 l 569 894 b 663 772 651 894 661 846 b 668 767 663 768 664 767 l 724 769 b 731 775 729 769 731 771 l 738 921 b 733 935 738 932 733 935 l 708 961 l 242 961 b 47 965 176 961 100 964 b 61 910 47 939 47 910 l 126 910 b 181 872 147 910 181 893 l 181 221 b 182 174 181 204 182 189 b 179 93 182 129 179 93 b 103 54 179 74 154 54 l 36 54 b 22 -4 22 54 22 22 b 203 0 75 -3 140 0 z m 300 1218 b 299 1201 296 1217 290 1211 b 446 1014 307 1190 428 1031 b 460 1010 450 1008 453 1007 b 483 1031 469 1017 479 1028 b 485 1043 486 1033 488 1036 b 419 1229 481 1049 421 1226 b 401 1235 417 1236 413 1236 b 300 1218 390 1233 303 1219 z "},"Î":{"ha":501,"x_min":0,"x_max":0,"o":"m 438 910 b 451 965 451 910 451 940 b 244 961 400 963 311 961 b 50 965 179 961 103 964 b 64 910 50 939 50 910 l 131 910 b 185 872 151 910 185 893 l 185 221 b 182 89 186 157 182 89 b 131 51 182 69 151 51 l 64 51 b 50 -4 50 51 50 22 b 244 0 103 -3 179 0 b 451 -4 311 0 400 -1 b 438 51 451 21 451 51 l 372 51 b 319 89 351 51 319 69 b 315 221 319 89 315 160 l 315 872 b 372 910 317 893 351 910 z m 285 1260 b 275 1265 285 1260 282 1267 b 233 1254 264 1264 239 1256 b 219 1235 229 1251 225 1246 b 104 1024 215 1222 122 1043 b 118 1010 101 1019 100 1010 b 167 1031 136 1010 157 1014 b 238 1149 179 1051 229 1132 b 250 1147 242 1156 244 1160 b 331 1018 257 1135 308 1042 b 350 1014 335 1015 338 1008 b 396 1031 361 1017 392 1026 b 396 1047 401 1033 400 1039 b 285 1260 386 1061 318 1182 z "},"Ì":{"ha":501,"x_min":0,"x_max":0,"o":"m 438 910 b 451 965 451 910 451 940 b 244 961 400 963 311 961 b 50 965 179 961 103 964 b 64 910 50 939 50 910 l 131 910 b 185 872 151 910 185 893 l 185 221 b 182 89 186 157 182 89 b 131 51 182 69 151 51 l 64 51 b 50 -4 50 51 50 22 b 244 0 103 -3 179 0 b 451 -4 311 0 400 -1 b 438 51 451 21 451 51 l 372 51 b 319 89 351 51 319 69 b 315 221 319 89 315 160 l 315 872 b 372 910 317 893 351 910 z m 107 1219 b 106 1203 103 1218 97 1213 b 253 1015 114 1192 235 1032 b 267 1011 257 1010 260 1008 b 290 1032 276 1018 286 1029 b 292 1044 293 1035 294 1038 b 226 1231 288 1050 228 1228 b 208 1236 224 1238 219 1238 b 107 1219 197 1235 110 1221 z "},"Ó":{"ha":1114,"x_min":0,"x_max":0,"o":"m 581 983 b 65 488 261 983 65 765 b 565 -26 65 243 208 -26 b 1049 492 843 -26 1049 172 b 581 983 1049 761 836 983 z m 528 904 b 892 463 735 903 892 725 b 613 49 892 156 736 49 b 224 536 407 49 224 188 b 528 904 224 738 329 904 z m 596 1236 b 576 1225 585 1235 579 1232 b 504 1043 575 1222 508 1049 b 506 1031 501 1036 503 1033 b 529 1010 510 1028 519 1017 b 543 1014 536 1007 539 1008 b 693 1208 561 1031 685 1197 b 692 1225 701 1218 696 1225 z "},"Ô":{"ha":1114,"x_min":0,"x_max":0,"o":"m 581 983 b 65 488 261 983 65 765 b 565 -26 65 243 208 -26 b 1049 492 843 -26 1049 172 b 581 983 1049 761 836 983 z m 528 904 b 892 463 735 903 892 725 b 613 49 892 156 736 49 b 224 536 407 49 224 188 b 528 904 224 738 329 904 z m 590 1258 b 581 1264 590 1258 588 1265 b 539 1253 569 1263 544 1254 b 525 1233 535 1250 531 1244 b 410 1022 521 1221 428 1042 b 424 1008 407 1018 406 1008 b 472 1029 442 1008 463 1013 b 543 1147 485 1050 535 1131 b 556 1146 547 1154 550 1158 b 636 1017 563 1133 614 1040 b 656 1013 640 1014 643 1007 b 701 1029 667 1015 697 1025 b 701 1046 707 1032 706 1038 b 590 1258 692 1060 624 1181 z "},"Ê":{"ha":849,"x_min":0,"x_max":0,"o":"m 633 0 b 754 4 668 0 708 0 b 774 17 767 6 771 10 b 807 201 785 65 807 201 b 800 211 807 208 806 208 b 751 226 779 218 765 224 b 742 222 747 228 743 226 b 721 150 735 190 732 172 b 608 65 681 71 649 65 l 357 65 b 313 104 331 65 317 83 l 313 451 b 322 457 314 454 317 457 l 539 457 b 625 394 578 457 625 438 l 625 358 b 676 342 625 338 651 329 b 674 493 675 393 674 426 b 685 631 674 558 676 578 b 631 622 661 646 632 636 l 625 579 b 539 524 625 533 578 524 l 322 524 b 313 528 317 524 314 525 l 313 857 b 351 894 314 879 324 894 l 569 894 b 663 772 651 894 661 846 b 668 767 663 768 664 767 l 724 769 b 731 775 729 769 731 771 l 738 921 b 733 935 738 932 733 935 l 708 961 l 242 961 b 47 965 176 961 100 964 b 61 910 47 939 47 910 l 126 910 b 181 872 147 910 181 893 l 181 221 b 182 174 181 204 182 189 b 179 93 182 129 179 93 b 103 54 179 74 154 54 l 36 54 b 22 -4 22 54 22 22 b 203 0 75 -3 140 0 z m 454 1260 b 444 1265 454 1260 451 1267 b 403 1254 433 1264 408 1256 b 389 1235 399 1251 394 1246 b 274 1024 385 1222 292 1043 b 288 1010 271 1019 269 1010 b 336 1031 306 1010 326 1014 b 407 1149 349 1051 399 1132 b 419 1147 411 1156 414 1160 b 500 1018 426 1135 478 1042 b 519 1014 504 1015 507 1008 b 565 1031 531 1017 561 1026 b 565 1047 571 1033 569 1039 b 454 1260 556 1061 488 1182 z "},"Á":{"ha":1001,"x_min":0,"x_max":0,"o":"m 513 801 l 633 454 b 626 451 632 453 631 451 l 390 451 b 385 453 388 451 386 451 z m 1015 51 l 958 51 b 901 89 935 51 913 68 b 581 963 893 100 615 842 b 543 961 568 961 558 961 b 513 961 532 961 522 960 l 501 963 b 171 90 460 843 171 90 b 110 53 161 65 128 53 l 43 53 b 29 -3 29 53 29 24 b 224 1 82 -1 158 1 b 385 -3 290 1 333 0 b 369 53 385 22 385 53 l 304 53 b 251 90 264 53 243 68 l 358 383 b 364 385 360 385 361 385 l 653 385 b 660 383 656 385 657 385 b 761 89 714 225 761 89 b 710 51 774 57 729 51 l 654 51 b 640 -4 640 51 640 22 b 835 0 693 -3 769 0 b 1029 -4 901 0 978 -1 b 1015 51 1029 21 1029 51 z m 576 1233 b 557 1222 565 1232 560 1229 b 485 1040 556 1219 489 1046 b 486 1028 482 1033 483 1031 b 510 1007 490 1025 500 1014 b 524 1011 517 1004 519 1006 b 674 1206 542 1028 665 1194 b 672 1222 682 1215 676 1222 z "},"Ò":{"ha":1114,"x_min":0,"x_max":0,"o":"m 581 983 b 65 488 261 983 65 765 b 565 -26 65 243 208 -26 b 1049 492 843 -26 1049 172 b 581 983 1049 761 836 983 z m 528 904 b 892 463 735 903 892 725 b 613 49 892 156 736 49 b 224 536 407 49 224 188 b 528 904 224 738 329 904 z m 419 1217 b 418 1200 415 1215 410 1210 b 565 1013 426 1189 547 1029 b 579 1008 569 1007 572 1006 b 603 1029 589 1015 599 1026 b 604 1042 606 1032 607 1035 b 539 1228 600 1047 540 1225 b 521 1233 536 1235 532 1235 b 419 1217 510 1232 422 1218 z "},"Ú":{"ha":1135,"x_min":0,"x_max":0,"o":"m 436 910 b 450 965 450 910 450 940 b 243 961 399 963 310 961 b 49 965 178 961 101 964 b 63 910 49 939 49 910 l 129 910 b 186 861 157 910 186 893 l 186 392 b 604 -18 186 111 286 -18 b 967 392 933 -18 967 269 l 967 717 b 972 861 967 769 967 822 b 1046 910 974 889 1013 910 l 1086 910 b 1100 965 1100 910 1100 940 b 921 961 1049 963 988 961 b 739 965 854 961 790 963 b 753 910 739 940 739 910 l 793 910 b 883 861 840 910 876 889 b 893 581 893 815 893 783 l 893 392 b 619 64 893 235 861 64 b 321 392 378 64 321 236 l 321 861 b 371 910 321 896 349 910 z m 643 1236 b 624 1225 632 1235 626 1232 b 551 1043 622 1222 556 1049 b 553 1031 549 1036 550 1033 b 576 1010 557 1028 567 1017 b 590 1014 583 1007 586 1008 b 740 1208 608 1031 732 1197 b 739 1225 749 1218 743 1225 z "},"Û":{"ha":1135,"x_min":0,"x_max":0,"o":"m 436 910 b 450 965 450 910 450 940 b 243 961 399 963 310 961 b 49 965 178 961 101 964 b 63 910 49 939 49 910 l 129 910 b 186 861 157 910 186 893 l 186 392 b 604 -18 186 111 286 -18 b 967 392 933 -18 967 269 l 967 717 b 972 861 967 769 967 822 b 1046 910 974 889 1013 910 l 1086 910 b 1100 965 1100 910 1100 940 b 921 961 1049 963 988 961 b 739 965 854 961 790 963 b 753 910 739 940 739 910 l 793 910 b 883 861 840 910 876 889 b 893 581 893 815 893 783 l 893 392 b 619 64 893 235 861 64 b 321 392 378 64 321 236 l 321 861 b 371 910 321 896 349 910 z m 608 1258 b 599 1264 608 1258 606 1265 b 557 1253 588 1263 563 1254 b 543 1233 553 1250 549 1244 b 428 1022 539 1221 446 1042 b 442 1008 425 1018 424 1008 b 490 1029 460 1008 481 1013 b 561 1147 503 1050 553 1131 b 574 1146 565 1154 568 1158 b 654 1017 581 1133 632 1040 b 674 1013 658 1014 661 1007 b 719 1029 685 1015 715 1025 b 719 1046 725 1032 724 1038 b 608 1258 710 1060 642 1181 z "},"Ù":{"ha":1135,"x_min":0,"x_max":0,"o":"m 436 910 b 450 965 450 910 450 940 b 243 961 399 963 310 961 b 49 965 178 961 101 964 b 63 910 49 939 49 910 l 129 910 b 186 861 157 910 186 893 l 186 392 b 604 -18 186 111 286 -18 b 967 392 933 -18 967 269 l 967 717 b 972 861 967 769 967 822 b 1046 910 974 889 1013 910 l 1086 910 b 1100 965 1100 910 1100 940 b 921 961 1049 963 988 961 b 739 965 854 961 790 963 b 753 910 739 940 739 910 l 793 910 b 883 861 840 910 876 889 b 893 581 893 815 893 783 l 893 392 b 619 64 893 235 861 64 b 321 392 378 64 321 236 l 321 861 b 371 910 321 896 349 910 z m 444 1218 b 443 1201 440 1217 435 1211 b 590 1014 451 1190 572 1031 b 604 1010 594 1008 597 1007 b 628 1031 614 1017 624 1028 b 629 1043 631 1033 632 1036 b 564 1229 625 1049 565 1226 b 546 1235 561 1236 557 1236 b 444 1218 535 1233 447 1219 z "},"Ä":{"ha":1001,"x_min":0,"x_max":0,"o":"m 513 801 l 633 454 b 626 451 632 453 631 451 l 390 451 b 385 453 388 451 386 451 z m 1015 51 l 958 51 b 901 89 935 51 913 68 b 581 963 893 100 615 842 b 543 961 568 961 558 961 b 513 961 532 961 522 960 l 501 963 b 171 90 460 843 171 90 b 110 53 161 65 128 53 l 43 53 b 29 -3 29 53 29 24 b 224 1 82 -1 158 1 b 385 -3 290 1 333 0 b 369 53 385 22 385 53 l 304 53 b 251 90 264 53 243 68 l 358 383 b 364 385 360 385 361 385 l 653 385 b 660 383 656 385 657 385 b 761 89 714 225 761 89 b 710 51 774 57 729 51 l 654 51 b 640 -4 640 51 640 22 b 835 0 693 -3 769 0 b 1029 -4 901 0 978 -1 b 1015 51 1029 21 1029 51 z m 319 1078 b 333 1033 319 1060 325 1046 b 382 1007 346 1018 360 1007 b 436 1029 396 1007 424 1014 b 456 1078 446 1042 454 1056 b 440 1124 457 1088 453 1111 b 390 1139 428 1138 403 1142 b 336 1121 371 1138 349 1132 b 319 1078 321 1108 319 1090 z m 600 1078 b 614 1033 600 1060 604 1046 b 663 1007 626 1018 640 1007 b 717 1029 676 1007 704 1014 b 735 1078 726 1042 733 1056 b 719 1124 738 1088 732 1111 b 669 1139 707 1138 682 1142 b 615 1121 651 1138 628 1132 b 600 1078 601 1108 600 1090 z "},"É":{"ha":849,"x_min":0,"x_max":0,"o":"m 633 0 b 754 4 668 0 708 0 b 774 17 767 6 771 10 b 807 201 785 65 807 201 b 800 211 807 208 806 208 b 751 226 779 218 765 224 b 742 222 747 228 743 226 b 721 150 735 190 732 172 b 608 65 681 71 649 65 l 357 65 b 313 104 331 65 317 83 l 313 451 b 322 457 314 454 317 457 l 539 457 b 625 394 578 457 625 438 l 625 358 b 676 342 625 338 651 329 b 674 493 675 393 674 426 b 685 631 674 558 676 578 b 631 622 661 646 632 636 l 625 579 b 539 524 625 533 578 524 l 322 524 b 313 528 317 524 314 525 l 313 857 b 351 894 314 879 324 894 l 569 894 b 663 772 651 894 661 846 b 668 767 663 768 664 767 l 724 769 b 731 775 729 769 731 771 l 738 921 b 733 935 738 932 733 935 l 708 961 l 242 961 b 47 965 176 961 100 964 b 61 910 47 939 47 910 l 126 910 b 181 872 147 910 181 893 l 181 221 b 182 174 181 204 182 189 b 179 93 182 129 179 93 b 103 54 179 74 154 54 l 36 54 b 22 -4 22 54 22 22 b 203 0 75 -3 140 0 z m 438 1236 b 418 1225 426 1235 421 1232 b 346 1043 417 1222 350 1049 b 347 1031 343 1036 344 1033 b 371 1010 351 1028 361 1017 b 385 1014 378 1007 381 1008 b 535 1208 403 1031 526 1197 b 533 1225 543 1218 538 1225 z "},"Ñ":{"ha":1188,"x_min":0,"x_max":0,"o":"m 372 51 b 290 113 346 51 293 67 b 283 785 286 181 283 610 b 907 -3 371 678 779 171 b 950 0 907 -3 931 0 b 1000 -3 967 0 982 -1 l 1000 556 b 1014 872 1000 644 1003 792 b 1078 910 1019 900 1054 910 l 1124 910 b 1138 965 1138 910 1138 939 b 964 961 1085 964 1029 961 b 757 965 897 961 808 963 b 771 910 757 940 757 910 l 858 910 b 917 872 886 910 911 894 b 931 556 929 790 931 643 l 931 186 l 307 961 l 244 961 b 50 965 179 961 103 964 b 64 910 50 939 50 910 l 131 910 b 207 869 151 910 207 903 l 207 635 b 197 113 207 432 206 163 b 131 51 192 71 161 51 l 64 51 b 50 -4 50 51 50 22 b 244 0 103 -3 179 0 b 451 -4 311 0 400 -1 b 438 51 451 19 451 51 z m 397 1060 b 390 1022 393 1053 390 1042 b 404 1018 390 1024 392 1007 b 493 1064 432 1042 457 1064 b 640 1029 546 1064 590 1029 b 749 1074 689 1029 728 1058 b 792 1125 763 1085 786 1106 b 783 1156 796 1146 796 1167 b 679 1104 772 1144 732 1104 b 532 1142 625 1104 583 1142 b 397 1060 493 1142 419 1096 z "},"Â":{"ha":1001,"x_min":0,"x_max":0,"o":"m 513 801 l 633 454 b 626 451 632 453 631 451 l 390 451 b 385 453 388 451 386 451 z m 1015 51 l 958 51 b 901 89 935 51 913 68 b 581 963 893 100 615 842 b 543 961 568 961 558 961 b 513 961 532 961 522 960 l 501 963 b 171 90 460 843 171 90 b 110 53 161 65 128 53 l 43 53 b 29 -3 29 53 29 24 b 224 1 82 -1 158 1 b 385 -3 290 1 333 0 b 369 53 385 22 385 53 l 304 53 b 251 90 264 53 243 68 l 358 383 b 364 385 360 385 361 385 l 653 385 b 660 383 656 385 657 385 b 761 89 714 225 761 89 b 710 51 774 57 729 51 l 654 51 b 640 -4 640 51 640 22 b 835 0 693 -3 769 0 b 1029 -4 901 0 978 -1 b 1015 51 1029 21 1029 51 z m 563 1258 b 553 1264 563 1258 560 1265 b 511 1253 542 1263 517 1254 b 497 1233 507 1250 503 1244 b 382 1022 493 1221 400 1042 b 396 1008 379 1018 378 1008 b 444 1029 414 1008 435 1013 b 515 1147 457 1050 507 1131 b 528 1146 519 1154 522 1158 b 608 1017 535 1133 586 1040 b 628 1013 613 1014 615 1007 b 674 1029 639 1015 669 1025 b 674 1046 679 1032 678 1038 b 563 1258 664 1060 596 1181 z "},"Ö":{"ha":1114,"x_min":0,"x_max":0,"o":"m 581 983 b 65 488 261 983 65 765 b 565 -26 65 243 208 -26 b 1049 492 843 -26 1049 172 b 581 983 1049 761 836 983 z m 528 904 b 892 463 735 903 892 725 b 613 49 892 156 736 49 b 224 536 407 49 224 188 b 528 904 224 738 329 904 z m 347 1078 b 361 1033 347 1060 353 1046 b 410 1007 374 1018 388 1007 b 464 1029 424 1007 451 1014 b 483 1078 474 1042 482 1056 b 468 1124 485 1088 481 1111 b 418 1139 456 1138 431 1142 b 364 1121 399 1138 376 1132 b 347 1078 349 1108 347 1090 z m 628 1078 b 642 1033 628 1060 632 1046 b 690 1007 654 1018 668 1007 b 744 1029 704 1007 732 1014 b 763 1078 754 1042 761 1056 b 747 1124 765 1088 760 1111 b 697 1139 735 1138 710 1142 b 643 1121 679 1138 656 1132 b 628 1078 629 1108 628 1090 z "},"Ü":{"ha":1135,"x_min":0,"x_max":0,"o":"m 436 910 b 450 965 450 910 450 940 b 243 961 399 963 310 961 b 49 965 178 961 101 964 b 63 910 49 939 49 910 l 129 910 b 186 861 157 910 186 893 l 186 392 b 604 -18 186 111 286 -18 b 967 392 933 -18 967 269 l 967 717 b 972 861 967 769 967 822 b 1046 910 974 889 1013 910 l 1086 910 b 1100 965 1100 910 1100 940 b 921 961 1049 963 988 961 b 739 965 854 961 790 963 b 753 910 739 940 739 910 l 793 910 b 883 861 840 910 876 889 b 893 581 893 815 893 783 l 893 392 b 619 64 893 235 861 64 b 321 392 378 64 321 236 l 321 861 b 371 910 321 896 349 910 z m 365 1079 b 379 1035 365 1061 371 1047 b 428 1008 392 1019 406 1008 b 482 1031 442 1008 469 1015 b 501 1079 492 1043 500 1057 b 486 1125 503 1089 499 1113 b 436 1140 474 1139 449 1143 b 382 1122 417 1139 394 1133 b 365 1079 367 1110 365 1092 z m 646 1079 b 660 1035 646 1061 650 1047 b 708 1008 672 1019 686 1008 b 763 1031 722 1008 750 1015 b 781 1079 772 1043 779 1057 b 765 1125 783 1089 778 1113 b 715 1140 753 1139 728 1143 b 661 1122 697 1139 674 1133 b 646 1079 647 1110 646 1092 z "},"ü":{"ha":803,"x_min":0,"x_max":0,"o":"m 558 179 b 393 64 553 124 460 64 b 263 213 285 64 263 144 l 263 603 l 235 633 b 221 638 235 633 232 638 b 49 608 217 638 57 610 b 42 597 42 607 42 600 l 42 567 b 49 561 42 563 43 561 l 100 561 b 139 511 129 561 136 549 b 143 400 140 478 143 433 l 143 156 b 349 -22 143 39 263 -22 b 558 88 467 -22 551 83 l 558 15 l 586 -14 b 600 -18 586 -14 589 -18 b 744 10 604 -18 664 -3 b 751 21 751 11 751 15 l 751 50 b 743 56 751 53 747 56 l 717 56 b 678 104 681 56 678 74 l 678 603 l 650 633 b 636 638 650 633 647 638 b 464 608 632 638 472 610 b 457 597 457 607 457 600 l 457 567 b 464 561 457 563 458 561 l 515 561 b 556 511 544 561 553 549 b 558 400 557 478 558 433 z m 169 847 b 183 803 169 829 175 815 b 232 776 196 788 210 776 b 286 799 246 776 274 783 b 306 847 296 811 304 825 b 290 893 307 857 303 881 b 240 908 278 907 253 911 b 186 890 221 907 199 901 b 169 847 171 878 169 860 z m 450 847 b 464 803 450 829 454 815 b 513 776 476 788 490 776 b 567 799 526 776 554 783 b 585 847 576 811 583 825 b 569 893 588 857 582 881 b 519 908 557 907 532 911 b 465 890 501 907 478 901 b 450 847 451 878 450 860 z "},"Ÿ":{"ha":872,"x_min":0,"x_max":0,"o":"m 526 129 b 522 306 524 161 522 238 b 528 422 522 379 524 411 b 799 872 604 551 726 786 b 867 910 815 892 835 910 l 921 910 b 935 965 935 910 935 940 b 757 961 883 963 824 961 b 581 965 692 961 633 964 b 594 910 581 939 581 910 l 661 910 b 700 872 689 910 714 901 b 490 479 681 815 563 592 b 289 872 374 683 289 872 b 282 897 285 882 282 890 b 297 910 282 904 286 910 l 351 910 b 365 965 365 910 365 940 b 181 961 314 963 247 961 b -14 965 115 961 39 964 b 0 910 -14 939 -14 910 l 67 910 b 129 872 97 910 115 893 b 357 461 192 788 289 596 l 376 424 b 390 343 389 399 390 371 b 388 129 390 254 388 192 b 328 51 388 78 354 51 l 257 51 b 243 -4 243 51 243 22 b 447 0 296 -3 382 0 b 661 -4 515 0 610 -1 b 647 51 661 21 661 51 l 582 51 b 526 129 551 51 531 78 z m 283 1079 b 297 1035 283 1061 289 1047 b 346 1008 310 1019 324 1008 b 400 1031 360 1008 388 1015 b 419 1079 410 1043 418 1057 b 404 1125 421 1089 417 1113 b 354 1140 392 1139 367 1143 b 300 1122 335 1139 313 1133 b 283 1079 285 1110 283 1092 z m 564 1079 b 578 1035 564 1061 568 1047 b 626 1008 590 1019 604 1008 b 681 1031 640 1008 668 1015 b 699 1079 690 1043 697 1057 b 683 1125 701 1089 696 1113 b 633 1140 671 1139 646 1143 b 579 1122 615 1139 592 1133 b 564 1079 565 1110 564 1092 z "},"ÿ":{"ha":683,"x_min":0,"x_max":0,"o":"m 183 -268 b 153 -290 176 -282 171 -286 b 47 -299 139 -293 106 -294 b 42 -303 43 -299 42 -300 b 44 -368 42 -304 42 -349 b 49 -372 44 -368 44 -372 l 157 -375 b 185 -358 172 -375 175 -368 b 275 -210 240 -294 250 -272 l 572 533 b 636 575 582 557 607 575 l 676 575 b 690 625 690 575 690 600 b 563 621 639 621 614 621 b 422 625 517 621 475 624 b 436 575 422 599 422 575 l 481 575 b 508 533 504 575 518 556 b 356 153 508 533 431 339 b 206 550 294 321 206 550 b 204 557 204 553 204 556 b 233 575 204 569 221 575 l 283 575 b 299 625 299 575 299 600 b 128 621 247 621 196 621 b -35 625 63 621 18 624 b -21 575 -35 599 -35 575 l 26 575 b 74 550 43 575 64 568 b 289 -8 83 540 251 115 z m 125 846 b 139 801 125 828 131 814 b 188 775 151 786 165 775 b 242 797 201 775 229 782 b 261 846 251 810 260 824 b 246 892 263 856 258 879 b 196 907 233 906 208 910 b 142 889 176 906 154 900 b 125 846 126 876 125 858 z m 406 846 b 419 801 406 828 410 814 b 468 775 432 786 446 775 b 522 797 482 775 510 782 b 540 846 532 810 539 824 b 525 892 543 856 538 879 b 475 907 513 906 488 910 b 421 889 457 906 433 900 b 406 846 407 876 406 858 z "},"ﬁ":{"ha":869,"x_min":0,"x_max":0,"o":"m 160 299 l 157 72 b 136 46 156 56 149 46 l 69 46 b 56 -4 56 46 56 22 b 219 0 108 -3 154 0 b 381 -4 286 0 329 -1 b 367 46 381 21 381 46 l 303 46 b 283 72 290 46 285 56 l 279 300 b 276 501 279 304 276 424 l 276 531 b 289 554 276 531 274 554 l 560 554 b 593 524 585 553 593 539 l 593 213 b 588 74 593 149 588 74 b 567 47 588 46 567 47 l 500 47 b 486 -3 486 47 486 24 b 649 1 486 -3 583 1 b 818 -3 717 1 818 -3 b 804 47 818 22 818 47 l 739 47 b 719 74 739 47 719 46 b 713 213 719 74 713 151 l 713 599 l 685 629 b 671 633 685 629 682 633 b 643 629 669 633 658 632 b 529 621 614 625 568 621 l 286 621 b 276 628 281 621 278 624 b 297 821 278 711 283 772 b 468 932 319 881 388 932 b 597 860 528 932 592 906 l 601 813 b 607 807 601 808 603 807 b 672 807 606 807 657 806 b 678 811 675 807 678 808 l 697 940 b 696 956 699 950 696 956 b 531 1008 658 993 593 1008 b 390 982 478 1008 426 999 b 249 878 324 953 261 896 b 242 871 246 875 243 874 b 168 621 185 803 172 721 b 86 607 147 618 94 608 b 81 596 81 606 81 599 l 81 560 b 86 556 81 557 82 556 l 144 554 b 165 528 160 554 164 543 b 161 396 164 490 161 449 b 160 299 160 336 160 299 z "},"ﬂ":{"ha":867,"x_min":0,"x_max":0,"o":"m 69 46 b 56 -4 56 46 56 22 b 219 0 108 -3 154 0 b 381 -4 286 0 329 -1 b 367 46 381 21 381 46 l 303 46 b 283 74 290 46 285 57 l 279 300 b 276 501 279 304 276 424 l 276 531 b 289 554 276 531 274 554 l 394 554 l 418 621 l 286 621 b 276 628 281 621 278 624 b 297 821 278 711 283 772 b 468 932 319 881 388 932 b 593 874 521 932 576 911 l 593 211 b 586 72 593 147 586 72 b 567 46 585 56 579 46 l 499 46 b 485 -4 485 46 485 22 b 649 0 538 -3 583 0 b 818 -4 715 0 767 -1 b 804 46 818 21 818 46 l 739 46 b 718 72 726 46 719 56 b 713 211 718 72 713 150 l 713 972 l 685 997 b 671 1003 685 997 681 1003 l 640 990 b 531 1008 607 1003 568 1008 b 390 982 478 1008 426 999 b 261 893 336 958 285 917 b 168 621 186 821 172 733 b 86 607 147 618 94 608 b 81 596 81 606 81 599 l 81 560 b 86 556 81 557 82 556 l 144 554 b 165 528 160 554 164 543 b 161 396 164 490 161 449 b 160 299 160 336 160 299 l 157 72 b 136 46 156 56 149 46 z "},"¡":{"ha":399,"x_min":0,"x_max":0,"o":"m 263 -8 b 285 8 275 -10 286 -8 b 233 669 285 8 233 664 b 224 676 233 674 231 678 b 179 668 224 676 186 671 b 172 658 174 667 172 664 b 125 43 172 658 128 67 b 138 18 122 29 126 21 b 263 -8 138 18 239 -6 z m 140 890 b 157 839 140 869 142 851 b 211 819 168 828 192 821 b 268 836 231 818 256 821 b 283 890 281 847 285 871 b 265 938 282 911 275 925 b 203 960 253 954 225 960 b 154 933 181 960 167 949 b 140 890 146 921 140 907 z "},"&":{"ha":1104,"x_min":0,"x_max":0,"o":"m 810 517 b 688 293 790 461 725 357 b 410 532 572 389 450 493 b 406 549 401 540 400 544 b 592 781 501 618 592 664 b 382 975 592 911 493 975 b 210 900 310 975 257 953 b 140 740 161 846 140 792 b 247 522 140 663 186 588 b 49 260 108 440 49 369 b 351 -17 49 68 179 -17 b 663 157 500 -17 601 71 b 772 68 726 104 772 68 l 844 8 b 872 -3 854 -1 860 -3 b 1004 0 897 -3 988 0 b 1081 -3 1040 0 1054 -1 b 1061 51 1081 22 1075 51 l 1019 51 b 947 78 994 51 976 53 b 728 258 947 78 847 160 l 875 517 b 940 554 892 546 915 554 l 985 554 b 999 604 999 554 999 579 b 871 601 947 601 922 601 b 731 604 825 601 783 603 b 744 554 731 578 731 554 l 797 554 b 810 517 821 554 819 544 z m 174 279 b 275 481 174 353 183 403 b 289 481 281 485 285 485 l 296 474 b 617 196 381 394 513 282 b 617 189 618 193 618 190 b 424 81 544 111 511 81 b 174 279 306 81 174 163 z m 254 782 b 369 925 254 869 297 925 b 488 776 435 925 488 844 b 358 581 488 678 418 626 b 254 782 289 654 254 690 z "},"$":{"ha":717,"x_min":0,"x_max":0,"o":"m 504 856 b 538 739 517 840 538 785 b 543 733 538 735 539 733 b 594 733 542 733 579 732 b 600 739 597 733 600 735 l 607 888 b 604 906 608 900 604 906 l 579 931 l 518 940 b 435 949 518 940 482 946 l 443 1017 b 439 1028 443 1022 443 1025 l 400 1051 b 390 1042 394 1054 392 1050 l 382 950 b 289 938 349 950 315 946 b 96 690 101 879 96 733 b 328 408 96 549 224 464 b 288 39 321 292 306 169 b 171 108 200 57 171 108 b 132 217 147 150 146 171 b 124 219 131 219 128 221 l 72 206 b 68 197 69 204 68 204 b 92 33 68 185 90 39 b 96 22 92 28 96 22 l 125 14 b 279 -19 172 -6 225 -17 l 264 -111 b 279 -121 261 -122 267 -126 b 300 -111 286 -118 293 -115 b 317 -81 308 -106 314 -93 l 328 -21 b 425 -7 361 -19 393 -15 b 640 249 551 28 640 114 b 390 528 640 415 526 454 b 428 897 403 663 417 794 b 504 856 485 885 504 856 z m 521 204 b 354 33 521 151 494 35 l 336 33 b 375 381 349 122 361 247 b 521 204 508 299 521 229 z m 213 761 b 358 903 213 832 269 900 l 376 903 b 344 553 368 804 357 681 b 213 761 221 626 213 682 z "},"€":{"ha":710,"x_min":0,"x_max":0,"o":"m 443 863 b 506 781 474 840 494 814 b 517 735 515 749 517 735 b 526 729 517 729 522 729 l 569 729 b 578 735 572 729 576 729 b 588 865 579 744 588 861 b 582 879 588 876 582 879 l 554 907 b 415 942 554 907 486 932 b 372 946 401 944 388 946 b 29 569 157 946 54 754 b -26 571 6 569 -17 569 b -33 569 -32 571 -33 571 b -46 526 -35 565 -44 538 b -43 514 -47 524 -44 514 l 24 514 l 24 433 b -40 435 -1 433 -26 433 b -47 431 -44 435 -46 433 b -57 381 -50 421 -57 386 b -56 375 -57 379 -57 375 l 28 375 b 397 -18 47 135 143 -18 b 560 18 468 -18 508 -4 b 579 31 572 24 576 24 b 610 192 594 75 610 192 b 603 201 610 199 608 199 b 568 211 582 208 582 208 b 558 207 564 213 560 211 b 393 39 531 92 508 39 b 150 375 240 39 172 194 l 399 375 b 414 419 401 376 414 408 b 413 433 414 424 415 432 l 144 433 b 142 514 142 460 142 488 l 413 514 b 429 563 417 518 428 560 b 426 569 429 565 429 568 l 143 569 b 339 894 154 754 233 894 b 443 863 378 894 415 883 z "},"¥":{"ha":886,"x_min":0,"x_max":0,"o":"m 633 265 b 654 317 638 267 653 317 l 497 317 b 499 422 497 369 494 400 l 639 422 b 661 458 643 422 660 451 b 658 472 663 463 661 469 l 510 472 b 764 839 582 597 693 760 b 826 876 778 858 794 876 l 881 876 b 894 932 894 876 894 907 b 722 928 843 929 783 928 b 551 932 657 928 604 931 b 565 876 551 906 551 876 l 632 876 b 665 839 654 876 679 868 b 467 518 646 788 533 625 b 271 839 350 701 271 839 b 264 864 267 849 264 857 b 279 876 264 871 268 876 l 333 876 b 347 932 347 876 347 907 b 168 928 296 929 232 928 b -21 932 103 928 32 931 b -7 876 -21 906 -21 876 l 60 876 b 117 839 90 876 103 860 b 353 472 183 753 285 599 l 349 472 b 240 474 281 472 253 472 b 235 472 235 475 235 474 b 217 422 232 464 218 422 l 368 422 l 368 317 l 229 317 b 214 276 228 317 215 288 b 218 264 214 272 215 264 l 368 264 l 368 125 b 310 51 368 78 336 51 l 239 51 b 231 -4 231 51 231 22 b 424 0 278 -3 364 0 b 632 -4 492 0 581 -1 b 618 51 632 21 632 51 l 553 51 b 503 125 522 51 506 78 b 499 264 501 146 499 204 z "},"¢":{"ha":631,"x_min":0,"x_max":0,"o":"m 401 890 b 392 881 396 893 393 889 l 382 775 b 49 443 183 763 50 624 b 317 122 49 304 133 139 b 296 -4 311 76 303 33 b 311 -14 293 -15 299 -19 b 332 -4 318 -11 325 -8 b 349 21 340 1 346 8 b 367 121 354 43 361 78 b 578 199 438 124 515 143 l 592 211 b 569 256 606 225 582 244 l 538 232 b 375 189 479 192 424 189 b 426 704 393 335 408 539 b 493 643 456 697 483 682 b 503 569 497 626 500 601 b 508 564 503 565 504 564 b 564 565 507 564 549 564 b 569 569 567 565 569 567 l 586 707 b 582 726 589 722 582 726 b 433 775 550 750 489 771 b 444 856 438 804 440 831 b 440 867 444 861 444 864 z m 376 710 b 326 197 363 550 347 361 b 172 446 226 231 172 347 b 376 710 174 599 235 710 z "},"œ":{"ha":1169,"x_min":0,"x_max":0,"o":"m 1058 115 b 881 63 990 64 929 63 b 665 328 740 63 667 171 l 1092 349 b 856 639 1092 535 1014 639 b 610 511 756 639 667 589 b 360 639 565 589 485 639 b 29 296 160 639 29 481 b 324 -18 29 119 115 -18 b 589 114 439 -18 531 35 b 846 -18 633 35 715 -18 b 1079 72 936 -18 1019 13 b 1058 115 1093 86 1071 104 z m 154 340 b 325 578 154 451 200 578 b 529 281 456 578 529 439 b 358 43 529 169 483 43 b 154 340 228 43 154 182 z m 833 582 b 969 404 931 582 969 482 l 667 378 b 833 582 678 539 751 582 z "},"Õ":{"ha":1114,"x_min":0,"x_max":0,"o":"m 581 983 b 65 488 261 983 65 765 b 565 -26 65 243 208 -26 b 1049 492 843 -26 1049 172 b 581 983 1049 761 836 983 z m 528 904 b 892 463 735 903 892 725 b 613 49 892 156 736 49 b 224 536 407 49 224 188 b 528 904 224 738 329 904 z m 361 1061 b 354 1024 357 1054 354 1043 b 368 1019 354 1025 356 1008 b 457 1065 396 1043 421 1065 b 604 1031 510 1065 554 1031 b 713 1075 653 1031 692 1060 b 756 1126 726 1086 750 1107 b 747 1157 760 1147 760 1168 b 643 1106 736 1146 696 1106 b 496 1143 589 1106 547 1143 b 361 1061 457 1143 383 1097 z "},"Ã":{"ha":1001,"x_min":0,"x_max":0,"o":"m 513 801 l 633 454 b 626 451 632 453 631 451 l 390 451 b 385 453 388 451 386 451 z m 1015 51 l 958 51 b 901 89 935 51 913 68 b 581 963 893 100 615 842 b 543 961 568 961 558 961 b 513 961 532 961 522 960 l 501 963 b 171 90 460 843 171 90 b 110 53 161 65 128 53 l 43 53 b 29 -3 29 53 29 24 b 224 1 82 -1 158 1 b 385 -3 290 1 333 0 b 369 53 385 22 385 53 l 304 53 b 251 90 264 53 243 68 l 358 383 b 364 385 360 385 361 385 l 653 385 b 660 383 656 385 657 385 b 761 89 714 225 761 89 b 710 51 774 57 729 51 l 654 51 b 640 -4 640 51 640 22 b 835 0 693 -3 769 0 b 1029 -4 901 0 978 -1 b 1015 51 1029 21 1029 51 z m 333 1058 b 326 1021 329 1051 326 1040 b 340 1017 326 1022 328 1006 b 429 1063 368 1040 393 1063 b 576 1028 482 1063 526 1028 b 685 1072 625 1028 664 1057 b 728 1124 699 1083 722 1104 b 719 1154 732 1144 732 1165 b 615 1103 708 1143 668 1103 b 468 1140 561 1103 519 1140 b 333 1058 429 1140 356 1094 z "},"À":{"ha":1001,"x_min":0,"x_max":0,"o":"m 513 801 l 633 454 b 626 451 632 453 631 451 l 390 451 b 385 453 388 451 386 451 z m 1015 51 l 958 51 b 901 89 935 51 913 68 b 581 963 893 100 615 842 b 543 961 568 961 558 961 b 513 961 532 961 522 960 l 501 963 b 171 90 460 843 171 90 b 110 53 161 65 128 53 l 43 53 b 29 -3 29 53 29 24 b 224 1 82 -1 158 1 b 385 -3 290 1 333 0 b 369 53 385 22 385 53 l 304 53 b 251 90 264 53 243 68 l 358 383 b 364 385 360 385 361 385 l 653 385 b 660 383 656 385 657 385 b 761 89 714 225 761 89 b 710 51 774 57 729 51 l 654 51 b 640 -4 640 51 640 22 b 835 0 693 -3 769 0 b 1029 -4 901 0 978 -1 b 1015 51 1029 21 1029 51 z m 404 1218 b 403 1201 400 1217 394 1211 b 550 1014 411 1190 532 1031 b 564 1010 554 1008 557 1007 b 588 1031 574 1017 583 1028 b 589 1043 590 1033 592 1036 b 524 1229 585 1049 525 1226 b 506 1235 521 1236 517 1236 b 404 1218 494 1233 407 1219 z "},"æ":{"ha":993,"x_min":0,"x_max":0,"o":"m 908 115 b 731 63 840 64 779 63 b 517 297 599 63 526 157 l 940 357 b 706 639 940 536 864 639 b 501 557 631 639 557 606 b 308 639 454 618 363 639 b 100 535 219 639 113 540 b 96 518 96 532 96 526 l 99 425 b 103 421 99 421 103 421 b 167 418 122 418 165 418 b 171 424 169 419 171 419 b 181 521 175 482 178 507 b 204 551 183 539 190 544 l 203 551 b 254 561 219 557 235 561 b 414 432 382 561 414 485 l 414 331 b 161 268 296 313 239 296 b 50 144 113 251 50 213 b 211 -18 50 46 119 -18 b 428 92 282 -18 368 25 b 446 93 435 100 440 99 b 696 -18 494 26 576 -18 b 929 72 786 -18 869 13 b 908 115 943 86 921 104 z m 515 346 b 683 582 518 533 596 582 b 822 400 781 582 822 478 z m 221 225 b 414 281 267 246 322 264 l 414 136 b 235 65 364 99 289 65 b 161 146 196 65 161 96 b 221 225 161 188 189 211 z "},"Æ":{"ha":1343,"x_min":0,"x_max":0,"o":"m 307 53 b 254 90 267 53 240 63 l 444 451 b 456 457 447 454 450 457 l 682 457 b 696 444 697 457 696 444 l 696 221 b 697 174 696 204 697 189 b 694 93 697 129 694 93 b 618 54 694 74 669 54 l 551 54 b 538 -4 538 54 538 22 b 718 0 590 -3 656 0 l 1149 0 b 1269 4 1183 0 1224 0 b 1289 17 1282 6 1286 10 b 1322 201 1300 65 1322 201 b 1315 211 1322 208 1321 208 b 1267 226 1294 218 1281 224 b 1257 222 1263 228 1258 226 b 1236 150 1250 190 1247 172 b 1118 65 1194 67 1161 65 l 872 65 b 828 104 846 65 832 83 l 828 451 b 838 457 829 454 832 457 l 1054 457 b 1140 394 1093 457 1140 438 l 1140 358 b 1192 342 1140 338 1167 329 b 1189 493 1190 393 1189 426 b 1200 631 1189 558 1192 578 b 1146 622 1176 646 1147 636 l 1140 579 b 1054 524 1140 533 1093 524 l 838 524 b 828 528 832 524 829 525 l 828 857 b 867 894 829 879 839 894 l 1085 894 b 1178 772 1167 894 1176 846 b 1183 767 1178 768 1179 767 l 1239 769 b 1246 775 1244 769 1246 771 l 1253 921 b 1249 935 1253 932 1249 935 l 1224 961 l 757 961 b 521 965 692 961 574 964 b 535 910 521 939 521 910 l 621 910 b 174 90 524 706 174 90 b 113 53 160 65 131 53 l 46 53 b 32 -3 32 53 32 24 b 226 1 85 -1 161 1 b 379 -3 293 1 328 0 b 364 53 379 22 379 53 z m 688 524 l 496 524 b 488 533 486 524 486 528 l 682 903 b 696 872 689 913 696 903 l 696 543 b 688 524 696 543 697 524 z "},"Œ":{"ha":1464,"x_min":0,"x_max":0,"o":"m 1107 0 b 1275 4 1149 0 1206 -1 b 1294 17 1288 6 1292 10 b 1328 201 1306 65 1328 201 b 1321 211 1328 208 1326 208 b 1272 226 1300 218 1286 224 b 1263 222 1268 228 1264 226 b 1242 150 1256 190 1253 172 b 1129 65 1201 71 1169 65 l 878 65 b 833 104 851 65 838 83 l 833 451 b 843 457 835 454 838 457 l 1060 457 b 1146 394 1099 457 1146 438 l 1146 358 b 1197 342 1146 338 1172 329 b 1194 493 1196 393 1194 426 b 1206 631 1194 558 1197 578 b 1151 622 1182 646 1153 636 l 1146 579 b 1060 524 1146 533 1099 524 l 843 524 b 833 528 838 524 835 525 l 833 857 b 872 894 835 879 844 894 l 1090 894 b 1183 772 1172 894 1182 846 b 1189 767 1183 768 1185 767 l 1244 769 b 1251 775 1250 769 1251 771 l 1258 921 b 1254 935 1258 932 1254 935 l 1229 961 l 742 961 b 667 971 707 963 688 967 b 561 983 639 978 606 983 b 46 488 242 983 46 765 b 546 -26 46 243 189 -26 b 669 -12 594 -26 635 -21 l 686 -8 b 690 -7 688 -8 689 -8 b 779 0 710 -3 733 0 z m 593 49 b 204 536 388 49 204 188 b 508 904 204 738 310 904 b 674 861 589 904 628 885 b 701 740 701 847 701 803 l 701 221 b 703 174 701 204 703 189 b 676 65 701 99 699 76 b 593 49 651 54 625 49 z "},"≠":{"ha":736,"x_min":0,"x_max":0,"o":"m 701 219 b 729 297 708 221 728 286 b 726 311 729 301 731 310 l 419 311 l 492 469 l 704 471 b 732 544 713 474 731 538 b 729 558 733 549 732 556 l 532 558 l 590 686 b 590 697 592 689 593 693 b 551 739 582 710 556 735 b 536 735 549 742 539 742 l 458 558 b 121 560 267 558 138 558 b 108 558 110 561 108 560 b 88 482 104 550 89 494 b 92 469 86 479 89 469 l 419 469 l 349 311 b 119 314 253 311 132 311 b 107 311 110 315 108 314 b 89 231 103 301 90 242 b 93 218 89 226 90 218 l 308 218 b 244 81 282 161 251 97 b 243 65 240 72 240 68 b 279 28 250 58 268 33 b 292 28 285 25 289 24 l 378 218 z "},"Ø":{"ha":1199,"x_min":0,"x_max":0,"o":"m 628 983 b 113 488 308 983 113 765 b 225 143 113 367 147 240 b 69 -3 161 81 106 29 b 71 -14 64 -8 65 -11 l 107 -31 b 124 -29 113 -33 118 -33 b 263 101 146 -10 196 38 b 613 -26 343 25 457 -26 b 1096 492 890 -26 1096 172 b 985 807 1096 611 1053 722 l 1128 950 b 1129 963 1133 956 1133 960 l 1081 986 b 1067 985 1074 989 1069 988 l 940 856 b 628 983 857 935 747 983 z m 575 904 b 849 763 686 903 783 851 b 331 246 693 606 494 407 b 271 536 293 319 271 414 b 575 904 271 738 376 904 z m 883 707 b 939 463 918 639 939 557 b 660 49 939 156 783 49 b 360 196 543 49 433 93 b 883 707 517 347 719 546 z "},"ø":{"ha":722,"x_min":0,"x_max":0,"o":"m 28 296 b 99 69 28 206 50 126 l 17 -4 b 18 -15 11 -10 13 -12 l 44 -28 b 61 -26 50 -31 56 -31 b 132 38 78 -11 103 10 b 322 -18 178 3 242 -18 b 653 325 522 -18 653 140 b 617 497 653 389 642 449 l 725 606 b 726 618 731 611 731 615 l 693 638 b 679 636 686 640 682 639 l 588 543 b 358 639 540 601 465 639 b 28 296 158 639 28 481 z m 153 340 b 324 578 153 451 199 578 b 494 450 403 578 461 526 b 192 157 397 354 292 250 b 153 340 167 208 153 272 z m 513 399 b 528 281 522 361 528 322 b 357 43 528 169 482 43 b 217 117 297 43 250 71 b 513 399 304 199 413 301 z "},"ª":{"ha":386,"x_min":0,"x_max":0,"o":"m 238 681 b 131 638 208 658 163 638 b 86 686 107 638 86 657 b 122 735 86 711 103 726 b 238 769 150 747 189 760 z m 47 911 l 49 854 b 51 851 49 851 51 851 b 89 850 63 850 89 850 b 92 854 90 851 92 851 b 97 913 94 889 96 904 b 142 936 101 933 126 936 b 238 858 218 936 238 890 l 238 797 b 86 760 167 786 133 776 b 19 686 57 750 19 726 b 115 588 19 626 61 588 b 238 651 163 588 204 619 l 238 607 l 254 589 b 263 586 254 589 257 586 b 360 600 267 586 311 593 b 364 607 364 601 364 604 l 364 625 b 358 628 364 626 361 628 l 343 628 b 311 660 322 628 313 642 b 310 742 311 660 310 682 l 310 882 b 175 983 310 961 219 983 b 51 921 125 983 64 929 b 47 911 47 918 47 917 z "},"º":{"ha":386,"x_min":0,"x_max":0,"o":"m 82 800 b 183 943 82 867 108 943 b 307 764 263 943 307 860 b 204 622 307 697 279 622 b 82 800 125 622 82 706 z m 7 774 b 183 585 7 668 58 585 b 382 790 303 585 382 681 b 204 979 382 897 329 979 b 7 774 85 979 7 885 z "},"°":{"ha":546,"x_min":0,"x_max":0,"o":"m 161 781 b 278 904 161 863 224 904 b 394 781 332 904 394 863 b 278 657 394 699 332 657 b 161 781 224 657 161 699 z m 278 979 b 79 781 167 979 79 892 b 278 582 79 669 167 582 b 476 781 389 582 476 669 b 278 979 476 892 389 979 z "},"…":{"ha":1167,"x_min":0,"x_max":0,"o":"m 67 54 b 78 14 68 44 71 22 b 126 -8 88 1 108 -8 b 196 10 165 -8 179 -6 b 213 56 210 22 211 40 b 203 119 214 90 211 108 b 126 140 192 133 164 144 b 79 118 108 139 89 132 b 67 54 64 96 64 88 z m 483 54 b 494 14 485 44 488 22 b 543 -8 504 1 525 -8 b 613 10 582 -8 596 -6 b 629 56 626 22 628 40 b 619 119 631 90 628 108 b 543 140 608 133 581 144 b 496 118 525 139 506 132 b 483 54 481 96 481 88 z m 900 54 b 911 14 901 44 904 22 b 960 -8 921 1 942 -8 b 1029 10 999 -8 1013 -6 b 1046 56 1043 22 1044 40 b 1036 119 1047 90 1044 108 b 960 140 1025 133 997 144 b 913 118 942 139 922 132 b 900 54 897 96 897 88 z "},"“":{"ha":485,"x_min":0,"x_max":0,"o":"m 75 639 b 111 639 83 632 96 629 b 190 714 132 653 186 688 b 144 753 192 724 178 731 b 107 814 119 769 107 790 b 221 942 107 858 150 908 b 233 953 228 944 233 949 b 201 976 233 963 213 976 l 199 976 b 26 831 185 974 64 921 b 14 753 17 807 14 774 b 75 639 14 694 42 667 z m 307 639 b 343 639 315 632 328 629 b 422 714 364 653 418 688 b 376 753 424 724 410 731 b 339 814 351 769 339 790 b 453 942 339 858 382 908 b 465 953 460 944 465 949 b 433 976 465 963 444 976 l 431 976 b 258 831 417 974 296 921 b 246 753 249 807 246 774 b 307 639 246 694 274 667 z "},"”":{"ha":514,"x_min":0,"x_max":0,"o":"m 404 976 b 368 976 396 983 383 986 b 289 901 347 963 293 928 b 335 863 288 892 301 885 b 372 801 360 846 372 825 b 258 674 372 757 329 707 b 246 663 251 671 246 667 b 278 639 246 653 267 639 l 281 639 b 453 785 294 642 415 694 b 465 863 463 808 465 842 b 404 976 465 921 438 949 z m 172 976 b 136 976 164 983 151 986 b 57 901 115 963 61 928 b 103 863 56 892 69 885 b 140 801 128 846 140 825 b 26 674 140 757 97 707 b 14 663 19 671 14 667 b 46 639 14 653 35 639 l 49 639 b 221 785 63 642 183 694 b 233 863 231 808 233 842 b 172 976 233 921 206 949 z "},"‘":{"ha":301,"x_min":0,"x_max":0,"o":"m 88 639 b 124 639 96 632 108 629 b 203 714 144 653 199 688 b 157 753 204 724 190 731 b 119 814 132 769 119 790 b 233 942 119 858 163 908 b 246 953 240 944 246 949 b 214 976 246 963 225 976 l 211 976 b 39 831 197 974 76 921 b 26 753 29 807 26 774 b 88 639 26 694 54 667 z "},"’":{"ha":285,"x_min":0,"x_max":0,"o":"m 201 976 b 165 976 193 983 181 986 b 86 901 144 963 90 928 b 132 863 85 892 99 885 b 169 801 157 846 169 825 b 56 674 169 757 126 707 b 43 663 49 671 43 667 b 75 639 43 653 64 639 l 78 639 b 250 785 92 642 213 694 b 263 863 260 808 263 842 b 201 976 263 921 235 949 z "},"‚":{"ha":385,"x_min":0,"x_max":0,"o":"m 274 210 b 236 214 263 225 251 224 b 144 126 213 199 156 144 b 186 40 136 113 136 110 b 208 -25 201 19 208 -3 b 63 -197 208 -87 165 -131 b 50 -210 56 -201 49 -206 b 85 -232 53 -219 75 -235 b 303 -14 99 -229 264 -176 b 310 56 310 13 310 35 b 274 210 310 114 303 171 z "},"„":{"ha":644,"x_min":0,"x_max":0,"o":"m 274 210 b 236 214 263 225 251 224 b 144 126 213 199 156 144 b 186 40 136 113 136 110 b 208 -25 201 19 208 -3 b 63 -197 208 -87 165 -131 b 50 -210 56 -201 49 -206 b 85 -232 53 -219 75 -235 b 303 -14 99 -229 264 -176 b 310 56 310 13 310 35 b 274 210 310 114 303 171 z m 524 210 b 486 214 513 225 501 224 b 394 126 463 199 406 144 b 436 40 386 113 386 110 b 458 -25 451 19 458 -3 b 313 -197 458 -87 415 -131 b 300 -210 306 -201 299 -206 b 335 -232 303 -219 325 -235 b 553 -14 349 -229 514 -176 b 560 56 560 13 560 35 b 524 210 560 114 553 171 z "},"(":{"ha":363,"x_min":0,"x_max":0,"o":"m 19 364 b 303 -214 19 175 96 -67 b 319 -215 304 -215 314 -221 b 335 -193 325 -208 329 -206 b 329 -181 338 -190 336 -187 b 106 410 160 -15 106 183 b 338 960 106 524 126 778 b 339 968 339 963 342 964 b 324 992 335 978 331 983 b 314 990 321 994 318 993 b 19 364 100 828 19 613 z "},")":{"ha":363,"x_min":0,"x_max":0,"o":"m 349 364 b 54 990 349 613 268 828 b 44 992 50 993 47 994 b 29 968 38 983 33 978 b 31 960 26 964 29 963 b 263 410 242 778 263 524 b 39 -181 263 183 208 -15 b 33 -193 32 -187 31 -190 b 49 -215 39 -206 43 -208 b 65 -214 54 -221 64 -215 b 349 364 272 -67 349 175 z "},"{":{"ha":363,"x_min":0,"x_max":0,"o":"m 28 365 b 29 344 28 357 28 351 b 35 340 29 343 31 340 b 186 194 157 338 186 281 b 178 -6 186 146 178 43 b 417 -279 178 -179 249 -265 b 424 -278 421 -279 422 -279 b 429 -244 429 -271 429 -250 b 424 -239 429 -240 425 -239 b 261 -53 288 -215 261 -156 b 272 185 261 8 272 117 b 119 360 272 242 253 328 b 117 364 117 361 117 361 b 119 368 117 367 117 367 b 272 543 253 399 272 486 b 261 781 272 611 261 719 b 424 967 261 883 288 943 b 429 972 425 967 429 968 b 424 1006 429 978 429 999 b 417 1007 422 1007 421 1007 b 178 733 249 993 178 907 b 186 532 178 663 186 597 b 35 388 186 444 157 390 b 29 383 31 388 29 385 b 28 365 28 376 28 372 z "},"}":{"ha":363,"x_min":0,"x_max":0,"o":"m 468 365 b 467 383 468 372 468 376 b 461 388 467 385 465 388 b 310 532 339 390 310 444 b 318 733 310 604 318 668 b 79 1007 318 907 247 993 b 72 1006 75 1007 74 1007 b 67 972 67 999 67 978 b 72 967 67 968 71 967 b 235 781 208 943 235 883 b 224 543 235 719 224 611 b 376 368 224 486 243 399 b 379 364 379 367 379 367 b 376 360 379 361 379 361 b 224 185 243 328 224 242 b 235 -53 224 117 235 8 b 72 -239 235 -156 208 -215 b 67 -244 71 -239 67 -240 b 72 -278 67 -250 67 -271 b 79 -279 74 -279 75 -279 b 318 -6 247 -265 318 -179 b 310 194 318 65 310 129 b 461 340 310 281 339 338 b 467 344 465 340 467 343 b 468 365 468 351 468 357 z "},"|":{"ha":597,"x_min":0,"x_max":0,"o":"m 100 1008 l 100 -35 l 182 -35 l 182 1008 z "},"—":{"ha":1415,"x_min":0,"x_max":0,"o":"m 72 393 b 65 389 67 393 67 392 b 53 326 61 376 54 338 b 57 317 53 326 51 317 b 1322 318 78 315 1311 315 b 1333 385 1328 319 1333 369 l 1333 389 b 1326 394 1333 392 1333 394 b 72 393 1263 396 81 394 z "},"ﬀ":{"ha":929,"x_min":0,"x_max":0,"o":"m 56 46 b 42 -4 42 46 42 22 b 206 0 94 -3 140 0 b 367 -4 272 0 315 -1 b 353 46 367 21 367 46 l 289 46 b 269 74 276 46 271 57 l 265 299 b 263 501 265 299 263 422 b 283 819 263 651 263 749 b 461 932 306 879 381 932 b 614 818 521 932 613 903 b 593 621 599 758 594 688 l 511 607 b 506 596 506 606 506 599 l 506 560 b 511 556 506 557 507 556 l 569 554 b 590 528 585 554 589 543 b 586 396 589 490 586 449 b 585 299 585 336 585 299 l 582 72 b 561 46 581 56 574 46 l 488 46 b 474 -4 474 46 474 22 b 644 0 526 -3 579 0 b 806 -4 711 0 754 -1 b 792 46 806 21 806 46 l 728 46 b 708 72 715 46 710 56 l 704 299 b 701 544 703 383 701 464 b 726 872 701 688 701 794 b 861 971 749 943 804 971 b 967 908 897 971 961 954 l 971 861 b 976 856 971 857 972 856 b 1042 856 975 856 1026 854 b 1047 860 1044 856 1047 857 l 1067 989 b 1065 1004 1068 999 1065 1004 b 921 1051 1032 1042 964 1051 b 783 1014 872 1051 828 1038 b 693 953 746 994 714 971 b 524 1008 656 990 586 1008 b 271 914 444 1008 331 965 b 228 871 254 900 240 886 b 154 621 171 803 158 721 b 72 607 133 618 81 608 b 67 596 67 606 67 599 l 67 560 b 72 556 67 557 68 556 l 131 554 b 151 528 146 554 150 543 b 147 396 150 490 147 449 l 143 72 b 122 46 142 56 135 46 z "},"ﬃ":{"ha":1278,"x_min":0,"x_max":0,"o":"m 1056 628 b 1042 632 1056 628 1053 632 b 869 603 1038 632 878 604 b 863 592 863 601 863 594 l 863 560 b 869 554 863 556 864 554 l 925 554 b 964 522 954 554 964 539 l 964 211 b 958 72 964 147 958 72 b 938 46 958 44 938 46 l 883 46 b 869 -4 869 46 869 22 b 1019 0 869 -4 954 0 b 1189 -4 1088 0 1189 -4 b 1175 46 1189 21 1189 46 l 1110 46 b 1090 72 1110 46 1090 44 b 1083 211 1090 72 1083 150 l 1083 597 z m 56 46 b 42 -4 42 46 42 22 b 206 0 94 -3 140 0 b 381 -4 272 0 329 -1 b 367 46 381 21 381 46 l 289 46 b 269 74 276 46 271 57 l 265 299 b 263 501 265 299 263 422 b 283 819 263 651 263 749 b 461 932 306 879 381 932 b 614 818 521 932 613 903 b 593 621 599 758 594 688 l 511 607 b 506 596 506 606 506 599 l 506 560 b 511 556 506 557 507 556 l 569 554 b 590 528 585 554 589 543 b 586 396 589 490 586 449 b 585 299 585 336 585 299 l 582 72 b 561 46 581 56 574 46 l 488 46 b 474 -4 474 46 474 22 b 644 0 526 -3 579 0 b 792 -4 711 0 740 -1 b 778 46 792 21 792 46 l 728 46 b 708 72 715 46 710 56 l 704 299 b 701 501 704 299 701 422 b 725 872 701 707 703 801 b 861 971 749 943 804 971 b 967 908 897 971 961 954 l 971 861 b 976 856 971 857 972 856 b 1042 856 975 856 1026 854 b 1047 860 1044 856 1047 857 l 1067 989 b 1065 1004 1068 999 1065 1004 b 921 1051 1032 1042 964 1051 b 783 1014 872 1051 828 1038 b 693 953 746 994 714 971 b 524 1008 656 990 586 1008 b 272 914 446 1008 331 965 b 228 871 254 900 240 886 b 154 621 171 803 158 721 b 72 607 133 618 81 608 b 67 596 67 606 67 599 l 67 560 b 72 556 67 557 68 556 l 131 554 b 151 528 146 554 150 543 b 147 396 150 490 147 449 b 146 299 146 336 146 299 l 143 72 b 122 46 142 56 135 46 z "},"ﬄ":{"ha":1240,"x_min":0,"x_max":0,"o":"m 56 46 b 42 -4 42 46 42 22 b 206 0 94 -3 140 0 b 381 -4 272 0 329 -1 b 367 46 381 21 381 46 l 289 46 b 269 74 276 46 271 57 l 265 299 b 263 501 265 299 263 422 b 283 819 263 651 263 749 b 461 932 306 879 381 932 b 614 818 521 932 613 903 b 593 621 599 758 594 688 l 511 607 b 506 596 506 606 506 599 l 506 560 b 511 556 506 557 507 556 l 569 554 b 590 528 585 554 589 543 b 586 396 589 490 586 449 b 585 299 585 338 585 300 l 582 72 b 561 46 581 56 574 46 l 483 46 b 469 -4 469 46 469 22 b 644 0 522 -3 579 0 b 792 -4 711 0 740 -1 b 778 46 792 21 792 46 l 728 46 b 708 72 715 46 710 56 l 704 299 b 701 583 704 396 701 489 b 725 872 701 707 703 801 b 861 971 749 943 804 971 b 965 915 894 971 954 956 l 965 211 b 958 72 965 147 958 72 b 939 46 957 56 951 46 l 882 46 b 868 -4 868 46 868 22 b 1021 0 921 -3 956 0 b 1190 -4 1088 0 1139 -1 b 1176 46 1190 21 1190 46 l 1111 46 b 1090 74 1099 46 1092 56 b 1085 211 1089 78 1085 151 l 1085 1007 l 1065 1036 b 1051 1042 1065 1036 1061 1042 l 1028 1031 b 921 1051 993 1047 950 1051 b 783 1014 872 1051 828 1038 b 693 953 746 994 714 971 b 524 1008 656 990 586 1008 b 271 914 444 1008 331 965 b 228 871 254 900 240 886 b 154 621 171 803 158 721 b 72 607 133 618 81 608 b 67 596 67 606 67 599 l 67 560 b 72 556 67 557 68 556 l 131 554 b 151 528 146 554 150 543 b 147 396 150 490 147 449 b 146 299 146 336 146 299 l 143 72 b 122 46 142 56 135 46 z "},"ß":{"ha":799,"x_min":0,"x_max":0,"o":"m 103 46 b 89 -4 89 46 89 22 b 236 0 142 -3 171 0 b 379 -4 303 0 328 -1 b 365 46 379 21 379 46 l 319 46 b 300 72 307 46 301 56 l 296 300 b 293 501 296 304 293 424 b 314 821 293 653 293 750 b 451 935 335 879 374 935 b 588 833 499 935 546 933 b 599 747 590 826 599 796 b 443 522 599 715 586 651 b 433 503 438 517 435 511 b 433 451 431 485 432 463 b 443 432 433 443 439 435 b 583 313 444 431 572 326 b 651 161 594 299 651 263 b 549 58 651 86 604 58 b 424 103 506 58 457 76 b 411 99 419 107 413 110 b 403 21 408 82 400 51 b 415 3 403 17 406 10 b 493 -18 431 -8 454 -18 b 747 240 625 -18 747 110 b 682 394 747 269 742 340 b 551 514 604 464 557 504 b 543 539 544 524 543 529 b 581 592 543 558 561 572 b 696 803 604 613 696 694 b 650 938 696 853 681 896 b 518 1007 619 978 561 1007 b 381 965 469 1007 425 989 b 289 903 342 944 310 922 b 258 871 278 893 267 882 b 185 621 201 803 189 721 b 103 607 164 618 111 608 b 97 596 97 606 97 599 l 97 560 b 103 556 97 557 99 556 l 161 554 b 182 528 176 554 181 543 b 178 396 181 490 178 449 b 176 299 176 336 176 299 l 174 72 b 153 46 172 56 165 46 z "},"í":{"ha":433,"x_min":0,"x_max":0,"o":"m 51 -4 b 214 0 51 -4 149 0 b 383 -4 282 0 383 -4 b 369 46 383 21 383 46 l 304 46 b 285 72 304 46 285 46 b 278 211 285 72 278 150 l 278 601 l 250 632 b 236 636 250 632 247 636 b 64 607 232 636 72 608 b 57 596 57 606 57 599 l 57 565 b 64 560 57 561 58 560 l 119 560 b 158 526 149 560 158 543 l 158 211 b 153 72 158 147 153 72 b 132 46 153 44 132 46 l 65 46 b 51 -4 51 46 51 22 z m 222 958 b 203 947 211 957 206 954 b 131 765 201 944 135 771 b 132 753 128 758 129 756 b 156 732 136 750 146 739 b 169 736 163 729 165 731 b 319 931 188 753 311 919 b 318 947 328 940 322 947 z "},"«":{"ha":868,"x_min":0,"x_max":0,"o":"m 456 494 b 461 500 457 494 460 497 b 469 556 467 511 469 546 b 461 561 469 561 467 565 b 74 326 393 510 182 372 b 65 286 58 321 57 292 b 450 54 154 251 417 94 b 457 57 451 51 454 53 b 481 115 464 68 486 111 b 206 306 438 147 278 260 b 206 314 200 308 201 311 b 456 494 264 351 400 447 z m 789 494 b 794 500 790 494 793 497 b 803 556 800 511 803 546 b 794 561 803 561 800 565 b 407 326 726 510 515 372 b 399 286 392 321 390 292 b 783 54 488 251 750 94 b 790 57 785 51 788 53 b 814 115 797 68 819 111 b 539 306 771 147 611 260 b 539 314 533 308 535 311 b 789 494 597 351 733 447 z "},"»":{"ha":868,"x_min":0,"x_max":0,"o":"m 421 494 b 671 314 476 447 613 351 b 671 306 675 311 676 308 b 396 115 599 260 439 147 b 419 57 390 111 413 68 b 426 54 422 53 425 51 b 811 286 460 94 722 251 b 803 326 819 292 818 321 b 415 561 694 372 483 510 b 407 556 410 565 407 561 b 415 500 407 546 410 511 b 421 494 417 497 419 494 z m 88 494 b 338 314 143 447 279 351 b 338 306 342 311 343 308 b 63 115 265 260 106 147 b 86 57 57 111 79 68 b 93 54 89 53 92 51 b 478 286 126 94 389 251 b 469 326 486 292 485 321 b 82 561 361 372 150 510 b 74 556 76 565 74 561 b 82 500 74 546 76 511 b 88 494 83 497 86 494 z "},"©":{"ha":1029,"x_min":0,"x_max":0,"o":"m 515 983 b 17 485 239 983 17 761 b 515 -17 17 196 232 -17 b 1013 485 790 -17 1013 201 b 515 983 1013 761 804 983 z m 515 935 b 951 485 756 935 951 735 b 515 38 951 235 776 38 b 78 485 272 38 78 239 b 515 935 78 735 272 935 z m 601 185 l 700 203 b 711 210 706 204 708 207 b 731 319 717 239 731 319 b 726 326 731 324 731 324 b 697 335 715 329 706 333 b 693 332 694 335 693 335 b 681 290 689 313 685 301 b 603 225 665 256 635 236 b 558 219 589 221 572 219 b 325 493 338 219 325 426 b 511 738 325 613 390 738 b 611 728 569 738 611 728 b 675 672 643 718 661 710 b 682 644 682 654 682 644 b 686 640 682 642 682 640 l 717 640 b 722 644 718 640 722 640 b 731 738 724 649 731 736 b 726 747 731 746 726 747 l 708 764 l 626 772 b 521 776 593 776 551 776 b 218 472 460 776 218 750 b 519 181 218 215 451 181 b 601 185 538 181 560 181 z "},"⁄":{"ha":597,"x_min":0,"x_max":0,"o":"m 515 1011 b 506 1010 508 1015 507 1013 b 38 -201 418 775 146 31 b 50 -211 35 -208 36 -214 b 115 -187 64 -208 99 -199 b 124 -178 119 -185 122 -181 b 571 957 189 -65 476 721 b 571 967 572 961 574 964 b 515 1011 551 985 532 1000 z "},"‹":{"ha":583,"x_min":0,"x_max":0,"o":"m 456 494 b 461 500 457 494 460 497 b 469 556 467 511 469 546 b 461 561 469 561 467 565 b 74 326 393 510 182 372 b 65 286 58 321 57 292 b 450 54 154 251 417 94 b 457 57 451 51 454 53 b 481 115 464 68 486 111 b 206 306 438 147 278 260 b 206 314 200 308 201 311 b 456 494 264 351 400 447 z "},"›":{"ha":583,"x_min":0,"x_max":0,"o":"m 88 494 b 338 314 143 447 279 351 b 338 306 342 311 343 308 b 63 115 265 260 106 147 b 86 57 57 111 79 68 b 93 54 89 53 92 51 b 478 286 126 94 389 251 b 469 326 486 292 485 321 b 82 561 361 372 150 510 b 74 556 76 565 74 561 b 82 500 74 546 76 511 b 88 494 83 497 86 494 z "},"®":{"ha":453,"x_min":0,"x_max":0,"o":"m 221 981 b 35 792 118 981 35 894 b 221 603 35 682 114 603 b 408 792 325 603 408 681 b 221 981 408 900 329 981 z m 221 950 b 372 792 307 950 372 878 b 222 635 372 697 307 635 b 71 792 139 635 71 706 b 221 950 71 882 138 950 z m 200 711 b 190 718 196 711 190 714 b 189 744 190 719 189 732 l 189 781 b 190 783 189 782 190 783 l 213 783 b 224 778 217 783 219 781 b 264 714 235 760 264 714 l 275 701 b 279 700 275 700 276 700 l 324 700 b 318 711 324 704 321 711 l 310 711 b 296 715 306 711 300 713 b 240 792 264 760 240 792 l 251 799 b 279 846 275 814 279 836 b 224 893 279 868 263 893 l 174 893 b 135 894 161 893 146 893 b 138 883 135 889 135 883 l 151 883 b 163 875 156 883 163 879 l 163 744 b 161 718 163 732 161 718 b 151 711 161 714 156 711 l 138 711 b 135 699 135 711 135 704 b 174 700 146 700 161 700 b 215 699 188 700 206 700 b 214 711 215 704 215 711 z m 217 796 l 190 796 l 189 797 l 189 876 b 206 883 190 881 190 883 b 251 839 239 883 251 864 b 217 796 251 804 229 796 z "},"™":{"ha":682,"x_min":0,"x_max":0,"o":"m 638 710 b 624 719 632 710 624 714 b 618 936 624 719 621 736 b 633 946 618 942 628 946 l 653 946 b 656 961 656 946 656 954 l 586 961 l 578 944 b 490 753 579 944 490 753 l 396 960 l 372 960 b 319 961 356 960 333 961 b 324 946 319 954 319 946 l 342 946 b 360 935 347 946 360 943 b 351 726 360 935 358 749 l 378 726 b 375 796 376 735 375 763 b 376 918 375 840 376 894 l 479 696 l 486 696 l 582 904 b 585 719 586 736 585 719 b 571 710 585 714 576 710 l 553 710 b 549 694 549 710 549 701 b 603 696 563 694 585 696 b 660 694 621 696 644 694 b 656 710 660 701 660 710 z m 197 710 b 179 719 192 710 179 711 l 179 940 b 183 942 179 942 181 942 l 238 942 b 265 904 256 940 258 929 l 265 903 l 278 903 b 282 904 281 903 282 903 l 282 953 l 274 960 l 50 960 l 43 953 b 42 906 43 953 43 951 l 42 903 l 56 903 b 58 904 58 903 58 903 b 89 942 61 931 72 942 l 143 942 b 144 940 144 942 144 940 l 144 719 b 126 710 144 711 133 710 l 104 710 b 103 694 103 710 103 701 b 160 696 114 694 144 696 b 221 694 179 696 206 696 b 215 710 221 701 221 710 z m 400 710 b 378 726 392 710 378 714 l 351 726 b 332 710 347 714 342 710 l 314 710 b 310 694 310 710 310 701 b 364 696 325 694 346 696 b 421 694 382 696 407 694 b 417 710 421 701 421 710 z "},"%":{"ha":979,"x_min":0,"x_max":0,"o":"m 106 643 b 233 836 106 733 125 836 b 346 594 314 836 346 724 b 233 401 346 504 306 401 b 106 643 144 401 106 514 z m 6 607 b 199 353 6 464 79 353 b 442 631 339 353 442 457 b 261 885 442 774 367 885 b 6 607 111 885 6 757 z m 631 254 b 758 447 631 344 650 447 b 871 206 839 447 871 335 b 758 13 871 115 831 13 b 631 254 669 13 631 125 z m 531 218 b 724 -36 531 75 604 -36 b 967 242 864 -36 967 68 b 786 496 967 385 892 496 b 531 218 636 496 531 368 z m 175 -99 b 189 -101 182 -104 185 -107 b 858 907 325 108 701 704 b 847 919 863 913 861 919 b 789 911 833 919 807 917 b 775 901 782 908 778 904 b 140 -36 686 806 285 174 b 139 -49 138 -40 136 -46 b 175 -99 156 -71 161 -85 z "},"'":{"ha":236,"x_min":0,"x_max":0,"o":"m 71 960 b 67 943 61 954 65 951 b 86 629 96 789 92 736 b 89 619 86 624 85 619 l 100 619 b 110 625 103 619 104 621 b 175 996 175 678 181 914 b 153 1008 174 1014 157 1011 z "},"*":{"ha":556,"x_min":0,"x_max":0,"o":"m 78 718 b 60 704 71 715 67 714 b 31 653 46 685 32 658 b 39 644 29 649 33 644 b 231 714 40 644 42 646 b 203 572 221 664 215 626 b 247 504 199 553 226 504 b 254 513 251 504 253 507 b 294 700 265 557 279 628 b 411 603 339 664 381 629 b 488 611 421 594 474 604 b 486 626 493 614 493 621 b 335 753 447 657 396 704 b 485 807 389 774 440 790 b 517 868 499 813 517 851 b 511 876 517 874 515 878 b 317 806 493 871 347 818 l 361 994 b 350 1004 361 1000 357 1004 b 303 993 332 1003 308 996 b 292 978 296 990 294 988 l 256 818 l 128 925 b 110 926 121 931 117 931 b 69 900 100 921 74 904 b 72 885 67 897 64 892 b 211 768 93 865 149 824 z "},"@":{"ha":1069,"x_min":0,"x_max":0,"o":"m 564 -22 b 847 50 722 -22 836 46 b 858 103 861 56 860 100 b 851 104 857 108 851 104 b 594 35 851 104 764 35 b 121 481 314 35 121 203 b 521 944 121 729 261 944 b 972 532 783 944 972 774 b 814 236 972 368 921 236 b 710 335 719 236 714 292 b 708 449 710 376 708 413 l 708 642 b 533 779 708 750 586 779 b 364 688 467 779 372 692 b 361 675 361 686 361 682 l 363 606 b 365 601 363 601 365 601 b 414 600 379 600 414 600 b 417 604 415 600 417 600 b 421 678 418 650 419 667 b 435 708 422 690 425 696 b 492 722 465 717 483 722 b 626 613 585 722 626 651 l 626 532 b 411 478 524 511 486 506 b 329 374 372 461 329 444 b 453 240 329 303 376 240 b 626 331 513 240 561 296 b 640 257 626 331 628 282 b 803 181 656 225 669 181 b 1033 556 936 181 1033 329 b 540 990 1033 796 817 990 b 31 499 244 990 31 765 b 564 -22 31 332 122 -18 z m 626 369 b 482 317 567 339 514 317 b 411 375 429 317 411 336 b 468 449 411 417 424 436 b 626 494 492 456 557 476 z "},"£":{"ha":800,"x_min":0,"x_max":0,"o":"m 131 139 b 51 31 82 82 50 31 b 50 18 50 25 50 22 b 56 -3 50 6 56 -1 b 126 13 69 -1 93 13 b 144 11 132 13 138 13 b 490 0 206 1 415 0 b 651 7 561 0 607 -3 b 671 19 664 10 668 13 b 711 240 682 68 711 240 b 704 250 711 247 710 247 b 669 260 683 257 683 257 b 660 256 665 261 661 260 b 639 183 653 224 649 206 b 494 97 614 126 585 97 b 201 100 413 97 231 97 b 189 114 192 100 189 110 b 207 143 189 117 196 129 b 314 435 296 246 311 356 b 322 439 315 438 318 439 l 511 439 l 535 506 l 319 506 b 314 507 317 506 315 506 b 344 808 314 651 317 744 b 440 879 363 851 389 879 b 524 822 490 879 518 868 l 528 775 b 533 769 528 771 529 769 b 578 769 532 769 563 768 b 583 774 581 769 583 771 l 603 903 b 601 918 604 913 601 918 b 511 969 585 953 544 969 b 344 893 464 968 396 928 b 204 544 219 807 208 696 b 203 506 204 532 204 519 l 92 492 b 86 481 86 490 86 483 l 86 444 b 92 440 86 442 88 440 l 178 439 b 199 407 196 439 199 425 l 199 358 b 131 139 197 299 165 178 z "},"¶":{"ha":836,"x_min":0,"x_max":0,"o":"m 518 961 b 328 940 463 961 440 961 b 25 558 81 894 25 726 b 406 188 25 351 214 188 b 518 208 444 188 486 193 b 507 -193 515 -139 511 -182 b 461 -222 500 -214 488 -218 b 314 -239 442 -225 394 -233 b 307 -244 308 -239 308 -240 b 310 -335 307 -246 307 -307 b 315 -340 310 -335 310 -340 l 463 -340 b 503 -319 485 -342 489 -333 b 639 65 593 -204 639 -72 b 649 872 639 147 649 265 b 704 910 649 897 681 910 l 771 910 b 785 965 785 910 785 939 b 590 961 732 964 656 961 z m 518 275 b 368 626 483 283 368 313 b 507 865 368 742 419 865 l 519 865 l 519 339 z "},"\"":{"ha":374,"x_min":0,"x_max":0,"o":"m 164 931 b 160 988 164 954 164 979 b 147 989 157 992 147 989 b 72 946 132 985 89 957 b 67 936 68 943 65 942 b 86 650 82 893 85 761 b 101 643 86 638 99 640 b 135 701 113 654 124 671 b 164 931 144 725 164 853 z m 351 939 b 347 996 351 963 351 988 b 335 997 344 1000 335 997 b 260 954 319 993 276 965 b 254 944 256 951 253 950 b 274 658 269 901 272 769 b 289 651 274 646 286 649 b 322 710 300 663 311 679 b 351 939 332 733 351 861 z "},"÷":{"ha":736,"x_min":0,"x_max":0,"o":"m 103 393 b 96 389 97 393 97 392 b 83 326 92 376 85 338 b 88 317 83 326 82 317 b 672 318 108 315 661 315 b 683 385 678 319 683 369 l 683 389 b 676 394 683 392 683 394 b 103 393 613 396 111 394 z m 299 142 b 310 101 300 132 303 110 b 358 79 319 89 340 79 b 428 97 397 79 411 82 b 444 143 442 110 443 128 b 435 207 446 178 443 196 b 358 228 424 221 396 232 b 311 206 340 226 321 219 b 299 142 296 183 296 175 z m 299 531 b 310 490 300 521 303 499 b 358 468 319 478 340 468 b 428 486 397 468 411 471 b 444 532 442 499 443 517 b 435 596 446 567 443 585 b 358 617 424 610 396 621 b 311 594 340 615 321 608 b 299 531 296 572 296 564 z "},"∫":{"ha":694,"x_min":0,"x_max":0,"o":"m 411 1022 b 258 674 285 940 258 808 b 293 199 258 518 275 347 b 314 -46 306 92 314 14 b 206 -218 314 -122 293 -218 b 122 -161 156 -218 128 -207 l 118 -114 b 113 -108 118 -110 117 -108 b 68 -108 114 -108 83 -107 b 63 -112 65 -108 63 -110 l 43 -242 b 44 -257 42 -251 44 -257 b 135 -308 61 -292 101 -308 b 263 -253 171 -307 219 -282 b 413 43 394 -182 413 -65 b 372 725 413 282 372 503 b 493 1000 372 825 376 1000 b 576 943 543 1000 571 989 l 581 896 b 586 890 581 892 582 890 b 631 890 585 890 615 889 b 636 894 633 890 636 892 l 656 1024 b 654 1039 657 1033 654 1039 b 564 1090 638 1074 597 1090 b 411 1022 518 1089 458 1057 z "},"¸":{"ha":1157,"x_min":0,"x_max":0,"o":"m 556 -26 b 483 -124 526 -65 483 -124 b 485 -139 479 -129 478 -137 b 610 -225 604 -149 610 -183 b 535 -290 610 -256 572 -290 b 438 -264 504 -290 472 -282 b 432 -268 435 -262 433 -264 b 429 -294 429 -276 429 -286 b 433 -306 429 -300 431 -303 b 514 -344 453 -329 476 -344 b 681 -201 561 -344 681 -299 b 647 -124 681 -175 672 -144 b 571 -87 626 -107 599 -93 l 611 -26 z "},"Ç":{"ha":1044,"x_min":0,"x_max":0,"o":"m 929 13 b 949 25 942 15 946 18 b 982 210 960 74 982 210 b 975 219 982 217 981 217 b 926 235 954 226 940 232 b 917 231 922 236 918 235 b 896 158 910 199 906 181 b 690 39 860 75 767 39 b 271 514 288 39 271 429 b 611 925 271 732 392 925 b 781 900 708 925 781 900 b 889 806 832 883 865 871 b 900 758 901 775 900 758 b 907 753 901 754 903 753 l 960 753 b 968 758 963 753 967 753 b 981 919 969 768 981 915 b 975 933 981 931 975 933 l 946 961 b 628 986 751 983 681 986 b 114 469 525 986 114 939 b 625 -29 114 33 510 -29 b 929 13 738 -29 836 -8 z m 561 -7 b 489 -104 532 -46 489 -104 b 490 -119 485 -110 483 -118 b 615 -206 610 -129 615 -164 b 540 -271 615 -236 578 -271 b 443 -244 510 -271 478 -262 b 438 -249 440 -243 439 -244 b 435 -275 435 -257 435 -267 b 439 -286 435 -281 436 -283 b 519 -325 458 -310 482 -325 b 686 -182 567 -325 686 -279 b 653 -104 686 -156 678 -125 b 576 -68 632 -87 604 -74 l 617 -7 z "},"ç":{"ha":653,"x_min":0,"x_max":0,"o":"m 576 114 l 544 90 b 400 50 486 50 439 50 b 188 307 263 50 188 192 b 354 582 189 460 215 582 b 474 515 393 582 458 579 b 483 432 478 494 481 468 b 489 426 483 428 485 426 b 544 428 488 426 529 426 b 550 432 547 428 550 429 l 567 569 b 563 589 569 585 563 589 b 392 639 526 617 453 639 b 64 304 176 639 65 494 b 365 -18 64 158 158 -18 b 585 57 440 -18 518 -3 l 599 69 b 576 114 613 83 589 103 z m 328 -12 b 256 -110 299 -51 256 -110 b 257 -125 251 -115 250 -124 b 382 -211 376 -135 382 -169 b 307 -276 382 -242 344 -276 b 210 -250 276 -276 244 -268 b 204 -254 207 -249 206 -250 b 201 -281 201 -262 201 -272 b 206 -292 201 -286 203 -289 b 286 -331 225 -315 249 -331 b 453 -187 333 -331 453 -285 b 419 -110 453 -161 444 -131 b 343 -74 399 -93 371 -79 l 383 -12 z "},"±":{"ha":736,"x_min":0,"x_max":0,"o":"m 324 150 b 336 146 324 147 333 144 b 410 165 349 147 401 161 b 414 179 411 165 414 168 b 413 335 414 204 413 265 l 413 450 l 676 451 b 704 525 685 454 703 518 b 701 539 706 529 704 536 l 560 539 b 414 540 492 539 439 539 b 413 689 413 565 413 619 l 413 832 b 399 835 410 835 403 836 b 325 807 392 833 328 815 l 324 539 l 239 539 b 83 540 169 539 108 539 b 71 539 72 542 71 540 b 50 463 67 531 51 475 b 54 450 49 460 51 450 l 325 451 z m 667 11 b 694 85 675 14 693 78 b 692 99 696 89 694 96 l 232 99 b 83 100 163 99 108 99 b 71 99 72 101 71 100 b 50 22 67 90 51 35 b 54 10 49 19 51 10 z "},"≤":{"ha":794,"x_min":0,"x_max":0,"o":"m 685 718 b 694 731 686 719 693 724 b 708 831 700 751 708 815 b 699 839 708 838 704 842 b 47 486 643 794 189 560 b 29 424 35 481 18 429 b 675 93 179 363 608 143 b 689 99 679 90 685 92 b 721 190 699 114 728 183 b 200 457 679 228 257 422 b 200 465 194 460 196 463 b 685 718 297 515 646 688 z m 706 -40 b 733 33 714 -37 732 26 b 731 47 735 38 733 44 l 204 47 b 56 49 135 47 81 47 b 43 47 44 50 43 49 b 22 -29 39 39 24 -17 b 26 -42 21 -32 24 -42 z "},"≥":{"ha":736,"x_min":0,"x_max":0,"o":"m 703 -40 b 731 33 711 -37 729 26 b 728 47 732 38 731 44 l 201 47 b 53 49 132 47 78 47 b 40 47 42 50 40 49 b 19 -29 36 39 21 -17 b 24 -42 18 -32 21 -42 z m 60 206 b 50 193 58 204 51 200 b 36 93 44 172 36 108 b 46 85 36 86 40 82 b 697 438 101 129 556 364 b 715 500 710 443 726 494 b 69 831 565 561 136 781 b 56 825 65 833 60 832 b 24 733 46 810 17 740 b 544 467 65 696 488 501 b 544 458 550 464 549 461 b 60 206 447 408 99 236 z "},"•":{"ha":465,"x_min":0,"x_max":0,"o":"m 226 460 b 118 417 189 460 147 444 b 69 306 82 382 69 343 b 113 188 69 260 81 221 b 219 147 140 160 189 147 b 336 190 265 147 306 160 b 378 303 367 221 378 267 b 333 422 378 340 372 386 b 226 460 306 447 265 460 z "},"ó":{"ha":753,"x_min":0,"x_max":0,"o":"m 189 340 b 360 578 189 451 235 578 b 564 281 490 578 564 439 b 393 43 564 169 518 43 b 189 340 263 43 189 182 z m 64 296 b 358 -18 64 119 150 -18 b 689 325 558 -18 689 140 b 394 639 689 501 603 639 b 64 296 194 639 64 481 z m 392 958 b 372 947 381 957 375 954 b 300 765 371 944 304 771 b 301 753 297 758 299 756 b 325 732 306 750 315 739 b 339 736 332 729 335 731 b 489 931 357 753 481 919 b 488 947 497 940 492 947 z "},"˚":{"ha":335,"x_min":0,"x_max":0,"o":"m 175 975 b 60 868 97 975 60 931 b 169 767 60 792 131 767 b 283 874 235 767 283 807 b 175 975 283 929 244 975 z m 169 924 b 240 868 221 924 240 903 b 175 818 240 839 210 818 b 104 869 138 818 104 838 b 169 924 104 901 126 924 z "},"Å":{"ha":1001,"x_min":0,"x_max":0,"o":"m 513 801 l 633 454 b 626 451 632 453 631 451 l 390 451 b 385 453 388 451 386 451 z m 1015 51 l 958 51 b 901 89 935 51 913 68 b 581 963 893 100 615 842 b 543 961 568 961 558 961 b 513 961 532 961 522 960 l 501 963 b 171 90 460 843 171 90 b 110 53 161 65 128 53 l 43 53 b 29 -3 29 53 29 24 b 224 1 82 -1 158 1 b 385 -3 290 1 333 0 b 369 53 385 22 385 53 l 304 53 b 251 90 264 53 243 68 l 358 383 b 364 385 360 385 361 385 l 653 385 b 660 383 656 385 657 385 b 761 89 714 225 761 89 b 710 51 774 57 729 51 l 654 51 b 640 -4 640 51 640 22 b 835 0 693 -3 769 0 b 1029 -4 901 0 978 -1 b 1015 51 1029 21 1029 51 z m 546 1215 b 431 1108 468 1215 431 1171 b 540 1007 431 1032 501 1007 b 654 1114 606 1007 654 1047 b 546 1215 654 1169 615 1215 z m 540 1164 b 611 1108 592 1164 611 1143 b 546 1058 611 1079 581 1058 b 475 1110 508 1058 475 1078 b 540 1164 475 1142 497 1164 z "},"å":{"ha":636,"x_min":0,"x_max":0,"o":"m 414 136 b 235 65 364 99 289 65 b 161 146 196 65 161 96 b 221 225 161 188 189 211 b 414 285 267 246 332 267 z m 96 518 l 99 425 b 103 421 99 421 103 421 b 167 418 122 418 165 418 b 171 424 169 419 171 419 b 181 521 175 482 178 507 b 254 561 186 556 228 561 b 414 432 381 561 413 485 l 414 331 b 161 268 296 313 239 296 b 50 144 113 251 50 213 b 211 -18 50 46 119 -18 b 414 88 288 -18 358 35 l 414 14 l 442 -17 b 456 -21 442 -17 444 -21 b 615 3 461 -21 535 -10 b 622 14 622 4 622 8 l 622 43 b 614 49 622 46 619 49 l 588 49 b 535 101 553 49 538 71 b 532 238 535 101 532 138 l 532 469 b 308 639 532 601 383 639 b 103 536 225 639 124 550 b 96 518 96 531 96 529 z m 321 947 b 206 840 243 947 206 903 b 315 739 206 764 276 739 b 429 846 381 739 429 779 b 321 947 429 901 390 947 z m 315 896 b 386 840 367 896 386 875 b 321 790 386 811 356 790 b 250 842 283 790 250 810 b 315 896 250 874 272 896 z "},"ˇ":{"ha":403,"x_min":0,"x_max":0,"o":"m 154 715 b 164 710 154 715 157 708 b 206 721 175 711 200 719 b 219 740 210 724 214 729 b 335 951 224 753 317 932 b 321 965 338 956 339 965 b 272 944 303 965 282 961 b 201 826 260 924 210 843 b 189 828 197 819 194 815 b 108 957 182 840 131 933 b 89 961 104 960 101 967 b 43 944 78 958 47 949 b 43 928 38 942 39 936 b 154 715 53 914 121 793 z "},"Ž":{"ha":844,"x_min":0,"x_max":0,"o":"m 638 -3 l 781 -3 b 817 38 800 -3 813 11 l 838 188 b 831 196 838 192 836 194 l 776 211 b 771 206 772 211 772 210 b 638 64 742 107 725 64 l 442 64 b 268 65 361 64 283 64 b 249 78 254 67 239 63 b 800 926 306 171 742 819 l 763 963 b 260 961 763 963 258 961 l 111 961 l 86 935 b 82 921 86 935 82 932 l 64 771 b 71 765 64 767 65 765 l 126 763 b 132 768 131 763 131 764 b 250 890 150 858 168 890 l 625 890 b 626 879 628 890 631 886 b 65 39 578 782 176 204 l 103 3 b 638 -3 235 1 579 -1 z m 388 1014 b 397 1008 388 1014 390 1007 b 439 1019 408 1010 433 1018 b 453 1039 443 1022 447 1028 b 568 1250 457 1051 550 1231 b 554 1264 571 1254 572 1264 b 506 1243 536 1264 515 1260 b 435 1125 493 1222 443 1142 b 422 1126 431 1118 428 1114 b 342 1256 415 1139 364 1232 b 322 1260 338 1258 335 1265 b 276 1243 311 1257 281 1247 b 276 1226 271 1240 272 1235 b 388 1014 286 1213 354 1092 z "},"ž":{"ha":594,"x_min":0,"x_max":0,"o":"m 190 621 l 82 624 b 65 607 82 624 69 624 l 42 464 b 46 460 42 461 43 460 b 94 450 61 456 96 450 b 101 454 99 449 100 450 b 197 565 133 560 139 564 l 371 565 b 372 554 374 565 375 561 b 43 25 322 456 124 147 l 67 0 b 436 -1 142 0 436 -1 l 506 -3 b 522 14 506 -3 518 -3 l 546 174 b 542 181 546 176 546 179 b 493 190 526 185 494 190 b 486 185 489 190 488 189 b 403 53 457 88 449 58 l 296 53 b 233 54 268 53 244 53 b 213 69 219 56 203 54 b 526 597 269 163 467 489 l 501 622 b 190 621 501 622 189 621 z m 263 722 b 272 717 263 722 265 715 b 314 728 283 718 308 726 b 328 747 318 731 322 736 b 443 958 332 760 425 939 b 429 972 446 963 447 972 b 381 951 411 972 390 968 b 310 833 368 931 318 850 b 297 835 306 826 303 822 b 217 964 290 847 239 940 b 197 968 213 967 210 974 b 151 951 186 965 156 956 b 151 935 146 949 147 943 b 263 722 161 921 229 800 z "},"ý":{"ha":683,"x_min":0,"x_max":0,"o":"m 183 -268 b 153 -290 176 -282 171 -286 b 47 -299 139 -293 106 -294 b 42 -303 43 -299 42 -300 b 44 -368 42 -304 42 -349 b 49 -372 44 -368 44 -372 l 157 -375 b 185 -358 172 -375 175 -368 b 275 -210 240 -294 250 -272 l 572 533 b 636 575 582 557 607 575 l 676 575 b 690 625 690 575 690 600 b 563 621 639 621 614 621 b 422 625 517 621 475 624 b 436 575 422 599 422 575 l 481 575 b 508 533 504 575 518 556 b 356 153 508 533 431 339 b 206 550 294 321 206 550 b 204 557 204 553 204 556 b 233 575 204 569 221 575 l 283 575 b 299 625 299 575 299 600 b 128 621 247 621 196 621 b -35 625 63 621 18 624 b -21 575 -35 599 -35 575 l 26 575 b 74 550 43 575 64 568 b 289 -8 83 540 251 115 z m 364 958 b 344 947 353 957 347 954 b 272 765 343 944 276 771 b 274 753 269 758 271 756 b 297 732 278 750 288 739 b 311 736 304 729 307 731 b 461 931 329 753 453 919 b 460 947 469 940 464 947 z "},"Ý":{"ha":872,"x_min":0,"x_max":0,"o":"m 526 129 b 522 306 524 161 522 238 b 528 422 522 379 524 411 b 799 872 604 551 726 786 b 867 910 815 892 835 910 l 921 910 b 935 965 935 910 935 940 b 757 961 883 963 824 961 b 581 965 692 961 633 964 b 594 910 581 939 581 910 l 661 910 b 700 872 689 910 714 901 b 490 479 681 815 563 592 b 289 872 374 683 289 872 b 282 897 285 882 282 890 b 297 910 282 904 286 910 l 351 910 b 365 965 365 910 365 940 b 181 961 314 963 247 961 b -14 965 115 961 39 964 b 0 910 -14 939 -14 910 l 67 910 b 129 872 97 910 115 893 b 357 461 192 788 289 596 l 376 424 b 390 343 389 399 390 371 b 388 129 390 254 388 192 b 328 51 388 78 354 51 l 257 51 b 243 -4 243 51 243 22 b 447 0 296 -3 382 0 b 661 -4 515 0 610 -1 b 647 51 661 21 661 51 l 582 51 b 526 129 551 51 531 78 z m 546 1235 b 526 1224 535 1233 529 1231 b 454 1042 525 1221 458 1047 b 456 1029 451 1035 453 1032 b 479 1008 460 1026 469 1015 b 493 1013 486 1006 489 1007 b 643 1207 511 1029 635 1196 b 642 1224 651 1217 646 1224 z "},"š":{"ha":521,"x_min":0,"x_max":0,"o":"m 56 450 b 217 267 56 360 136 303 b 353 131 332 215 353 171 b 250 33 353 64 315 33 b 171 51 215 33 194 39 b 100 186 135 71 117 100 b 93 190 99 190 97 192 b 53 185 94 192 68 189 b 49 181 50 185 49 183 l 51 29 b 63 10 51 14 58 11 b 214 -19 131 -14 171 -19 b 465 172 340 -19 465 36 b 261 375 465 285 356 324 b 160 506 165 426 160 453 b 261 589 160 543 199 589 b 328 574 293 589 314 579 b 378 432 353 560 368 558 b 383 426 378 428 379 426 b 424 426 382 426 408 425 b 429 431 426 426 429 428 l 450 568 b 447 586 451 575 451 582 l 413 622 l 349 632 b 286 638 350 632 322 638 b 56 450 157 638 56 575 z m 226 722 b 236 717 226 722 229 715 b 278 728 247 718 272 726 b 292 747 282 731 286 736 b 407 958 296 760 389 939 b 393 972 410 963 411 972 b 344 951 375 972 354 968 b 274 833 332 931 282 850 b 261 835 269 826 267 822 b 181 964 254 847 203 940 b 161 968 176 967 174 974 b 115 951 150 965 119 956 b 115 935 110 949 111 943 b 226 722 125 921 193 800 z "},"Š":{"ha":717,"x_min":0,"x_max":0,"o":"m 511 886 b 546 764 524 869 544 813 b 551 758 546 760 547 758 b 604 758 550 758 589 757 b 610 764 607 758 610 760 l 618 919 b 614 938 619 932 614 938 l 589 964 l 525 974 b 394 985 526 974 463 985 b 85 706 219 985 85 886 b 326 419 85 601 167 506 b 528 207 513 321 528 236 b 350 29 528 101 458 29 b 164 107 207 29 164 107 b 122 219 139 150 138 172 b 114 224 121 224 118 225 l 61 208 b 56 200 57 207 56 207 b 81 29 56 188 79 35 b 85 18 81 24 85 18 b 304 -28 174 -15 239 -28 b 653 253 488 -28 653 68 b 349 569 653 444 511 475 b 207 788 215 646 207 704 b 372 935 207 882 281 935 b 511 886 481 935 511 886 z m 324 1017 b 333 1011 324 1017 326 1010 b 375 1022 344 1013 369 1021 b 389 1042 379 1025 383 1031 b 504 1253 393 1054 486 1233 b 490 1267 507 1257 508 1267 b 442 1246 472 1267 451 1263 b 371 1128 429 1225 379 1144 b 358 1129 367 1121 364 1117 b 278 1258 351 1142 300 1235 b 258 1263 274 1261 271 1268 b 213 1246 247 1260 217 1250 b 213 1229 207 1243 208 1238 b 324 1017 222 1215 290 1094 z "},"~":{"ha":803,"x_min":0,"x_max":0,"o":"m 76 329 b 68 288 72 322 68 310 b 85 283 68 289 71 271 b 246 361 128 322 192 361 b 482 282 339 361 418 282 b 650 360 550 282 625 340 b 699 417 667 372 693 394 b 689 451 704 440 704 464 b 521 368 676 439 592 368 b 269 444 436 368 393 444 b 138 385 232 444 190 429 b 76 329 135 383 89 350 z "},"#":{"ha":825,"x_min":0,"x_max":0,"o":"m 753 581 b 781 649 760 582 779 638 b 778 663 781 653 782 661 l 621 663 l 660 932 b 658 942 661 936 661 940 b 586 972 643 950 594 969 b 578 968 579 975 578 972 l 538 663 l 354 663 l 393 929 b 392 939 394 933 394 938 b 321 969 368 951 340 963 b 313 965 314 972 313 969 l 272 663 b 129 665 179 664 146 664 b 117 663 119 665 118 665 b 104 593 113 653 106 604 b 113 581 104 589 104 581 l 261 581 b 232 376 253 513 242 444 b 96 379 144 378 113 378 b 83 376 86 379 85 379 b 71 307 79 367 72 318 b 79 294 71 303 71 294 l 221 294 b 168 -8 203 179 185 74 b 183 -15 167 -15 169 -21 b 244 24 196 -8 232 8 b 251 35 249 26 250 32 b 301 294 265 79 282 176 l 486 294 b 435 -8 468 179 451 74 b 450 -15 433 -15 436 -21 b 511 24 463 -8 499 8 b 518 35 515 26 517 32 b 568 294 532 79 549 176 l 719 294 b 747 363 726 296 746 351 b 744 376 747 367 749 375 l 581 376 l 610 581 z m 314 376 l 343 581 l 526 581 b 499 376 518 513 508 444 z "},"¬":{"ha":736,"x_min":0,"x_max":0,"o":"m 585 401 b 603 382 600 401 603 394 l 603 369 l 604 135 b 678 107 607 126 671 108 b 692 110 682 106 689 107 l 693 401 l 693 469 b 672 489 693 479 683 489 l 671 489 b 108 490 142 489 133 489 b 96 489 97 492 96 490 b 75 413 92 481 76 425 b 79 400 74 410 76 400 z "},"˝":{"ha":556,"x_min":0,"x_max":0,"o":"m 179 958 b 160 947 168 957 163 954 b 103 761 158 944 107 767 b 104 749 100 754 101 751 b 128 728 108 746 118 735 b 142 732 135 725 138 726 b 276 931 160 749 268 919 b 275 947 285 940 279 947 z m 360 958 b 340 947 349 957 343 954 b 268 757 339 944 272 763 b 269 744 265 750 267 747 b 293 724 274 742 283 731 b 307 728 300 721 303 722 b 457 931 325 744 449 919 b 456 947 465 940 460 947 z "},"∞":{"ha":1113,"x_min":0,"x_max":0,"o":"m 1008 289 b 760 564 1008 468 910 564 b 529 414 679 564 610 533 b 519 415 528 411 522 410 b 269 565 401 583 296 565 b 46 318 138 565 46 422 b 293 47 46 133 157 47 b 539 224 368 47 450 83 b 546 224 540 226 543 228 b 783 49 631 97 710 50 b 1008 289 882 47 1008 149 z m 956 321 b 775 144 956 208 885 144 b 586 258 722 144 651 181 b 586 272 582 264 583 268 b 800 479 660 400 701 479 b 956 321 888 479 956 422 z m 106 288 b 297 492 106 413 194 492 b 496 374 371 492 426 456 b 496 360 499 369 499 364 b 246 139 404 197 350 139 b 106 288 172 139 106 208 z "},"·":{"ha":279,"x_min":0,"x_max":0,"o":"m 67 549 b 143 486 69 514 104 486 b 217 563 181 486 217 506 b 138 635 217 619 194 635 b 67 549 85 635 63 597 z "}}}
